<?xml version="1.0" standalone="no"?>
<!DOCTYPE svg PUBLIC "-//W3C//DTD SVG 20010904//EN"
 "http://www.w3.org/TR/2001/REC-SVG-20010904/DTD/svg10.dtd">
<svg version="1.0" xmlns="http://www.w3.org/2000/svg"
 width="100.000000pt" height="100.000000pt" viewBox="0 0 100.000000 100.000000"
 preserveAspectRatio="xMidYMid meet">
<metadata>
Created by potrace 1.16, written by Peter Selinger 2001-2019
</metadata>
<g transform="translate(0.000000,100.000000) scale(0.100000,-0.100000)"
fill="#000000" stroke="none">
<path d="M407 619 c-75 -40 -102 -135 -51 -186 22 -21 32 -25 68 -21 24 3 61
17 82 32 l39 26 17 -40 c21 -49 44 -55 32 -7 -10 43 -11 107 -1 135 7 18 2 28
-22 52 -25 25 -37 30 -78 30 -28 -1 -64 -9 -86 -21z m133 -64 c0 -55 0 -56
-47 -85 -26 -17 -58 -30 -72 -30 -33 0 -61 27 -61 59 1 63 58 111 133 111 l47
0 0 -55z"/>
</g>
</svg>
