<?xml version="1.0" standalone="no"?>
<!DOCTYPE svg PUBLIC "-//W3C//DTD SVG 20010904//EN"
 "http://www.w3.org/TR/2001/REC-SVG-20010904/DTD/svg10.dtd">
<svg version="1.0" xmlns="http://www.w3.org/2000/svg"
 width="100.000000pt" height="100.000000pt" viewBox="0 0 100.000000 100.000000"
 preserveAspectRatio="xMidYMid meet">
<metadata>
Created by potrace 1.16, written by Peter Selinger 2001-2019
</metadata>
<g transform="translate(0.000000,100.000000) scale(0.100000,-0.100000)"
fill="#000000" stroke="none">
<path d="M376 631 c-38 -26 -55 -57 -56 -104 0 -69 42 -117 104 -117 13 0 48
13 79 28 l56 29 30 -36 c22 -28 32 -33 41 -24 10 9 6 19 -15 48 -28 35 -28 37
-12 71 22 45 21 66 -2 95 -17 22 -27 24 -107 27 -74 2 -94 -1 -118 -17z m156
-58 c3 -27 7 -54 9 -62 6 -20 -68 -61 -110 -61 -49 0 -71 24 -71 77 0 65 34
93 110 93 l57 0 5 -47z m53 26 c4 -5 4 -22 0 -37 -5 -20 -8 -23 -16 -11 -12
19 -12 59 0 59 6 0 13 -5 16 -11z"/>
</g>
</svg>
