<?xml version="1.0" standalone="no"?>
<!DOCTYPE svg PUBLIC "-//W3C//DTD SVG 20010904//EN"
 "http://www.w3.org/TR/2001/REC-SVG-20010904/DTD/svg10.dtd">
<svg version="1.0" xmlns="http://www.w3.org/2000/svg"
 width="100.000000pt" height="100.000000pt" viewBox="0 0 100.000000 100.000000"
 preserveAspectRatio="xMidYMid meet">
<metadata>
Created by potrace 1.16, written by Peter Selinger 2001-2019
</metadata>
<g transform="translate(0.000000,100.000000) scale(0.100000,-0.100000)"
fill="#000000" stroke="none">
<path d="M546 579 c-22 -5 -73 -25 -113 -45 -82 -39 -125 -87 -143 -158 -16
-63 -31 -86 -59 -93 -38 -9 -43 -13 -31 -28 13 -16 36 -10 67 17 21 20 21 20
33 -2 15 -28 85 -60 133 -60 52 0 97 21 134 63 l32 36 25 -43 c34 -58 94 -98
157 -104 46 -4 51 -3 47 14 -2 12 -16 21 -42 26 -59 12 -105 53 -133 117 -22
48 -24 65 -19 121 8 77 10 89 20 113 5 10 6 20 3 23 -10 11 -74 12 -111 3z
m48 -104 c-8 -28 -14 -63 -13 -80 2 -55 -1 -64 -32 -99 -49 -57 -145 -61 -196
-10 -22 22 -25 31 -19 71 12 89 76 141 196 158 41 6 76 11 77 10 1 0 -5 -23
-13 -50z"/>
</g>
</svg>
