<?xml version="1.0" standalone="no"?>
<!DOCTYPE svg PUBLIC "-//W3C//DTD SVG 20010904//EN"
 "http://www.w3.org/TR/2001/REC-SVG-20010904/DTD/svg10.dtd">
<svg version="1.0" xmlns="http://www.w3.org/2000/svg"
 width="100.000000pt" height="100.000000pt" viewBox="0 0 100.000000 100.000000"
 preserveAspectRatio="xMidYMid meet">
<metadata>
Created by potrace 1.16, written by Peter Selinger 2001-2019
</metadata>
<g transform="translate(0.000000,100.000000) scale(0.100000,-0.100000)"
fill="#000000" stroke="none">
<path d="M372 590 c-41 -25 -66 -81 -58 -130 7 -47 55 -90 100 -90 44 0 115
25 142 51 18 17 23 18 31 6 16 -27 49 -37 82 -26 42 15 34 35 -11 31 -28 -3
-38 2 -51 22 -10 14 -17 36 -17 50 0 33 -36 70 -88 90 -56 21 -90 20 -130 -4z
m124 -22 c17 -8 34 -29 46 -58 l19 -45 -25 -22 c-32 -27 -99 -46 -129 -37 -40
12 -57 35 -57 76 0 75 74 119 146 86z"/>
</g>
</svg>
