<?xml version="1.0" standalone="no"?>
<!DOCTYPE svg PUBLIC "-//W3C//DTD SVG 20010904//EN"
 "http://www.w3.org/TR/2001/REC-SVG-20010904/DTD/svg10.dtd">
<svg version="1.0" xmlns="http://www.w3.org/2000/svg"
 width="100.000000pt" height="100.000000pt" viewBox="0 0 100.000000 100.000000"
 preserveAspectRatio="xMidYMid meet">
<metadata>
Created by potrace 1.16, written by Peter Selinger 2001-2019
</metadata>
<g transform="translate(0.000000,100.000000) scale(0.100000,-0.100000)"
fill="#000000" stroke="none">
<path d="M450 676 c0 -218 6 -261 37 -273 10 -4 24 -13 32 -21 48 -47 251 57
251 129 0 35 -26 84 -59 112 -26 21 -43 27 -80 27 -59 0 -95 -25 -122 -84
l-19 -41 0 145 c0 167 -7 220 -26 220 -11 0 -14 -40 -14 -214z m220 -61 c68
-35 81 -106 28 -151 -37 -30 -110 -64 -138 -64 -68 0 -43 180 30 217 32 16 45
16 80 -2z"/>
</g>
</svg>
