<?xml version="1.0" standalone="no"?>
<!DOCTYPE svg PUBLIC "-//W3C//DTD SVG 20010904//EN"
 "http://www.w3.org/TR/2001/REC-SVG-20010904/DTD/svg10.dtd">
<svg version="1.0" xmlns="http://www.w3.org/2000/svg"
 width="100.000000pt" height="100.000000pt" viewBox="0 0 100.000000 100.000000"
 preserveAspectRatio="xMidYMid meet">
<metadata>
Created by potrace 1.16, written by Peter Selinger 2001-2019
</metadata>
<g transform="translate(0.000000,100.000000) scale(0.100000,-0.100000)"
fill="#000000" stroke="none">
<path d="M334 814 c-9 -21 -19 -99 -26 -187 -10 -153 -17 -177 -47 -177 -12
-1 -11 -5 7 -20 l24 -20 -13 -127 c-17 -185 -18 -175 13 -184 25 -7 133 2 200
17 54 11 105 59 124 116 25 74 25 191 -1 242 -36 71 -154 105 -218 63 l-26
-17 16 38 c10 22 18 78 21 139 4 84 2 107 -12 128 -23 35 -44 31 -62 -11z m44
-129 c-3 -55 -10 -109 -17 -120 -10 -16 -11 3 -6 103 6 125 15 177 23 137 3
-11 2 -65 0 -120z m152 -174 c47 -24 60 -53 60 -132 0 -79 -20 -152 -51 -186
-25 -25 -91 -48 -178 -58 l-53 -7 6 28 c3 16 10 65 15 109 15 120 35 202 57
226 38 42 90 49 144 20z"/>
</g>
</svg>
