<?xml version="1.0" standalone="no"?>
<!DOCTYPE svg PUBLIC "-//W3C//DTD SVG 20010904//EN"
 "http://www.w3.org/TR/2001/REC-SVG-20010904/DTD/svg10.dtd">
<svg version="1.0" xmlns="http://www.w3.org/2000/svg"
 width="100.000000pt" height="100.000000pt" viewBox="0 0 100.000000 100.000000"
 preserveAspectRatio="xMidYMid meet">
<metadata>
Created by potrace 1.16, written by Peter Selinger 2001-2019
</metadata>
<g transform="translate(0.000000,100.000000) scale(0.100000,-0.100000)"
fill="#000000" stroke="none">
<path d="M361 928 c-30 -49 -36 -104 -34 -315 2 -183 1 -192 -17 -198 -24 -8
-27 -35 -4 -35 25 0 17 -167 -9 -181 -16 -10 -16 -12 4 -40 12 -18 25 -26 32
-22 7 5 55 8 107 8 79 0 103 4 142 23 136 67 205 248 144 377 -55 117 -133
130 -235 39 l-50 -45 10 33 c27 92 20 287 -13 355 -20 41 -53 42 -77 1z m66
-44 c15 -50 16 -237 2 -289 -14 -51 -39 -105 -49 -105 -12 0 -12 354 0 400 13
50 30 48 47 -6z m212 -279 c33 -16 60 -74 68 -146 10 -82 -67 -212 -151 -256
-17 -9 -68 -18 -114 -21 l-85 -5 8 59 c21 173 99 319 196 367 42 20 43 20 78
2z"/>
</g>
</svg>
