<?xml version="1.0" standalone="no"?>
<!DOCTYPE svg PUBLIC "-//W3C//DTD SVG 20010904//EN"
 "http://www.w3.org/TR/2001/REC-SVG-20010904/DTD/svg10.dtd">
<svg version="1.0" xmlns="http://www.w3.org/2000/svg"
 width="100.000000pt" height="100.000000pt" viewBox="0 0 100.000000 100.000000"
 preserveAspectRatio="xMidYMid meet">
<metadata>
Created by potrace 1.16, written by Peter Selinger 2001-2019
</metadata>
<g transform="translate(0.000000,100.000000) scale(0.100000,-0.100000)"
fill="#000000" stroke="none">
<path d="M365 868 c-4 -10 -1 -66 5 -125 8 -65 10 -149 6 -213 -4 -66 -3 -116
4 -135 10 -30 13 -31 73 -32 74 -3 142 25 206 82 35 32 41 43 41 76 0 44 -23
73 -76 95 -59 25 -138 11 -186 -33 -17 -15 -18 -13 -18 48 -1 130 -36 285 -55
237z m282 -302 c31 -36 29 -56 -9 -93 -62 -59 -164 -97 -187 -70 -20 25 -26
113 -8 140 40 62 159 75 204 23z"/>
</g>
</svg>
