<?xml version="1.0" standalone="no"?>
<!DOCTYPE svg PUBLIC "-//W3C//DTD SVG 20010904//EN"
 "http://www.w3.org/TR/2001/REC-SVG-20010904/DTD/svg10.dtd">
<svg version="1.0" xmlns="http://www.w3.org/2000/svg"
 width="100.000000pt" height="100.000000pt" viewBox="0 0 100.000000 100.000000"
 preserveAspectRatio="xMidYMid meet">
<metadata>
Created by potrace 1.16, written by Peter Selinger 2001-2019
</metadata>
<g transform="translate(0.000000,100.000000) scale(0.100000,-0.100000)"
fill="#000000" stroke="none">
<path d="M394 713 c8 -93 -7 -242 -24 -253 -19 -12 -3 -78 25 -106 30 -30 74
-31 165 -3 113 34 142 77 100 147 -53 87 -163 68 -221 -38 l-19 -35 7 90 c15
168 3 275 -28 275 -8 0 -9 -25 -5 -77z m212 -198 c12 -8 27 -29 34 -46 13 -29
12 -33 -9 -50 -24 -20 -139 -59 -172 -59 -25 0 -24 14 5 75 25 54 49 80 81 88
34 8 40 7 61 -8z"/>
</g>
</svg>
