<?xml version="1.0" standalone="no"?>
<!DOCTYPE svg PUBLIC "-//W3C//DTD SVG 20010904//EN"
 "http://www.w3.org/TR/2001/REC-SVG-20010904/DTD/svg10.dtd">
<svg version="1.0" xmlns="http://www.w3.org/2000/svg"
 width="100.000000pt" height="100.000000pt" viewBox="0 0 100.000000 100.000000"
 preserveAspectRatio="xMidYMid meet">
<metadata>
Created by potrace 1.16, written by Peter Selinger 2001-2019
</metadata>
<g transform="translate(0.000000,100.000000) scale(0.100000,-0.100000)"
fill="#000000" stroke="none">
<path d="M393 925 c-45 -32 -65 -116 -70 -295 -5 -147 -7 -167 -25 -187 -21
-23 -17 -46 7 -37 22 9 29 -55 17 -149 -11 -85 -5 -111 24 -100 8 3 14 12 14
20 0 12 3 13 13 5 25 -21 131 3 193 44 143 95 186 251 96 348 -88 94 -185 57
-258 -98 -33 -69 -33 -70 -34 -34 0 25 10 53 30 84 48 76 63 143 58 266 -3 92
-6 111 -23 128 -19 18 -22 19 -42 5z m33 -50 c3 -14 4 -76 2 -137 -3 -97 -8
-120 -30 -162 l-25 -50 -7 48 c-14 94 17 326 44 326 5 0 12 -11 16 -25z m181
-295 c82 -50 81 -166 -4 -260 -57 -63 -100 -89 -173 -104 l-60 -13 0 59 c0 97
88 290 147 322 37 20 52 20 90 -4z"/>
</g>
</svg>
