<?xml version="1.0" standalone="no"?>
<!DOCTYPE svg PUBLIC "-//W3C//DTD SVG 20010904//EN"
 "http://www.w3.org/TR/2001/REC-SVG-20010904/DTD/svg10.dtd">
<svg version="1.0" xmlns="http://www.w3.org/2000/svg"
 width="100.000000pt" height="100.000000pt" viewBox="0 0 100.000000 100.000000"
 preserveAspectRatio="xMidYMid meet">
<metadata>
Created by potrace 1.16, written by Peter Selinger 2001-2019
</metadata>
<g transform="translate(0.000000,100.000000) scale(0.100000,-0.100000)"
fill="#000000" stroke="none">
<path d="M353 686 c-105 -39 -182 -113 -208 -198 -39 -132 1 -240 108 -295 41
-21 70 -27 142 -30 81 -4 95 -2 134 19 49 26 87 70 77 87 -4 7 -20 -2 -41 -24
-46 -46 -90 -56 -183 -45 -126 16 -192 69 -206 165 -18 118 40 217 161 277 55
27 79 33 155 36 58 3 93 1 101 -7 15 -15 27 -14 27 4 0 41 -167 48 -267 11z"/>
</g>
</svg>
