<?xml version="1.0" standalone="no"?>
<!DOCTYPE svg PUBLIC "-//W3C//DTD SVG 20010904//EN"
 "http://www.w3.org/TR/2001/REC-SVG-20010904/DTD/svg10.dtd">
<svg version="1.0" xmlns="http://www.w3.org/2000/svg"
 width="100.000000pt" height="100.000000pt" viewBox="0 0 100.000000 100.000000"
 preserveAspectRatio="xMidYMid meet">
<metadata>
Created by potrace 1.16, written by Peter Selinger 2001-2019
</metadata>
<g transform="translate(0.000000,100.000000) scale(0.100000,-0.100000)"
fill="#000000" stroke="none">
<path d="M417 610 c-62 -39 -107 -102 -107 -150 0 -70 62 -120 150 -120 94 0
213 41 189 65 -3 2 -36 -5 -74 -16 -109 -30 -175 -22 -215 26 -50 61 57 195
157 195 30 0 43 -4 41 -12 -4 -20 16 -22 27 -3 15 24 -20 45 -75 45 -34 0 -58
-8 -93 -30z"/>
</g>
</svg>
