<?xml version="1.0" standalone="no"?>
<!DOCTYPE svg PUBLIC "-//W3C//DTD SVG 20010904//EN"
 "http://www.w3.org/TR/2001/REC-SVG-20010904/DTD/svg10.dtd">
<svg version="1.0" xmlns="http://www.w3.org/2000/svg"
 width="100.000000pt" height="100.000000pt" viewBox="0 0 100.000000 100.000000"
 preserveAspectRatio="xMidYMid meet">
<metadata>
Created by potrace 1.16, written by Peter Selinger 2001-2019
</metadata>
<g transform="translate(0.000000,100.000000) scale(0.100000,-0.100000)"
fill="#000000" stroke="none">
<path d="M525 700 c-107 -27 -209 -87 -255 -151 -34 -48 -53 -125 -44 -188 5
-39 3 -49 -15 -65 -21 -19 -21 -19 -21 3 0 19 -3 20 -20 11 -23 -12 -26 -42
-6 -59 12 -10 20 -9 41 5 14 9 29 23 34 32 7 12 15 7 45 -25 56 -62 142 -104
230 -110 65 -5 79 -3 134 22 69 31 152 109 134 127 -7 7 -22 -3 -46 -30 -105
-116 -290 -107 -415 22 l-44 45 30 68 c17 37 36 85 43 106 29 92 117 136 295
146 81 5 100 9 103 22 2 12 -7 18 -35 23 -50 8 -150 6 -188 -4z m-183 -142
c-5 -7 -20 -42 -32 -78 -32 -94 -42 -105 -36 -42 5 50 48 131 70 132 5 0 4 -6
-2 -12z"/>
</g>
</svg>
