<?xml version="1.0" standalone="no"?>
<!DOCTYPE svg PUBLIC "-//W3C//DTD SVG 20010904//EN"
 "http://www.w3.org/TR/2001/REC-SVG-20010904/DTD/svg10.dtd">
<svg version="1.0" xmlns="http://www.w3.org/2000/svg"
 width="100.000000pt" height="100.000000pt" viewBox="0 0 100.000000 100.000000"
 preserveAspectRatio="xMidYMid meet">
<metadata>
Created by potrace 1.16, written by Peter Selinger 2001-2019
</metadata>
<g transform="translate(0.000000,100.000000) scale(0.100000,-0.100000)"
fill="#000000" stroke="none">
<path d="M405 618 c-98 -85 -100 -245 -5 -296 30 -15 164 -12 181 5 21 21 1
32 -38 21 -52 -14 -116 -2 -147 29 -48 47 -29 160 37 221 28 26 64 23 93 -9
18 -20 44 -26 44 -10 0 12 -58 61 -73 61 -7 0 -22 3 -33 6 -15 4 -33 -4 -59
-28z"/>
</g>
</svg>
