<?xml version="1.0" standalone="no"?>
<!DOCTYPE svg PUBLIC "-//W3C//DTD SVG 20010904//EN"
 "http://www.w3.org/TR/2001/REC-SVG-20010904/DTD/svg10.dtd">
<svg version="1.0" xmlns="http://www.w3.org/2000/svg"
 width="100.000000pt" height="100.000000pt" viewBox="0 0 100.000000 100.000000"
 preserveAspectRatio="xMidYMid meet">
<metadata>
Created by potrace 1.16, written by Peter Selinger 2001-2019
</metadata>
<g transform="translate(0.000000,100.000000) scale(0.100000,-0.100000)"
fill="#000000" stroke="none">
<path d="M517 669 c-45 -11 -132 -65 -168 -105 -59 -66 -103 -181 -97 -255 3
-29 -1 -34 -19 -37 -25 -4 -30 16 -13 49 9 16 7 19 -9 19 -30 0 -55 -43 -41
-69 13 -25 54 -37 82 -24 16 7 26 3 52 -23 48 -48 136 -77 222 -72 58 3 79 9
125 36 79 48 123 87 115 101 -5 7 -28 -4 -71 -34 -90 -65 -141 -80 -213 -66
-72 14 -139 47 -159 77 -14 23 -14 26 9 57 38 49 62 103 88 194 l22 82 52 23
c44 20 65 23 149 21 75 -1 97 1 97 11 0 8 -10 16 -22 20 -33 8 -156 6 -201 -5z
m-136 -187 c-10 -34 -32 -83 -47 -109 -25 -41 -29 -45 -32 -25 -5 36 25 125
59 172 40 54 46 43 20 -38z"/>
</g>
</svg>
