<?xml version="1.0" standalone="no"?>
<!DOCTYPE svg PUBLIC "-//W3C//DTD SVG 20010904//EN"
 "http://www.w3.org/TR/2001/REC-SVG-20010904/DTD/svg10.dtd">
<svg version="1.0" xmlns="http://www.w3.org/2000/svg"
 width="100.000000pt" height="100.000000pt" viewBox="0 0 100.000000 100.000000"
 preserveAspectRatio="xMidYMid meet">
<metadata>
Created by potrace 1.16, written by Peter Selinger 2001-2019
</metadata>
<g transform="translate(0.000000,100.000000) scale(0.100000,-0.100000)"
fill="#000000" stroke="none">
<path d="M445 616 c-49 -64 -72 -259 -38 -317 21 -35 63 -54 100 -44 71 17
257 194 238 225 -4 6 -28 -14 -58 -47 -69 -75 -163 -143 -199 -143 -46 0 -62
36 -55 128 7 88 30 174 52 192 12 10 20 6 46 -19 28 -28 49 -39 49 -26 0 16
-37 58 -61 71 -39 20 -45 18 -74 -20z"/>
</g>
</svg>
