<?xml version="1.0" standalone="no"?>
<!DOCTYPE svg PUBLIC "-//W3C//DTD SVG 20010904//EN"
 "http://www.w3.org/TR/2001/REC-SVG-20010904/DTD/svg10.dtd">
<svg version="1.0" xmlns="http://www.w3.org/2000/svg"
 width="100.000000pt" height="100.000000pt" viewBox="0 0 100.000000 100.000000"
 preserveAspectRatio="xMidYMid meet">
<metadata>
Created by potrace 1.16, written by Peter Selinger 2001-2019
</metadata>
<g transform="translate(0.000000,100.000000) scale(0.100000,-0.100000)"
fill="#000000" stroke="none">
<path d="M546 938 c-24 -39 -56 -156 -68 -254 l-11 -94 -39 0 c-102 0 -210
-113 -212 -222 -2 -96 102 -172 201 -146 32 8 86 66 115 122 l15 29 53 -71
c49 -65 96 -102 132 -102 21 0 58 29 58 46 0 11 -9 13 -40 8 -49 -8 -55 -3
-125 96 l-54 77 14 54 c33 134 42 334 19 447 -8 39 -36 43 -58 10z m40 -223
c-3 -71 -9 -143 -12 -158 l-7 -28 -23 22 c-20 18 -24 32 -24 78 0 62 23 205
42 260 l12 36 9 -40 c5 -22 6 -98 3 -170z m-101 -192 c3 -21 15 -57 25 -79 16
-37 16 -44 3 -72 -20 -42 -80 -110 -103 -117 -32 -10 -97 13 -124 46 -46 54
-28 147 41 210 41 39 63 48 109 49 40 0 42 -1 49 -37z m75 -36 c0 -5 -4 -5
-10 -2 -5 3 -10 14 -10 23 0 15 2 15 10 2 5 -8 10 -19 10 -23z"/>
</g>
</svg>
