<?xml version="1.0" standalone="no"?>
<!DOCTYPE svg PUBLIC "-//W3C//DTD SVG 20010904//EN"
 "http://www.w3.org/TR/2001/REC-SVG-20010904/DTD/svg10.dtd">
<svg version="1.0" xmlns="http://www.w3.org/2000/svg"
 width="100.000000pt" height="100.000000pt" viewBox="0 0 100.000000 100.000000"
 preserveAspectRatio="xMidYMid meet">
<metadata>
Created by potrace 1.16, written by Peter Selinger 2001-2019
</metadata>
<g transform="translate(0.000000,100.000000) scale(0.100000,-0.100000)"
fill="#000000" stroke="none">
<path d="M596 885 c-3 -8 1 -77 9 -152 12 -128 12 -141 -4 -178 -20 -46 -88
-110 -137 -131 -51 -21 -101 -18 -115 7 -32 60 46 169 121 169 33 0 78 -28 82
-50 4 -24 22 -28 26 -5 6 25 -50 72 -95 79 -85 15 -173 -65 -175 -159 0 -41 4
-52 26 -72 54 -46 139 -20 235 72 l58 56 7 -48 c8 -61 34 -96 67 -91 30 4 39
38 10 38 -11 0 -23 4 -26 10 -12 19 -26 137 -34 281 -8 135 -19 189 -40 189
-5 0 -11 -7 -15 -15z"/>
</g>
</svg>
