<?xml version="1.0" standalone="no"?>
<!DOCTYPE svg PUBLIC "-//W3C//DTD SVG 20010904//EN"
 "http://www.w3.org/TR/2001/REC-SVG-20010904/DTD/svg10.dtd">
<svg version="1.0" xmlns="http://www.w3.org/2000/svg"
 width="100.000000pt" height="100.000000pt" viewBox="0 0 100.000000 100.000000"
 preserveAspectRatio="xMidYMid meet">
<metadata>
Created by potrace 1.16, written by Peter Selinger 2001-2019
</metadata>
<g transform="translate(0.000000,100.000000) scale(0.100000,-0.100000)"
fill="#000000" stroke="none">
<path d="M553 885 c-3 -10 -3 -85 2 -169 10 -202 11 -192 -19 -230 -54 -71
-150 -105 -202 -71 -24 15 -26 22 -22 66 8 81 69 130 134 109 39 -13 64 -44
64 -77 0 -26 18 -31 26 -8 10 25 -16 73 -50 94 -65 39 -115 34 -168 -16 -36
-34 -56 -119 -39 -161 35 -85 175 -71 263 26 l36 39 11 -39 c14 -47 85 -128
112 -128 28 0 23 13 -20 57 -58 57 -73 118 -65 263 4 93 2 128 -13 184 -18 69
-37 93 -50 61z"/>
</g>
</svg>
