<?xml version="1.0" standalone="no"?>
<!DOCTYPE svg PUBLIC "-//W3C//DTD SVG 20010904//EN"
 "http://www.w3.org/TR/2001/REC-SVG-20010904/DTD/svg10.dtd">
<svg version="1.0" xmlns="http://www.w3.org/2000/svg"
 width="100.000000pt" height="100.000000pt" viewBox="0 0 100.000000 100.000000"
 preserveAspectRatio="xMidYMid meet">
<metadata>
Created by potrace 1.16, written by Peter Selinger 2001-2019
</metadata>
<g transform="translate(0.000000,100.000000) scale(0.100000,-0.100000)"
fill="#000000" stroke="none">
<path d="M536 877 c-29 -29 -62 -115 -76 -200 l-12 -64 -39 9 c-28 8 -47 7
-69 -2 -70 -29 -133 -138 -146 -254 -12 -99 47 -176 133 -176 41 0 124 42 157
79 26 29 33 27 57 -21 31 -62 68 -107 100 -124 38 -19 98 -18 106 2 7 20 -11
32 -41 27 -33 -7 -78 36 -119 114 l-36 68 34 53 c62 99 102 322 75 421 -13 50
-50 91 -80 91 -11 0 -31 -10 -44 -23z m86 -47 c24 -48 23 -163 -2 -268 -19
-81 -63 -182 -78 -182 -15 0 -42 144 -42 220 0 41 8 107 18 146 31 125 69 155
104 84z m-198 -240 c21 -8 26 -16 26 -44 0 -18 11 -76 24 -127 28 -109 28
-110 -59 -160 -68 -39 -115 -39 -149 2 -74 88 13 333 121 338 6 1 23 -3 37 -9z"/>
</g>
</svg>
