<?xml version="1.0" standalone="no"?>
<!DOCTYPE svg PUBLIC "-//W3C//DTD SVG 20010904//EN"
 "http://www.w3.org/TR/2001/REC-SVG-20010904/DTD/svg10.dtd">
<svg version="1.0" xmlns="http://www.w3.org/2000/svg"
 width="100.000000pt" height="100.000000pt" viewBox="0 0 100.000000 100.000000"
 preserveAspectRatio="xMidYMid meet">
<metadata>
Created by potrace 1.16, written by Peter Selinger 2001-2019
</metadata>
<g transform="translate(0.000000,100.000000) scale(0.100000,-0.100000)"
fill="#000000" stroke="none">
<path d="M515 724 c10 -232 11 -219 -19 -265 -34 -50 -80 -79 -129 -79 -53 0
-74 14 -88 58 -14 49 0 105 39 151 25 31 32 33 65 27 39 -7 77 -46 77 -77 0
-20 15 -25 25 -9 12 19 -26 77 -64 98 -68 38 -106 27 -152 -46 -23 -37 -29
-57 -29 -102 0 -150 137 -188 251 -71 l46 48 12 -46 c19 -71 121 -157 121
-103 0 10 -11 25 -25 32 -59 32 -89 167 -61 275 25 92 21 162 -11 226 -17 32
-36 55 -47 58 -18 3 -19 -3 -11 -175z m53 13 c5 -109 -13 -91 -22 23 -6 69 -5
83 6 72 8 -8 14 -46 16 -95z"/>
</g>
</svg>
