<?xml version="1.0" standalone="no"?>
<!DOCTYPE svg PUBLIC "-//W3C//DTD SVG 20010904//EN"
 "http://www.w3.org/TR/2001/REC-SVG-20010904/DTD/svg10.dtd">
<svg version="1.0" xmlns="http://www.w3.org/2000/svg"
 width="100.000000pt" height="100.000000pt" viewBox="0 0 100.000000 100.000000"
 preserveAspectRatio="xMidYMid meet">
<metadata>
Created by potrace 1.16, written by Peter Selinger 2001-2019
</metadata>
<g transform="translate(0.000000,100.000000) scale(0.100000,-0.100000)"
fill="#000000" stroke="none">
<path d="M588 923 c-53 -60 -76 -315 -43 -482 l17 -90 -25 -43 c-14 -24 -49
-65 -77 -92 -45 -42 -55 -47 -83 -42 -66 13 -104 95 -92 200 11 101 46 161
106 186 35 15 99 5 99 -15 0 -20 19 -19 26 0 10 26 -14 42 -70 49 -38 5 -64 3
-89 -7 -71 -30 -117 -129 -117 -250 1 -120 49 -195 133 -204 42 -5 48 -3 92
38 26 24 61 63 77 88 l31 43 35 -66 c38 -72 103 -126 153 -126 36 0 89 44 73
60 -9 9 -18 8 -37 -5 -24 -15 -28 -15 -63 1 -42 20 -87 84 -110 159 -15 47
-15 57 6 160 26 134 39 400 21 433 -14 26 -42 28 -63 5z m39 -175 c-5 -176
-25 -313 -38 -268 -14 50 -10 323 6 378 29 95 38 64 32 -110z"/>
</g>
</svg>
