<?xml version="1.0" standalone="no"?>
<!DOCTYPE svg PUBLIC "-//W3C//DTD SVG 20010904//EN"
 "http://www.w3.org/TR/2001/REC-SVG-20010904/DTD/svg10.dtd">
<svg version="1.0" xmlns="http://www.w3.org/2000/svg"
 width="100.000000pt" height="100.000000pt" viewBox="0 0 100.000000 100.000000"
 preserveAspectRatio="xMidYMid meet">
<metadata>
Created by potrace 1.16, written by Peter Selinger 2001-2019
</metadata>
<g transform="translate(0.000000,100.000000) scale(0.100000,-0.100000)"
fill="#000000" stroke="none">
<path d="M110 902 c0 -7 7 -15 15 -18 8 -4 15 -10 15 -16 0 -5 -5 -6 -12 -2
-7 5 -8 3 -3 -5 6 -10 11 -10 22 2 16 16 9 42 -9 31 -6 -4 -14 0 -19 7 -7 11
-9 11 -9 1z"/>
<path d="M396 890 c8 -32 10 -34 29 -27 8 4 15 13 15 21 0 10 -6 13 -16 9 -9
-3 -20 0 -26 8 -6 10 -7 6 -2 -11z"/>
<path d="M560 885 c-13 -14 -19 -25 -14 -25 8 1 50 50 41 50 -2 0 -14 -11 -27
-25z"/>
<path d="M704 888 l-19 -23 23 19 c21 18 27 26 19 26 -2 0 -12 -10 -23 -22z"/>
<path d="M839 890 c-13 -10 -19 -19 -13 -20 6 0 19 9 29 20 23 26 14 26 -16 0z"/>
<path d="M260 888 c0 -4 5 -8 11 -8 5 0 7 -6 3 -12 -5 -9 -2 -9 9 1 23 18 21
30 -3 28 -11 -1 -20 -5 -20 -9z"/>
</g>
</svg>
