<?xml version="1.0" standalone="no"?>
<!DOCTYPE svg PUBLIC "-//W3C//DTD SVG 20010904//EN"
 "http://www.w3.org/TR/2001/REC-SVG-20010904/DTD/svg10.dtd">
<svg version="1.0" xmlns="http://www.w3.org/2000/svg"
 width="100.000000pt" height="100.000000pt" viewBox="0 0 100.000000 100.000000"
 preserveAspectRatio="xMidYMid meet">
<metadata>
Created by potrace 1.16, written by Peter Selinger 2001-2019
</metadata>
<g transform="translate(0.000000,100.000000) scale(0.100000,-0.100000)"
fill="#000000" stroke="none">
<path d="M698 900 c-3 -16 -1 -30 4 -30 4 0 8 14 8 30 0 17 -2 30 -4 30 -2 0
-6 -13 -8 -30z"/>
<path d="M550 893 c0 -18 2 -33 4 -33 14 0 36 14 36 22 0 6 -8 4 -17 -3 -14
-12 -16 -12 -11 2 3 9 2 22 -3 30 -6 10 -9 4 -9 -18z"/>
<path d="M840 893 c0 -30 9 -27 15 6 2 11 0 21 -6 21 -5 0 -9 -12 -9 -27z"/>
<path d="M140 886 c0 -9 5 -16 10 -16 6 0 10 4 10 9 0 6 -4 13 -10 16 -5 3
-10 -1 -10 -9z"/>
<path d="M411 891 c-9 -6 -10 -11 -2 -15 6 -4 11 -2 11 5 0 8 4 8 15 -1 13
-11 14 -10 9 4 -7 18 -13 19 -33 7z"/>
<path d="M726 885 c-3 -8 -1 -15 4 -15 6 0 10 7 10 15 0 8 -2 15 -4 15 -2 0
-6 -7 -10 -15z"/>
<path d="M866 883 c-6 -14 -5 -15 5 -6 7 7 10 15 7 18 -3 3 -9 -2 -12 -12z"/>
<path d="M570 770 c-1 -8 -2 -19 -1 -24 1 -5 -5 -6 -14 -2 -9 3 -14 2 -11 -3
3 -5 17 -8 32 -8 14 0 22 2 16 6 -5 3 -12 15 -15 26 -3 13 -5 15 -7 5z"/>
<path d="M717 773 c-13 -12 -7 -41 8 -47 13 -4 14 -2 5 14 -6 11 -8 25 -5 30
7 11 2 13 -8 3z"/>
<path d="M860 756 c0 -13 6 -26 13 -29 10 -4 12 3 9 24 -5 35 -22 39 -22 5z"/>
<path d="M264 756 c-10 -8 -16 -17 -12 -21 3 -4 16 3 27 14 24 24 15 28 -15 7z"/>
<path d="M406 751 c-4 -7 -5 -15 -2 -18 9 -9 19 4 14 18 -4 11 -6 11 -12 0z"/>
<path d="M685 751 c-3 -5 -2 -12 3 -15 5 -3 9 1 9 9 0 17 -3 19 -12 6z"/>
<path d="M834 749 c-3 -6 -2 -15 3 -20 5 -5 9 -1 9 11 0 23 -2 24 -12 9z"/>
<path d="M100 740 c0 -5 5 -10 11 -10 5 0 7 5 4 10 -3 6 -8 10 -11 10 -2 0 -4
-4 -4 -10z"/>
<path d="M562 620 c-14 -24 -16 -50 -2 -50 5 0 7 7 4 15 -5 11 -2 14 12 9 15
-6 17 -4 7 6 -6 7 -9 19 -6 26 8 20 0 17 -15 -6z"/>
<path d="M706 618 c-18 -26 -21 -48 -6 -48 6 0 10 5 10 10 0 18 2 25 11 43 14
24 3 21 -15 -5z"/>
<path d="M842 615 c-15 -32 -15 -45 -2 -45 5 0 6 7 3 17 -4 9 -2 14 3 11 5 -4
10 5 10 18 2 30 0 30 -14 -1z"/>
<path d="M120 615 c-13 -15 -6 -35 13 -35 8 0 7 4 -2 9 -12 8 -12 12 -2 25 8
9 11 16 8 16 -2 0 -10 -7 -17 -15z"/>
<path d="M254 609 c-3 -6 -2 -15 3 -20 5 -5 9 -1 10 11 2 22 -2 25 -13 9z"/>
<path d="M405 610 c-8 -13 3 -30 18 -29 9 0 9 2 0 5 -7 3 -9 12 -6 20 6 16 -3
19 -12 4z"/>
<path d="M697 476 c-5 -15 -6 -31 -3 -34 8 -8 18 25 14 45 -3 13 -6 10 -11
-11z"/>
<path d="M431 481 c-1 -7 -7 -11 -16 -7 -8 3 -15 1 -15 -4 0 -6 7 -10 15 -10
18 0 20 -16 3 -23 -10 -4 -10 -6 0 -6 16 -1 25 22 19 46 -3 10 -5 12 -6 4z"/>
<path d="M550 463 c0 -21 3 -24 9 -14 5 8 7 20 4 28 -8 21 -13 15 -13 -14z"/>
<path d="M840 471 c-12 -24 -13 -34 -1 -27 9 6 22 46 15 46 -2 0 -8 -9 -14
-19z"/>
<path d="M120 471 c0 -6 5 -13 11 -17 8 -4 7 -9 -2 -15 -11 -7 -10 -9 4 -9 12
0 17 8 17 25 0 16 -6 25 -15 25 -8 0 -15 -4 -15 -9z"/>
<path d="M261 473 c-1 -6 4 -15 9 -18 6 -4 8 -11 5 -16 -4 -5 -1 -9 4 -9 6 0
11 4 11 9 0 5 3 18 7 28 6 15 4 16 -9 5 -13 -10 -17 -10 -21 0 -4 9 -6 9 -6 1z"/>
<path d="M720 461 c0 -6 4 -13 10 -16 6 -3 7 1 4 9 -7 18 -14 21 -14 7z"/>
<path d="M580 451 c0 -6 4 -13 10 -16 6 -3 7 1 4 9 -7 18 -14 21 -14 7z"/>
<path d="M557 326 c-5 -15 -6 -31 -3 -34 8 -8 18 25 14 45 -3 13 -6 10 -11
-11z"/>
<path d="M267 321 c-3 -11 0 -22 7 -24 6 -3 11 6 11 19 0 29 -11 32 -18 5z"/>
<path d="M130 315 c0 -8 4 -15 10 -15 5 0 7 7 4 15 -4 8 -8 15 -10 15 -2 0 -4
-7 -4 -15z"/>
<path d="M415 320 c-8 -13 -1 -24 14 -19 6 3 7 10 2 18 -6 10 -10 10 -16 1z"/>
<path d="M706 303 c-6 -14 -5 -15 5 -6 7 7 10 15 7 18 -3 3 -9 -2 -12 -12z"/>
<path d="M836 305 c-3 -8 -1 -15 4 -15 6 0 10 7 10 15 0 8 -2 15 -4 15 -2 0
-6 -7 -10 -15z"/>
<path d="M847 196 c-3 -8 1 -22 9 -33 14 -17 15 -17 5 3 -7 15 -7 24 1 32 8 8
9 12 1 12 -6 0 -13 -6 -16 -14z"/>
<path d="M707 180 c-3 -11 -1 -23 4 -26 5 -3 9 6 9 20 0 31 -6 34 -13 6z"/>
<path d="M120 169 c0 -11 4 -18 10 -14 5 3 7 12 3 20 -7 21 -13 19 -13 -6z"/>
<path d="M276 183 c-3 -4 -6 -16 -5 -27 0 -12 3 -15 6 -8 2 6 8 10 13 7 4 -3
10 1 13 9 6 15 -16 29 -27 19z"/>
<path d="M408 172 c-4 -12 1 -18 13 -18 14 0 15 4 8 18 -5 10 -11 18 -13 18
-2 0 -6 -8 -8 -18z"/>
<path d="M555 171 c-6 -10 21 -34 33 -29 4 1 0 11 -10 20 -9 10 -20 13 -23 9z"/>
</g>
</svg>
