<?xml version="1.0" standalone="no"?>
<!DOCTYPE svg PUBLIC "-//W3C//DTD SVG 20010904//EN"
 "http://www.w3.org/TR/2001/REC-SVG-20010904/DTD/svg10.dtd">
<svg version="1.0" xmlns="http://www.w3.org/2000/svg"
 width="100.000000pt" height="100.000000pt" viewBox="0 0 100.000000 100.000000"
 preserveAspectRatio="xMidYMid meet">
<metadata>
Created by potrace 1.16, written by Peter Selinger 2001-2019
</metadata>
<g transform="translate(0.000000,100.000000) scale(0.100000,-0.100000)"
fill="#000000" stroke="none">
<path d="M583 825 c-103 -44 -267 -190 -288 -255 -3 -11 -10 -20 -14 -20 -4 0
-16 -6 -26 -14 -16 -11 -17 -17 -7 -29 9 -11 10 -22 2 -41 -15 -40 -12 -153 4
-185 24 -45 89 -97 152 -121 83 -31 216 -39 260 -15 31 17 94 93 94 114 0 23
-26 8 -53 -30 -40 -58 -79 -72 -169 -58 -79 12 -169 47 -207 82 -47 43 -62
112 -41 188 l10 36 67 -15 c38 -7 91 -12 119 -10 107 9 286 123 320 205 17 39
18 107 3 135 -24 44 -155 64 -226 33z m184 -31 c80 -52 5 -188 -151 -271 -65
-35 -77 -38 -151 -38 -44 0 -97 6 -117 13 l-38 13 19 37 c36 71 102 141 185
197 46 31 99 61 117 65 43 11 107 3 136 -16z"/>
</g>
</svg>
