<?xml version="1.0" standalone="no"?>
<!DOCTYPE svg PUBLIC "-//W3C//DTD SVG 20010904//EN"
 "http://www.w3.org/TR/2001/REC-SVG-20010904/DTD/svg10.dtd">
<svg version="1.0" xmlns="http://www.w3.org/2000/svg"
 width="100.000000pt" height="100.000000pt" viewBox="0 0 100.000000 100.000000"
 preserveAspectRatio="xMidYMid meet">
<metadata>
Created by potrace 1.16, written by Peter Selinger 2001-2019
</metadata>
<g transform="translate(0.000000,100.000000) scale(0.100000,-0.100000)"
fill="#000000" stroke="none">
<path d="M360 631 c-45 -24 -68 -56 -76 -106 -4 -32 -1 -47 18 -74 43 -63 70
-76 168 -79 87 -4 244 19 264 38 21 20 -6 27 -51 13 -66 -20 -230 -29 -275
-14 -19 6 -45 22 -57 35 l-23 24 41 7 c58 10 155 60 170 89 18 32 11 58 -19
73 -37 19 -120 16 -160 -6z m158 -23 c20 -20 -6 -48 -71 -79 -34 -16 -77 -29
-94 -29 -29 0 -33 3 -33 26 0 35 16 61 48 78 32 18 133 21 150 4z"/>
</g>
</svg>
