<?xml version="1.0" standalone="no"?>
<!DOCTYPE svg PUBLIC "-//W3C//DTD SVG 20010904//EN"
 "http://www.w3.org/TR/2001/REC-SVG-20010904/DTD/svg10.dtd">
<svg version="1.0" xmlns="http://www.w3.org/2000/svg"
 width="100.000000pt" height="100.000000pt" viewBox="0 0 100.000000 100.000000"
 preserveAspectRatio="xMidYMid meet">
<metadata>
Created by potrace 1.16, written by Peter Selinger 2001-2019
</metadata>
<g transform="translate(0.000000,100.000000) scale(0.100000,-0.100000)"
fill="#000000" stroke="none">
<path d="M349 626 c-45 -31 -74 -93 -66 -142 12 -72 68 -107 172 -108 152 0
171 31 21 36 -94 3 -107 5 -130 27 -14 13 -28 36 -31 52 -14 63 75 156 125
129 11 -6 20 -17 20 -25 0 -19 -43 -68 -74 -84 -27 -15 -35 -41 -13 -41 7 0
34 20 60 45 38 36 47 51 47 79 0 59 -67 76 -131 32z"/>
</g>
</svg>
