<?xml version="1.0" standalone="no"?>
<!DOCTYPE svg PUBLIC "-//W3C//DTD SVG 20010904//EN"
 "http://www.w3.org/TR/2001/REC-SVG-20010904/DTD/svg10.dtd">
<svg version="1.0" xmlns="http://www.w3.org/2000/svg"
 width="100.000000pt" height="100.000000pt" viewBox="0 0 100.000000 100.000000"
 preserveAspectRatio="xMidYMid meet">
<metadata>
Created by potrace 1.16, written by Peter Selinger 2001-2019
</metadata>
<g transform="translate(0.000000,100.000000) scale(0.100000,-0.100000)"
fill="#000000" stroke="none">
<path d="M378 641 c-56 -36 -93 -104 -85 -158 14 -86 85 -128 201 -121 40 3
86 13 106 23 44 22 43 22 35 34 -4 8 -15 7 -33 -3 -74 -38 -199 -31 -244 14
-56 57 -29 156 56 201 38 20 48 21 70 11 14 -6 26 -18 26 -26 0 -14 -79 -77
-112 -89 -15 -5 -27 -37 -14 -37 13 0 85 47 114 74 33 31 42 72 20 94 -22 22
-91 14 -140 -17z"/>
</g>
</svg>
