<?xml version="1.0" standalone="no"?>
<!DOCTYPE svg PUBLIC "-//W3C//DTD SVG 20010904//EN"
 "http://www.w3.org/TR/2001/REC-SVG-20010904/DTD/svg10.dtd">
<svg version="1.0" xmlns="http://www.w3.org/2000/svg"
 width="100.000000pt" height="100.000000pt" viewBox="0 0 100.000000 100.000000"
 preserveAspectRatio="xMidYMid meet">
<metadata>
Created by potrace 1.16, written by Peter Selinger 2001-2019
</metadata>
<g transform="translate(0.000000,100.000000) scale(0.100000,-0.100000)"
fill="#000000" stroke="none">
<path d="M473 686 c-104 -49 -184 -161 -205 -290 -18 -107 14 -177 101 -221
126 -63 287 -49 350 31 39 50 16 62 -28 15 -46 -49 -131 -63 -226 -37 -119 31
-155 72 -155 176 0 36 4 70 8 76 4 6 43 10 97 10 77 -1 97 3 138 24 87 44 136
126 107 179 -16 30 -69 61 -105 61 -16 0 -53 -11 -82 -24z m144 -28 c37 -35
31 -74 -22 -124 -57 -56 -138 -78 -212 -58 -48 13 -35 70 29 131 79 74 159 94
205 51z"/>
</g>
</svg>
