<?xml version="1.0" standalone="no"?>
<!DOCTYPE svg PUBLIC "-//W3C//DTD SVG 20010904//EN"
 "http://www.w3.org/TR/2001/REC-SVG-20010904/DTD/svg10.dtd">
<svg version="1.0" xmlns="http://www.w3.org/2000/svg"
 width="100.000000pt" height="100.000000pt" viewBox="0 0 100.000000 100.000000"
 preserveAspectRatio="xMidYMid meet">
<metadata>
Created by potrace 1.16, written by Peter Selinger 2001-2019
</metadata>
<g transform="translate(0.000000,100.000000) scale(0.100000,-0.100000)"
fill="#000000" stroke="none">
<path d="M552 958 c-26 -33 -61 -120 -123 -303 -63 -187 -69 -200 -93 -203
-31 -4 -34 -22 -6 -29 11 -3 20 -6 20 -8 0 -1 -11 -57 -25 -125 -42 -209 -32
-290 39 -290 62 0 173 144 191 247 l6 41 32 -18 c64 -37 185 -34 218 6 18 22
1 34 -29 18 -41 -21 -111 -17 -162 9 -49 25 -51 28 -76 114 -19 70 -49 107
-64 83 -16 -24 -12 -47 21 -118 35 -77 35 -131 -1 -202 -23 -45 -92 -125 -122
-141 -45 -24 -44 71 4 301 21 104 22 106 79 165 79 83 125 162 145 252 16 71
15 153 -2 197 -7 19 -38 21 -52 4z m35 -135 c-4 -71 -11 -96 -41 -156 -32 -63
-128 -187 -114 -147 9 26 45 143 63 205 9 33 31 96 47 139 25 65 32 76 41 61
5 -10 7 -54 4 -102z"/>
</g>
</svg>
