<?xml version="1.0" standalone="no"?>
<!DOCTYPE svg PUBLIC "-//W3C//DTD SVG 20010904//EN"
 "http://www.w3.org/TR/2001/REC-SVG-20010904/DTD/svg10.dtd">
<svg version="1.0" xmlns="http://www.w3.org/2000/svg"
 width="100.000000pt" height="100.000000pt" viewBox="0 0 100.000000 100.000000"
 preserveAspectRatio="xMidYMid meet">
<metadata>
Created by potrace 1.16, written by Peter Selinger 2001-2019
</metadata>
<g transform="translate(0.000000,100.000000) scale(0.100000,-0.100000)"
fill="#000000" stroke="none">
<path d="M432 884 c-35 -24 -54 -71 -77 -183 -22 -115 -12 -103 -112 -130 -26
-7 -43 -18 -43 -26 0 -18 -4 -18 45 0 22 8 50 14 63 15 23 0 23 -1 17 -78 -8
-82 2 -122 29 -122 19 0 29 30 16 45 -17 21 -1 163 19 169 9 3 67 10 129 17
72 7 111 16 109 22 -4 12 -58 11 -172 -3 -38 -5 -71 -7 -74 -5 -2 3 4 46 13
96 18 98 48 169 70 169 24 0 46 -30 46 -62 0 -37 24 -33 28 5 2 19 -5 36 -27
57 -34 34 -47 37 -79 14z"/>
</g>
</svg>
