<?xml version="1.0" standalone="no"?>
<!DOCTYPE svg PUBLIC "-//W3C//DTD SVG 20010904//EN"
 "http://www.w3.org/TR/2001/REC-SVG-20010904/DTD/svg10.dtd">
<svg version="1.0" xmlns="http://www.w3.org/2000/svg"
 width="100.000000pt" height="100.000000pt" viewBox="0 0 100.000000 100.000000"
 preserveAspectRatio="xMidYMid meet">
<metadata>
Created by potrace 1.16, written by Peter Selinger 2001-2019
</metadata>
<g transform="translate(0.000000,100.000000) scale(0.100000,-0.100000)"
fill="#000000" stroke="none">
<path d="M534 913 c-37 -38 -73 -122 -129 -295 -46 -141 -67 -177 -86 -146 -7
10 -12 9 -25 -4 -22 -22 -8 -41 26 -36 l28 4 -14 -45 c-61 -196 -90 -327 -80
-364 5 -23 12 -27 45 -27 32 0 44 6 70 35 53 61 83 137 106 269 l6 39 18 -29
c44 -73 127 -111 210 -99 103 16 109 46 8 38 -61 -5 -79 -2 -114 15 -53 28
-78 60 -93 122 -14 59 -27 71 -35 33 -3 -15 -11 -46 -17 -68 -6 -22 -16 -68
-24 -102 -7 -35 -21 -82 -32 -106 -20 -45 -77 -117 -93 -117 -23 0 -3 103 67
341 24 83 33 100 79 149 94 99 132 193 137 340 3 64 1 75 -14 78 -10 2 -30 -9
-44 -25z m26 -132 c-13 -80 -56 -173 -105 -226 -20 -22 -35 -33 -32 -25 37
129 102 313 119 340 l23 35 3 -29 c2 -16 -1 -58 -8 -95z"/>
</g>
</svg>
