<?xml version="1.0" standalone="no"?>
<!DOCTYPE svg PUBLIC "-//W3C//DTD SVG 20010904//EN"
 "http://www.w3.org/TR/2001/REC-SVG-20010904/DTD/svg10.dtd">
<svg version="1.0" xmlns="http://www.w3.org/2000/svg"
 width="100.000000pt" height="100.000000pt" viewBox="0 0 100.000000 100.000000"
 preserveAspectRatio="xMidYMid meet">
<metadata>
Created by potrace 1.16, written by Peter Selinger 2001-2019
</metadata>
<g transform="translate(0.000000,100.000000) scale(0.100000,-0.100000)"
fill="#000000" stroke="none">
<path d="M497 840 c-29 -23 -52 -85 -67 -184 -6 -38 -13 -73 -15 -77 -3 -3
-24 -10 -49 -13 -56 -9 -82 -27 -72 -52 7 -17 9 -17 19 -3 7 9 21 19 32 22 11
3 30 8 42 12 22 6 23 5 20 -92 -2 -86 0 -98 16 -101 14 -3 17 4 17 50 0 29 3
76 6 103 l6 51 117 17 c64 9 140 20 169 23 31 4 51 11 49 17 -4 14 -75 10
-213 -12 l-109 -17 -3 26 c-4 37 24 168 43 196 18 28 28 30 49 8 24 -23 19
-61 -9 -86 -28 -24 -32 -38 -12 -38 21 0 56 43 63 78 5 26 1 36 -24 62 -36 36
-41 36 -75 10z"/>
</g>
</svg>
