<?xml version="1.0" standalone="no"?>
<!DOCTYPE svg PUBLIC "-//W3C//DTD SVG 20010904//EN"
 "http://www.w3.org/TR/2001/REC-SVG-20010904/DTD/svg10.dtd">
<svg version="1.0" xmlns="http://www.w3.org/2000/svg"
 width="100.000000pt" height="100.000000pt" viewBox="0 0 100.000000 100.000000"
 preserveAspectRatio="xMidYMid meet">
<metadata>
Created by potrace 1.16, written by Peter Selinger 2001-2019
</metadata>
<g transform="translate(0.000000,100.000000) scale(0.100000,-0.100000)"
fill="#000000" stroke="none">
<path d="M436 848 c-11 -19 -36 -163 -36 -214 0 -7 -17 -15 -37 -18 -54 -10
-93 -27 -93 -41 0 -21 13 -25 31 -9 10 9 36 18 58 21 l40 5 -5 -58 c-2 -33 -6
-80 -9 -106 -4 -52 10 -72 32 -43 8 12 13 47 13 94 0 127 -5 121 121 121 105
0 172 13 153 29 -5 4 -65 4 -134 0 -69 -4 -127 -6 -129 -3 -6 5 16 204 23 211
10 10 36 -19 36 -40 0 -11 -10 -31 -22 -44 -12 -13 -19 -26 -15 -29 12 -12 36
5 52 37 14 26 15 36 4 60 -20 50 -60 63 -83 27z"/>
</g>
</svg>
