<?xml version="1.0" standalone="no"?>
<!DOCTYPE svg PUBLIC "-//W3C//DTD SVG 20010904//EN"
 "http://www.w3.org/TR/2001/REC-SVG-20010904/DTD/svg10.dtd">
<svg version="1.0" xmlns="http://www.w3.org/2000/svg"
 width="100.000000pt" height="100.000000pt" viewBox="0 0 100.000000 100.000000"
 preserveAspectRatio="xMidYMid meet">
<metadata>
Created by potrace 1.16, written by Peter Selinger 2001-2019
</metadata>
<g transform="translate(0.000000,100.000000) scale(0.100000,-0.100000)"
fill="#000000" stroke="none">
<path d="M454 908 c-76 -87 -112 -175 -168 -411 -4 -18 -13 -27 -26 -27 -11 0
-20 -7 -20 -15 0 -8 7 -15 16 -15 13 0 15 -6 10 -27 -37 -162 -57 -371 -37
-401 5 -9 23 -12 51 -10 40 3 45 6 72 55 39 68 58 142 58 223 l0 65 25 -41
c29 -49 76 -74 139 -74 68 0 146 19 146 36 0 11 -9 13 -42 7 -66 -12 -142 -9
-170 6 -29 15 -94 118 -109 174 -19 71 -27 36 -22 -96 5 -104 2 -144 -10 -187
-19 -66 -73 -153 -90 -147 -28 9 -14 192 30 382 14 60 23 78 70 128 77 85 113
163 127 282 7 53 -3 106 -20 112 -6 2 -19 -7 -30 -19z m11 -166 c-22 -74 -45
-119 -91 -173 l-37 -44 7 42 c11 75 52 189 92 260 l39 68 3 -48 c2 -26 -4 -73
-13 -105z"/>
</g>
</svg>
