<?xml version="1.0" standalone="no"?>
<!DOCTYPE svg PUBLIC "-//W3C//DTD SVG 20010904//EN"
 "http://www.w3.org/TR/2001/REC-SVG-20010904/DTD/svg10.dtd">
<svg version="1.0" xmlns="http://www.w3.org/2000/svg"
 width="100.000000pt" height="100.000000pt" viewBox="0 0 100.000000 100.000000"
 preserveAspectRatio="xMidYMid meet">
<metadata>
Created by potrace 1.16, written by Peter Selinger 2001-2019
</metadata>
<g transform="translate(0.000000,100.000000) scale(0.100000,-0.100000)"
fill="#000000" stroke="none">
<path d="M300 553 c-69 -70 -62 -150 15 -172 22 -6 47 -6 68 0 17 5 36 9 41 9
13 0 0 -117 -20 -173 -28 -83 -96 -83 -131 0 -10 25 -18 32 -25 25 -16 -16 -3
-53 31 -89 23 -25 38 -33 65 -33 71 0 113 76 123 222 5 68 9 80 34 104 38 36
38 72 0 108 -25 24 -40 29 -96 33 -66 4 -67 4 -105 -34z m125 -26 c4 -18 5
-49 3 -68 -3 -30 -7 -35 -41 -43 -93 -23 -130 45 -63 117 18 19 35 27 60 27
32 0 36 -3 41 -33z m75 -33 c0 -6 -6 -17 -14 -23 -15 -13 -26 4 -26 40 0 17 3
18 20 7 11 -7 20 -18 20 -24z"/>
</g>
</svg>
