<?xml version="1.0" standalone="no"?>
<!DOCTYPE svg PUBLIC "-//W3C//DTD SVG 20010904//EN"
 "http://www.w3.org/TR/2001/REC-SVG-20010904/DTD/svg10.dtd">
<svg version="1.0" xmlns="http://www.w3.org/2000/svg"
 width="100.000000pt" height="100.000000pt" viewBox="0 0 100.000000 100.000000"
 preserveAspectRatio="xMidYMid meet">
<metadata>
Created by potrace 1.16, written by Peter Selinger 2001-2019
</metadata>
<g transform="translate(0.000000,100.000000) scale(0.100000,-0.100000)"
fill="#000000" stroke="none">
<path d="M337 661 c-115 -102 2 -296 135 -223 56 30 47 3 -12 -37 -59 -40
-135 -137 -150 -190 -13 -49 -3 -119 24 -168 l22 -38 73 -3 c82 -3 92 2 123
62 28 53 34 174 15 279 -15 89 -24 75 76 131 50 29 85 81 66 100 -5 5 -10 8
-11 5 -2 -2 -10 -17 -18 -34 -15 -28 -99 -84 -128 -85 -10 0 -11 21 -6 93 8
119 4 125 -97 133 -74 7 -76 6 -112 -25z m154 -81 c6 -67 4 -78 -14 -97 -37
-42 -117 -25 -136 28 -20 58 -14 95 20 124 26 21 40 25 78 23 l46 -3 6 -75z
m35 -247 c15 -121 10 -204 -14 -249 -36 -71 -91 -93 -129 -52 -35 38 -43 64
-43 131 0 61 3 68 44 125 39 53 107 112 128 112 3 0 10 -30 14 -67z"/>
</g>
</svg>
