<?xml version="1.0" standalone="no"?>
<!DOCTYPE svg PUBLIC "-//W3C//DTD SVG 20010904//EN"
 "http://www.w3.org/TR/2001/REC-SVG-20010904/DTD/svg10.dtd">
<svg version="1.0" xmlns="http://www.w3.org/2000/svg"
 width="100.000000pt" height="100.000000pt" viewBox="0 0 100.000000 100.000000"
 preserveAspectRatio="xMidYMid meet">
<metadata>
Created by potrace 1.16, written by Peter Selinger 2001-2019
</metadata>
<g transform="translate(0.000000,100.000000) scale(0.100000,-0.100000)"
fill="#000000" stroke="none">
<path d="M427 833 c-60 -20 -122 -80 -136 -130 -17 -61 -13 -172 8 -219 22
-49 76 -79 126 -71 l33 5 -44 -40 c-82 -75 -111 -171 -83 -273 16 -57 45 -85
89 -85 46 0 79 28 114 98 33 65 45 117 54 230 l7 94 84 34 c82 33 151 76 151
95 0 15 -26 11 -41 -7 -16 -20 -50 -37 -134 -69 l-68 -25 8 122 c5 90 11 125
22 133 9 7 13 23 11 45 -2 26 -10 37 -38 51 -52 27 -108 31 -163 12z m125 -23
c21 -6 41 -18 46 -27 12 -21 3 -53 -13 -47 -17 7 -24 -14 -31 -109 -7 -81 -7
-82 -54 -129 -37 -38 -54 -48 -79 -48 -72 0 -101 46 -101 159 0 108 27 156
105 192 47 21 76 23 127 9z m-2 -335 c0 -12 -47 -45 -65 -45 -5 0 57 59 63 60
1 0 2 -7 2 -15z m-14 -189 c-21 -132 -71 -226 -122 -226 -31 0 -44 21 -56 92
-10 57 -9 68 11 114 26 59 79 115 136 143 l40 19 3 -24 c2 -13 -3 -67 -12
-118z"/>
</g>
</svg>
