<?xml version="1.0" standalone="no"?>
<!DOCTYPE svg PUBLIC "-//W3C//DTD SVG 20010904//EN"
 "http://www.w3.org/TR/2001/REC-SVG-20010904/DTD/svg10.dtd">
<svg version="1.0" xmlns="http://www.w3.org/2000/svg"
 width="100.000000pt" height="100.000000pt" viewBox="0 0 100.000000 100.000000"
 preserveAspectRatio="xMidYMid meet">
<metadata>
Created by potrace 1.16, written by Peter Selinger 2001-2019
</metadata>
<g transform="translate(0.000000,100.000000) scale(0.100000,-0.100000)"
fill="#000000" stroke="none">
<path d="M375 625 c-45 -16 -95 -66 -95 -94 0 -26 53 -69 96 -77 35 -6 107 -1
150 12 19 5 22 0 28 -42 10 -77 7 -189 -6 -202 -31 -31 -155 -4 -202 43 -9 9
-20 13 -26 10 -20 -13 11 -44 75 -76 55 -27 72 -31 117 -27 39 4 57 11 71 29
18 22 19 35 13 152 l-6 129 25 20 c37 29 33 69 -10 107 -33 29 -41 31 -113 31
-42 -1 -95 -7 -117 -15z m161 -37 c0 -13 2 -36 5 -53 4 -29 2 -31 -46 -43 -55
-14 -118 -8 -152 14 -29 18 -29 35 0 62 32 31 65 41 132 41 56 1 60 -1 61 -21z
m73 -19 c11 -18 10 -24 -3 -38 -15 -14 -18 -14 -26 -1 -5 8 -10 27 -10 42 0
31 18 30 39 -3z"/>
</g>
</svg>
