<?xml version="1.0" standalone="no"?>
<!DOCTYPE svg PUBLIC "-//W3C//DTD SVG 20010904//EN"
 "http://www.w3.org/TR/2001/REC-SVG-20010904/DTD/svg10.dtd">
<svg version="1.0" xmlns="http://www.w3.org/2000/svg"
 width="100.000000pt" height="100.000000pt" viewBox="0 0 100.000000 100.000000"
 preserveAspectRatio="xMidYMid meet">
<metadata>
Created by potrace 1.16, written by Peter Selinger 2001-2019
</metadata>
<g transform="translate(0.000000,100.000000) scale(0.100000,-0.100000)"
fill="#000000" stroke="none">
<path d="M430 881 c-51 -16 -87 -41 -129 -86 -105 -114 -119 -270 -29 -325 58
-35 138 -19 223 46 l35 26 0 -23 c0 -20 -13 -30 -70 -58 -92 -44 -154 -111
-170 -184 -10 -45 -9 -61 8 -115 56 -178 166 -212 236 -74 18 36 35 183 36
310 l0 83 48 21 c102 45 173 114 158 155 -8 19 -26 7 -26 -17 0 -25 -70 -83
-130 -108 l-50 -21 0 43 c0 24 6 62 14 84 25 71 30 128 12 135 -22 9 -43 -34
-55 -113 -12 -70 -30 -96 -100 -141 -59 -38 -127 -40 -159 -6 -72 77 -2 262
123 323 72 35 146 31 181 -10 28 -32 36 -33 32 -4 -6 44 -122 81 -188 59z m94
-468 c-2 -27 -5 -95 -8 -153 -5 -119 -17 -165 -53 -197 -31 -29 -35 -29 -77 8
-26 22 -41 49 -57 99 -20 61 -21 74 -10 110 16 55 77 120 143 153 29 14 56 26
59 27 3 0 5 -21 3 -47z"/>
</g>
</svg>
