<?xml version="1.0" standalone="no"?>
<!DOCTYPE svg PUBLIC "-//W3C//DTD SVG 20010904//EN"
 "http://www.w3.org/TR/2001/REC-SVG-20010904/DTD/svg10.dtd">
<svg version="1.0" xmlns="http://www.w3.org/2000/svg"
 width="100.000000pt" height="100.000000pt" viewBox="0 0 100.000000 100.000000"
 preserveAspectRatio="xMidYMid meet">
<metadata>
Created by potrace 1.16, written by Peter Selinger 2001-2019
</metadata>
<g transform="translate(0.000000,100.000000) scale(0.100000,-0.100000)"
fill="#000000" stroke="none">
<path d="M458 539 c-70 -36 -88 -111 -39 -160 25 -25 37 -29 83 -29 29 1 71 7
93 15 22 8 43 15 47 15 10 0 -2 -173 -12 -184 -15 -15 -106 -19 -146 -6 -22 7
-54 26 -71 43 -38 35 -55 29 -31 -11 27 -45 94 -73 176 -73 76 0 107 10 116
39 4 10 7 61 7 113 1 92 2 95 31 119 35 30 40 70 13 100 -39 43 -75 12 -75
-66 0 -31 -4 -37 -37 -51 -48 -20 -144 -23 -167 -4 -18 15 -21 53 -6 82 24 44
109 60 188 34 37 -12 26 14 -13 31 -47 19 -113 17 -157 -7z m262 -64 c0 -15
-28 -40 -36 -32 -3 3 -3 20 1 37 6 25 9 29 21 19 8 -6 14 -17 14 -24z"/>
</g>
</svg>
