<?xml version="1.0" standalone="no"?>
<!DOCTYPE svg PUBLIC "-//W3C//DTD SVG 20010904//EN"
 "http://www.w3.org/TR/2001/REC-SVG-20010904/DTD/svg10.dtd">
<svg version="1.0" xmlns="http://www.w3.org/2000/svg"
 width="100.000000pt" height="100.000000pt" viewBox="0 0 100.000000 100.000000"
 preserveAspectRatio="xMidYMid meet">
<metadata>
Created by potrace 1.16, written by Peter Selinger 2001-2019
</metadata>
<g transform="translate(0.000000,100.000000) scale(0.100000,-0.100000)"
fill="#000000" stroke="none">
<path d="M356 901 c-26 -28 -34 -79 -46 -263 -9 -135 -13 -165 -28 -176 -14
-11 -18 -10 -20 3 -6 26 -37 13 -37 -15 0 -22 4 -25 33 -23 31 1 32 0 27 -30
-2 -18 -10 -70 -15 -117 -6 -47 -16 -102 -22 -123 -9 -28 -8 -41 0 -49 18 -18
42 10 53 63 5 24 26 84 46 132 46 112 91 160 169 183 95 27 107 4 79 -148 -18
-100 -15 -131 23 -202 27 -48 66 -76 110 -76 28 0 56 25 49 44 -6 14 -10 15
-27 4 -47 -29 -119 57 -120 142 0 25 5 79 12 122 17 117 -5 154 -92 149 -77
-4 -177 -77 -210 -153 -8 -18 -9 -11 -6 30 5 47 11 60 53 106 72 79 93 128 93
220 0 58 -5 87 -21 119 -40 79 -69 95 -103 58z m77 -71 c26 -49 28 -62 23
-123 -5 -70 -25 -116 -81 -182 l-25 -30 1 60 c0 103 16 311 23 324 13 21 30 7
59 -49z"/>
</g>
</svg>
