<?xml version="1.0" standalone="no"?>
<!DOCTYPE svg PUBLIC "-//W3C//DTD SVG 20010904//EN"
 "http://www.w3.org/TR/2001/REC-SVG-20010904/DTD/svg10.dtd">
<svg version="1.0" xmlns="http://www.w3.org/2000/svg"
 width="100.000000pt" height="100.000000pt" viewBox="0 0 100.000000 100.000000"
 preserveAspectRatio="xMidYMid meet">
<metadata>
Created by potrace 1.16, written by Peter Selinger 2001-2019
</metadata>
<g transform="translate(0.000000,100.000000) scale(0.100000,-0.100000)"
fill="#000000" stroke="none">
<path d="M345 768 c-20 -85 -36 -252 -29 -288 13 -58 26 -90 39 -90 20 0 22
17 11 71 -8 39 -7 55 7 83 33 71 135 68 172 -4 19 -36 19 -97 0 -130 -18 -32
-19 -60 -2 -60 8 0 24 22 37 49 37 80 18 152 -54 205 -34 26 -103 27 -140 2
-25 -16 -26 -16 -26 6 0 13 9 66 19 118 20 98 19 110 -4 110 -8 0 -19 -26 -30
-72z"/>
</g>
</svg>
