<?xml version="1.0" standalone="no"?>
<!DOCTYPE svg PUBLIC "-//W3C//DTD SVG 20010904//EN"
 "http://www.w3.org/TR/2001/REC-SVG-20010904/DTD/svg10.dtd">
<svg version="1.0" xmlns="http://www.w3.org/2000/svg"
 width="100.000000pt" height="100.000000pt" viewBox="0 0 100.000000 100.000000"
 preserveAspectRatio="xMidYMid meet">
<metadata>
Created by potrace 1.16, written by Peter Selinger 2001-2019
</metadata>
<g transform="translate(0.000000,100.000000) scale(0.100000,-0.100000)"
fill="#000000" stroke="none">
<path d="M420 744 c-6 -14 -10 -44 -10 -67 0 -23 -7 -85 -15 -137 -28 -184
-15 -222 38 -108 31 67 91 138 117 138 15 0 27 -32 35 -93 9 -82 35 -109 108
-115 47 -4 66 0 121 26 37 17 66 35 66 40 0 21 -16 20 -64 -5 -60 -31 -146
-37 -170 -13 -9 9 -20 40 -26 70 -15 79 -29 109 -56 116 -28 7 -65 -14 -107
-60 -28 -30 -28 -30 -22 -6 3 14 8 73 12 133 4 79 3 107 -6 107 -6 0 -16 -12
-21 -26z"/>
</g>
</svg>
