<?xml version="1.0" standalone="no"?>
<!DOCTYPE svg PUBLIC "-//W3C//DTD SVG 20010904//EN"
 "http://www.w3.org/TR/2001/REC-SVG-20010904/DTD/svg10.dtd">
<svg version="1.0" xmlns="http://www.w3.org/2000/svg"
 width="100.000000pt" height="100.000000pt" viewBox="0 0 100.000000 100.000000"
 preserveAspectRatio="xMidYMid meet">
<metadata>
Created by potrace 1.16, written by Peter Selinger 2001-2019
</metadata>
<g transform="translate(0.000000,100.000000) scale(0.100000,-0.100000)"
fill="#000000" stroke="none">
<path d="M373 923 c-42 -62 -46 -85 -51 -261 -3 -136 -7 -172 -17 -168 -18 7
-50 -18 -41 -32 4 -7 16 -12 27 -12 16 0 19 -7 19 -42 0 -24 -9 -62 -19 -85
-17 -36 -25 -87 -22 -130 2 -23 38 -13 50 13 6 15 17 60 23 102 11 71 15 79
66 133 34 38 69 64 99 75 46 18 46 18 64 -5 16 -20 19 -41 19 -138 0 -163 22
-200 130 -218 43 -7 95 7 95 25 0 9 -18 13 -60 15 -105 3 -125 31 -125 177 0
99 -15 148 -52 172 -39 26 -105 0 -175 -67 l-43 -41 0 27 c0 16 18 51 45 88
59 80 78 147 73 254 -2 66 -8 90 -24 112 -29 39 -57 41 -81 6z m66 -30 c33
-71 21 -197 -27 -286 -51 -95 -55 -88 -50 83 4 124 8 163 23 193 22 44 37 47
54 10z"/>
</g>
</svg>
