<?xml version="1.0" standalone="no"?>
<!DOCTYPE svg PUBLIC "-//W3C//DTD SVG 20010904//EN"
 "http://www.w3.org/TR/2001/REC-SVG-20010904/DTD/svg10.dtd">
<svg version="1.0" xmlns="http://www.w3.org/2000/svg"
 width="100.000000pt" height="100.000000pt" viewBox="0 0 100.000000 100.000000"
 preserveAspectRatio="xMidYMid meet">
<metadata>
Created by potrace 1.16, written by Peter Selinger 2001-2019
</metadata>
<g transform="translate(0.000000,100.000000) scale(0.100000,-0.100000)"
fill="#000000" stroke="none">
<path d="M371 758 c-14 -38 -41 -272 -41 -356 0 -75 9 -102 35 -102 6 0 16 26
23 58 14 69 80 209 112 237 l22 20 22 -26 c14 -16 30 -62 45 -127 22 -100 34
-123 52 -105 11 11 -35 195 -60 238 -9 16 -29 34 -44 39 -24 9 -32 6 -57 -20
-17 -16 -48 -63 -70 -104 -22 -41 -40 -70 -40 -65 0 6 7 65 15 130 17 141 19
205 5 205 -6 0 -14 -10 -19 -22z"/>
</g>
</svg>
