<?xml version="1.0" standalone="no"?>
<!DOCTYPE svg PUBLIC "-//W3C//DTD SVG 20010904//EN"
 "http://www.w3.org/TR/2001/REC-SVG-20010904/DTD/svg10.dtd">
<svg version="1.0" xmlns="http://www.w3.org/2000/svg"
 width="100.000000pt" height="100.000000pt" viewBox="0 0 100.000000 100.000000"
 preserveAspectRatio="xMidYMid meet">
<metadata>
Created by potrace 1.16, written by Peter Selinger 2001-2019
</metadata>
<g transform="translate(0.000000,100.000000) scale(0.100000,-0.100000)"
fill="#000000" stroke="none">
<path d="M391 840 c-31 -43 -62 -147 -82 -273 -11 -70 -15 -80 -38 -89 -14 -5
-45 -7 -68 -3 -44 6 -55 -3 -28 -25 10 -9 31 -10 66 -6 44 6 51 5 46 -9 -4 -8
-13 -57 -22 -108 -9 -50 -21 -107 -26 -125 -8 -25 -8 -37 1 -45 17 -17 47 23
55 76 13 77 111 228 169 259 36 19 89 28 103 16 15 -12 16 -91 3 -197 -7 -49
-6 -87 0 -112 18 -65 98 -112 129 -76 14 17 4 27 -25 27 -12 0 -32 12 -43 26
-20 25 -21 38 -19 179 3 175 0 185 -66 185 -75 -1 -141 -45 -209 -140 -15 -21
-17 -22 -13 -5 3 11 8 38 12 60 3 23 18 53 34 70 73 79 124 271 90 336 -16 29
-37 23 -69 -21z m46 -67 c-6 -90 -27 -155 -62 -198 l-24 -30 5 40 c16 116 60
265 80 265 4 0 4 -35 1 -77z"/>
</g>
</svg>
