<?xml version="1.0" standalone="no"?>
<!DOCTYPE svg PUBLIC "-//W3C//DTD SVG 20010904//EN"
 "http://www.w3.org/TR/2001/REC-SVG-20010904/DTD/svg10.dtd">
<svg version="1.0" xmlns="http://www.w3.org/2000/svg"
 width="100.000000pt" height="100.000000pt" viewBox="0 0 100.000000 100.000000"
 preserveAspectRatio="xMidYMid meet">
<metadata>
Created by potrace 1.16, written by Peter Selinger 2001-2019
</metadata>
<g transform="translate(0.000000,100.000000) scale(0.100000,-0.100000)"
fill="#000000" stroke="none">
<path d="M453 905 c-34 -14 -50 -63 -33 -96 14 -25 62 -49 99 -49 34 0 71 39
71 75 0 50 -83 92 -137 70z m90 -42 c50 -46 -14 -97 -71 -57 -27 19 -29 44 -2
44 23 0 26 10 8 29 -19 20 41 4 65 -16z"/>
<path d="M446 638 c-30 -48 -49 -139 -43 -212 4 -39 9 -82 12 -96 10 -38 -33
-95 -70 -95 -32 0 -43 -16 -22 -34 22 -17 62 2 90 44 23 33 26 35 32 17 3 -12
22 -35 41 -51 51 -45 103 -41 129 10 19 35 20 92 3 87 -7 -3 -14 -13 -16 -24
-14 -90 -85 -81 -125 15 -13 30 -12 40 5 95 33 102 25 266 -12 266 -5 0 -16
-10 -24 -22z m34 -87 c0 -59 -20 -161 -31 -161 -13 0 -11 109 2 170 13 61 29
56 29 -9z"/>
</g>
</svg>
