<?xml version="1.0" standalone="no"?>
<!DOCTYPE svg PUBLIC "-//W3C//DTD SVG 20010904//EN"
 "http://www.w3.org/TR/2001/REC-SVG-20010904/DTD/svg10.dtd">
<svg version="1.0" xmlns="http://www.w3.org/2000/svg"
 width="100.000000pt" height="100.000000pt" viewBox="0 0 100.000000 100.000000"
 preserveAspectRatio="xMidYMid meet">
<metadata>
Created by potrace 1.16, written by Peter Selinger 2001-2019
</metadata>
<g transform="translate(0.000000,100.000000) scale(0.100000,-0.100000)"
fill="#000000" stroke="none">
<path d="M426 788 c-18 -25 -21 -58 -7 -58 6 0 12 4 16 10 3 5 12 7 21 3 19
-7 54 24 54 49 0 28 -64 25 -84 -4z"/>
<path d="M441 603 c-12 -24 -13 -257 -1 -288 5 -14 16 -25 23 -25 10 0 13 31
13 146 -1 80 2 151 6 157 4 6 2 15 -5 19 -18 12 -25 10 -36 -9z"/>
</g>
</svg>
