<?xml version="1.0" standalone="no"?>
<!DOCTYPE svg PUBLIC "-//W3C//DTD SVG 20010904//EN"
 "http://www.w3.org/TR/2001/REC-SVG-20010904/DTD/svg10.dtd">
<svg version="1.0" xmlns="http://www.w3.org/2000/svg"
 width="100.000000pt" height="100.000000pt" viewBox="0 0 100.000000 100.000000"
 preserveAspectRatio="xMidYMid meet">
<metadata>
Created by potrace 1.16, written by Peter Selinger 2001-2019
</metadata>
<g transform="translate(0.000000,100.000000) scale(0.100000,-0.100000)"
fill="#000000" stroke="none">
<path d="M422 748 c-34 -17 -27 -64 8 -60 33 4 63 34 54 55 -7 19 -28 21 -62
5z"/>
<path d="M458 573 c-23 -27 -38 -81 -38 -139 0 -65 7 -84 30 -84 16 0 18 7 14
53 -5 47 8 116 31 170 5 12 3 17 -7 17 -8 0 -22 -8 -30 -17z"/>
</g>
</svg>
