<?xml version="1.0" standalone="no"?>
<!DOCTYPE svg PUBLIC "-//W3C//DTD SVG 20010904//EN"
 "http://www.w3.org/TR/2001/REC-SVG-20010904/DTD/svg10.dtd">
<svg version="1.0" xmlns="http://www.w3.org/2000/svg"
 width="100.000000pt" height="100.000000pt" viewBox="0 0 100.000000 100.000000"
 preserveAspectRatio="xMidYMid meet">
<metadata>
Created by potrace 1.16, written by Peter Selinger 2001-2019
</metadata>
<g transform="translate(0.000000,100.000000) scale(0.100000,-0.100000)"
fill="#000000" stroke="none">
<path d="M460 842 c0 -4 16 -14 35 -21 20 -7 41 -24 49 -40 13 -25 13 -31 -4
-59 -28 -46 -100 -58 -100 -17 0 25 19 55 35 55 20 0 19 19 0 26 -22 9 -64
-22 -71 -51 -21 -85 72 -120 143 -53 49 46 45 107 -10 150 -22 18 -77 25 -77
10z"/>
<path d="M402 536 c-62 -67 -83 -186 -47 -272 15 -36 15 -39 -5 -58 l-20 -20
0 22 c0 27 -11 28 -36 1 -13 -15 -16 -24 -8 -36 17 -27 31 -26 65 5 l32 28 64
-43 c68 -46 105 -53 140 -28 24 17 48 78 39 100 -10 27 -25 16 -36 -26 -6 -22
-18 -43 -26 -46 -19 -7 -69 16 -111 51 l-31 26 31 62 c27 51 33 75 36 145 2
65 -1 89 -13 108 -9 14 -20 25 -25 25 -5 0 -27 -20 -49 -44z m63 -26 c10 -46
-4 -128 -31 -189 -30 -66 -43 -59 -51 26 -6 65 7 120 39 166 25 35 35 34 43
-3z"/>
</g>
</svg>
