<?xml version="1.0" standalone="no"?>
<!DOCTYPE svg PUBLIC "-//W3C//DTD SVG 20010904//EN"
 "http://www.w3.org/TR/2001/REC-SVG-20010904/DTD/svg10.dtd">
<svg version="1.0" xmlns="http://www.w3.org/2000/svg"
 width="100.000000pt" height="100.000000pt" viewBox="0 0 100.000000 100.000000"
 preserveAspectRatio="xMidYMid meet">
<metadata>
Created by potrace 1.16, written by Peter Selinger 2001-2019
</metadata>
<g transform="translate(0.000000,100.000000) scale(0.100000,-0.100000)"
fill="#000000" stroke="none">
<path d="M460 688 c-24 -40 -24 -42 -5 -58 8 -7 15 -9 15 -5 0 4 7 1 16 -6 14
-11 19 -10 36 11 12 14 18 35 16 54 -2 25 -8 32 -30 34 -22 3 -32 -3 -48 -30z
m60 -2 c0 -11 -19 -15 -25 -6 -3 5 1 10 9 10 9 0 16 -2 16 -4z"/>
<path d="M504 528 c-4 -7 -10 -49 -12 -95 -4 -70 -2 -84 12 -89 9 -4 18 -5 20
-3 2 2 7 48 11 102 6 84 5 97 -8 97 -9 0 -19 -5 -23 -12z"/>
</g>
</svg>
