<?xml version="1.0" standalone="no"?>
<!DOCTYPE svg PUBLIC "-//W3C//DTD SVG 20010904//EN"
 "http://www.w3.org/TR/2001/REC-SVG-20010904/DTD/svg10.dtd">
<svg version="1.0" xmlns="http://www.w3.org/2000/svg"
 width="100.000000pt" height="100.000000pt" viewBox="0 0 100.000000 100.000000"
 preserveAspectRatio="xMidYMid meet">
<metadata>
Created by potrace 1.16, written by Peter Selinger 2001-2019
</metadata>
<g transform="translate(0.000000,100.000000) scale(0.100000,-0.100000)"
fill="#000000" stroke="none">
<path d="M462 820 c-29 -38 -30 -105 -3 -120 31 -16 51 -12 82 19 34 35 37 68
8 105 -27 35 -60 33 -87 -4z m78 -39 c0 -30 -32 -67 -49 -56 -15 9 -14 92 2
98 23 8 47 -13 47 -42z"/>
<path d="M427 553 c-41 -46 -61 -115 -62 -216 -1 -96 -1 -100 -28 -119 -23
-17 -27 -17 -27 -4 0 18 -8 20 -28 7 -20 -12 -10 -46 15 -49 13 -2 34 8 54 26
l33 29 34 -24 c104 -70 194 -48 213 52 6 33 6 52 -1 59 -14 14 -30 -10 -30
-46 0 -33 -31 -68 -60 -68 -30 0 -82 24 -102 47 -17 18 -16 21 5 54 13 18 31
53 40 77 41 104 -1 235 -56 175z m43 -87 c0 -47 -6 -75 -26 -115 -22 -43 -29
-50 -36 -37 -20 36 28 236 53 220 5 -3 9 -33 9 -68z"/>
</g>
</svg>
