<?xml version="1.0" standalone="no"?>
<!DOCTYPE svg PUBLIC "-//W3C//DTD SVG 20010904//EN"
 "http://www.w3.org/TR/2001/REC-SVG-20010904/DTD/svg10.dtd">
<svg version="1.0" xmlns="http://www.w3.org/2000/svg"
 width="100.000000pt" height="100.000000pt" viewBox="0 0 100.000000 100.000000"
 preserveAspectRatio="xMidYMid meet">
<metadata>
Created by potrace 1.16, written by Peter Selinger 2001-2019
</metadata>
<g transform="translate(0.000000,100.000000) scale(0.100000,-0.100000)"
fill="#000000" stroke="none">
<path d="M454 728 c-11 -22 -13 -33 -5 -36 6 -2 11 -12 11 -23 0 -22 32 -26
48 -6 19 22 25 66 12 82 -20 25 -48 17 -66 -17z m46 -8 c0 -5 -4 -10 -10 -10
-5 0 -10 5 -10 10 0 6 5 10 10 10 6 0 10 -4 10 -10z"/>
<path d="M497 438 c-4 -79 -7 -182 -7 -230 0 -69 -3 -88 -14 -88 -19 0 -66 57
-66 81 0 10 -7 19 -15 19 -34 0 -6 -82 41 -119 26 -20 78 -28 87 -13 9 13 20
447 13 470 -4 12 -13 22 -20 22 -10 0 -15 -37 -19 -142z"/>
</g>
</svg>
