<?xml version="1.0" standalone="no"?>
<!DOCTYPE svg PUBLIC "-//W3C//DTD SVG 20010904//EN"
 "http://www.w3.org/TR/2001/REC-SVG-20010904/DTD/svg10.dtd">
<svg version="1.0" xmlns="http://www.w3.org/2000/svg"
 width="100.000000pt" height="100.000000pt" viewBox="0 0 100.000000 100.000000"
 preserveAspectRatio="xMidYMid meet">
<metadata>
Created by potrace 1.16, written by Peter Selinger 2001-2019
</metadata>
<g transform="translate(0.000000,100.000000) scale(0.100000,-0.100000)"
fill="#000000" stroke="none">
<path d="M398 874 c-27 -59 58 -116 95 -63 18 25 13 47 -17 71 -31 26 -64 23
-78 -8z m79 -37 c-7 -21 -32 -13 -35 11 -3 21 -1 22 18 12 12 -6 19 -17 17
-23z"/>
<path d="M442 728 c-37 -47 -82 -198 -82 -276 0 -31 -19 -55 -41 -50 -7 2 -15
-5 -17 -16 -3 -15 1 -18 22 -14 26 5 26 5 26 -57 0 -46 -4 -66 -17 -76 -23
-20 -41 -66 -35 -95 6 -35 47 -74 76 -74 32 0 39 23 34 121 l-3 73 48 27 c54
29 84 55 74 65 -7 7 -12 5 -76 -31 -24 -14 -46 -25 -48 -25 -1 0 -3 25 -3 55
0 50 4 60 43 108 33 40 47 69 56 115 19 85 2 162 -34 162 -7 0 -17 -6 -23 -12z
m38 -89 c0 -25 -5 -61 -11 -80 -11 -32 -58 -104 -64 -97 -7 8 19 147 37 195
23 63 38 57 38 -18z m-117 -518 c-1 -2 -9 2 -18 9 -18 15 -19 44 -2 73 11 20
12 18 17 -28 3 -27 4 -52 3 -54z"/>
</g>
</svg>
