<?xml version="1.0" standalone="no"?>
<!DOCTYPE svg PUBLIC "-//W3C//DTD SVG 20010904//EN"
 "http://www.w3.org/TR/2001/REC-SVG-20010904/DTD/svg10.dtd">
<svg version="1.0" xmlns="http://www.w3.org/2000/svg"
 width="100.000000pt" height="100.000000pt" viewBox="0 0 100.000000 100.000000"
 preserveAspectRatio="xMidYMid meet">
<metadata>
Created by potrace 1.16, written by Peter Selinger 2001-2019
</metadata>
<g transform="translate(0.000000,100.000000) scale(0.100000,-0.100000)"
fill="#000000" stroke="none">
<path d="M426 721 c-25 -28 -17 -64 17 -75 56 -20 93 45 45 78 -29 21 -41 20
-62 -3z m53 -25 c8 -10 9 -16 1 -21 -13 -8 -30 3 -30 21 0 18 14 18 29 0z"/>
<path d="M450 544 c-11 -12 -11 -32 -2 -102 30 -223 23 -284 -34 -290 -27 -3
-38 4 -73 44 -28 32 -41 56 -41 76 0 37 -24 33 -28 -5 -4 -31 40 -100 90 -142
40 -34 81 -28 122 17 l29 31 -7 131 c-4 72 -9 154 -12 183 -7 60 -24 82 -44
57z"/>
</g>
</svg>
