<?xml version="1.0" standalone="no"?>
<!DOCTYPE svg PUBLIC "-//W3C//DTD SVG 20010904//EN"
 "http://www.w3.org/TR/2001/REC-SVG-20010904/DTD/svg10.dtd">
<svg version="1.0" xmlns="http://www.w3.org/2000/svg"
 width="100.000000pt" height="100.000000pt" viewBox="0 0 100.000000 100.000000"
 preserveAspectRatio="xMidYMid meet">
<metadata>
Created by potrace 1.16, written by Peter Selinger 2001-2019
</metadata>
<g transform="translate(0.000000,100.000000) scale(0.100000,-0.100000)"
fill="#000000" stroke="none">
<path d="M476 785 c-43 -46 -41 -115 3 -115 29 0 80 39 87 65 17 67 -44 100
-90 50z m62 -28 c3 -26 2 -27 -22 -15 -29 13 -31 19 -14 36 18 18 33 9 36 -21z
m-33 -47 c-3 -5 -10 -10 -16 -10 -5 0 -9 5 -9 10 0 6 7 10 16 10 8 0 12 -4 9
-10z"/>
<path d="M485 650 c-8 -13 -24 -297 -25 -427 0 -57 -4 -103 -8 -103 -19 0 -92
62 -107 90 -19 37 -35 39 -35 5 0 -46 134 -157 172 -143 12 5 17 57 27 280 15
312 14 279 12 296 -1 14 -27 16 -36 2z"/>
</g>
</svg>
