<?xml version="1.0" standalone="no"?>
<!DOCTYPE svg PUBLIC "-//W3C//DTD SVG 20010904//EN"
 "http://www.w3.org/TR/2001/REC-SVG-20010904/DTD/svg10.dtd">
<svg version="1.0" xmlns="http://www.w3.org/2000/svg"
 width="100.000000pt" height="100.000000pt" viewBox="0 0 100.000000 100.000000"
 preserveAspectRatio="xMidYMid meet">
<metadata>
Created by potrace 1.16, written by Peter Selinger 2001-2019
</metadata>
<g transform="translate(0.000000,100.000000) scale(0.100000,-0.100000)"
fill="#000000" stroke="none">
<path d="M406 777 c-26 -22 -37 -39 -35 -52 7 -33 44 -30 83 7 29 27 33 37 26
56 -13 30 -28 28 -74 -11z m34 -27 c0 -5 -5 -10 -11 -10 -5 0 -7 5 -4 10 3 6
8 10 11 10 2 0 4 -4 4 -10z"/>
<path d="M451 608 c-7 -18 -16 -107 -22 -198 -13 -214 -13 -212 -47 -204 -50
12 -103 45 -112 69 -10 26 -24 32 -35 15 -14 -23 26 -69 86 -99 127 -63 135
-53 154 208 15 194 14 241 -5 241 -4 0 -13 -15 -19 -32z"/>
</g>
</svg>
