<?xml version="1.0" standalone="no"?>
<!DOCTYPE svg PUBLIC "-//W3C//DTD SVG 20010904//EN"
 "http://www.w3.org/TR/2001/REC-SVG-20010904/DTD/svg10.dtd">
<svg version="1.0" xmlns="http://www.w3.org/2000/svg"
 width="100.000000pt" height="100.000000pt" viewBox="0 0 100.000000 100.000000"
 preserveAspectRatio="xMidYMid meet">
<metadata>
Created by potrace 1.16, written by Peter Selinger 2001-2019
</metadata>
<g transform="translate(0.000000,100.000000) scale(0.100000,-0.100000)"
fill="#000000" stroke="none">
<path d="M346 734 c-4 -10 3 -23 16 -34 22 -18 24 -18 42 0 11 10 16 25 13 34
-8 21 -63 21 -71 0z"/>
<path d="M380 565 c-6 -8 -14 -52 -17 -97 -5 -75 -8 -86 -36 -115 -27 -29 -45
-39 -101 -57 -14 -5 -16 -10 -8 -18 14 -14 50 -4 95 26 l37 25 0 -43 c0 -38
-4 -45 -37 -67 -62 -40 -98 -123 -81 -186 8 -29 13 -33 43 -33 60 0 102 61
112 163 5 56 9 65 34 80 16 9 29 23 29 32 0 19 -14 19 -30 0 -7 -8 -16 -15
-21 -15 -14 0 -10 98 6 179 21 97 7 165 -25 126z m-36 -402 c-13 -73 -54 -141
-75 -127 -27 16 10 131 48 153 30 17 34 13 27 -26z"/>
</g>
</svg>
