<?xml version="1.0" standalone="no"?>
<!DOCTYPE svg PUBLIC "-//W3C//DTD SVG 20010904//EN"
 "http://www.w3.org/TR/2001/REC-SVG-20010904/DTD/svg10.dtd">
<svg version="1.0" xmlns="http://www.w3.org/2000/svg"
 width="100.000000pt" height="100.000000pt" viewBox="0 0 100.000000 100.000000"
 preserveAspectRatio="xMidYMid meet">
<metadata>
Created by potrace 1.16, written by Peter Selinger 2001-2019
</metadata>
<g transform="translate(0.000000,100.000000) scale(0.100000,-0.100000)"
fill="#000000" stroke="none">
<path d="M304 839 c-4 -6 -9 -84 -12 -173 -2 -91 -9 -167 -15 -174 -7 -9 -7
-16 0 -20 5 -4 13 -24 16 -45 7 -43 24 -70 39 -61 5 3 6 25 2 50 -5 39 -4 44
12 44 47 -1 157 -31 212 -59 69 -35 94 -25 33 13 -43 28 -141 61 -210 71 l-44
7 34 21 c63 39 139 108 139 128 0 28 -12 24 -51 -17 -38 -41 -107 -94 -121
-94 -5 0 -9 64 -8 148 1 81 1 153 1 160 -1 15 -17 16 -27 1z"/>
</g>
</svg>
