<?xml version="1.0" standalone="no"?>
<!DOCTYPE svg PUBLIC "-//W3C//DTD SVG 20010904//EN"
 "http://www.w3.org/TR/2001/REC-SVG-20010904/DTD/svg10.dtd">
<svg version="1.0" xmlns="http://www.w3.org/2000/svg"
 width="100.000000pt" height="100.000000pt" viewBox="0 0 100.000000 100.000000"
 preserveAspectRatio="xMidYMid meet">
<metadata>
Created by potrace 1.16, written by Peter Selinger 2001-2019
</metadata>
<g transform="translate(0.000000,100.000000) scale(0.100000,-0.100000)"
fill="#000000" stroke="none">
<path d="M341 702 c-13 -24 -31 -160 -31 -233 0 -44 -4 -61 -15 -65 -8 -4 -15
-13 -15 -21 0 -9 6 -13 15 -9 20 7 20 -44 0 -179 -18 -128 -18 -125 4 -125 20
0 24 8 36 70 12 57 75 152 75 112 0 -4 31 -41 69 -81 59 -61 74 -72 98 -69 38
4 35 17 -9 42 -20 12 -54 44 -75 71 -22 28 -47 56 -56 64 -10 7 -17 18 -17 24
0 5 25 47 55 92 30 46 55 88 55 94 0 27 -22 4 -77 -78 -32 -49 -66 -92 -76
-94 -10 -3 -15 -11 -11 -20 3 -9 1 -24 -5 -34 -8 -14 -10 3 -11 68 0 78 3 92
32 148 25 49 32 74 32 124 1 90 -45 152 -73 99z m46 -119 c-3 -28 -13 -64 -22
-80 -15 -27 -16 -24 -9 67 3 52 8 99 12 104 11 19 24 -41 19 -91z"/>
</g>
</svg>
