<?xml version="1.0" standalone="no"?>
<!DOCTYPE svg PUBLIC "-//W3C//DTD SVG 20010904//EN"
 "http://www.w3.org/TR/2001/REC-SVG-20010904/DTD/svg10.dtd">
<svg version="1.0" xmlns="http://www.w3.org/2000/svg"
 width="100.000000pt" height="100.000000pt" viewBox="0 0 100.000000 100.000000"
 preserveAspectRatio="xMidYMid meet">
<metadata>
Created by potrace 1.16, written by Peter Selinger 2001-2019
</metadata>
<g transform="translate(0.000000,100.000000) scale(0.100000,-0.100000)"
fill="#000000" stroke="none">
<path d="M335 830 c-4 -6 -4 -28 0 -48 4 -20 7 -86 7 -145 -1 -85 -4 -113 -16
-126 -18 -20 -21 -47 -6 -56 6 -3 10 -26 10 -50 0 -53 8 -75 26 -75 10 0 14
14 14 51 l0 51 33 -7 c17 -4 61 -18 97 -31 37 -13 68 -20 74 -14 14 14 -77 54
-166 74 -21 5 -28 12 -27 29 0 16 20 35 77 72 83 55 123 98 105 116 -7 7 -26
-5 -64 -43 -30 -29 -69 -61 -86 -71 l-32 -18 -1 113 c0 62 -3 128 -8 147 -8
36 -25 50 -37 31z"/>
</g>
</svg>
