<?xml version="1.0" standalone="no"?>
<!DOCTYPE svg PUBLIC "-//W3C//DTD SVG 20010904//EN"
 "http://www.w3.org/TR/2001/REC-SVG-20010904/DTD/svg10.dtd">
<svg version="1.0" xmlns="http://www.w3.org/2000/svg"
 width="100.000000pt" height="100.000000pt" viewBox="0 0 100.000000 100.000000"
 preserveAspectRatio="xMidYMid meet">
<metadata>
Created by potrace 1.16, written by Peter Selinger 2001-2019
</metadata>
<g transform="translate(0.000000,100.000000) scale(0.100000,-0.100000)"
fill="#000000" stroke="none">
<path d="M511 661 c-27 -27 -48 -103 -57 -201 -4 -50 -10 -77 -15 -68 -7 10
-11 10 -25 -4 -23 -22 -11 -52 17 -43 19 6 20 4 16 -22 -3 -15 -9 -59 -12 -98
-4 -38 -16 -96 -27 -128 -21 -61 -16 -83 15 -71 10 3 25 34 37 73 11 36 29 81
38 99 l18 33 79 -71 c89 -81 125 -103 163 -98 39 4 35 32 -6 38 -22 3 -59 28
-117 79 l-83 74 50 26 c57 29 124 98 134 136 10 39 -10 75 -41 75 -35 0 -103
-65 -145 -139 -46 -80 -60 -85 -60 -20 0 44 5 57 35 92 62 72 79 178 39 235
-19 27 -28 28 -53 3z m49 -85 c0 -44 -27 -113 -52 -133 -12 -11 -14 -4 -10 50
2 34 11 84 19 111 14 45 17 48 29 31 8 -10 14 -37 14 -59z m142 -141 c-2 -11
-11 -31 -21 -45 -19 -26 -111 -93 -118 -86 -8 8 29 69 70 113 41 45 75 54 69
18z"/>
</g>
</svg>
