<?xml version="1.0" standalone="no"?>
<!DOCTYPE svg PUBLIC "-//W3C//DTD SVG 20010904//EN"
 "http://www.w3.org/TR/2001/REC-SVG-20010904/DTD/svg10.dtd">
<svg version="1.0" xmlns="http://www.w3.org/2000/svg"
 width="100.000000pt" height="100.000000pt" viewBox="0 0 100.000000 100.000000"
 preserveAspectRatio="xMidYMid meet">
<metadata>
Created by potrace 1.16, written by Peter Selinger 2001-2019
</metadata>
<g transform="translate(0.000000,100.000000) scale(0.100000,-0.100000)"
fill="#000000" stroke="none">
<path d="M386 707 c-26 -57 -43 -136 -61 -292 -16 -140 -36 -272 -51 -338 -6
-26 -4 -28 17 -25 18 2 26 13 37 53 15 53 66 161 88 184 11 12 16 9 31 -19 69
-126 124 -171 186 -153 42 12 43 39 2 35 -44 -4 -86 28 -119 89 -16 30 -38 64
-50 77 l-21 23 75 70 c41 39 83 77 94 86 12 10 15 18 8 25 -11 11 -87 -49
-161 -126 -19 -20 -42 -36 -52 -36 -25 0 -44 -27 -31 -43 8 -9 6 -21 -8 -42
l-19 -29 6 60 c5 51 12 65 49 107 24 27 50 70 60 99 42 126 -29 301 -80 195z
m64 -110 c0 -64 -17 -114 -55 -159 -30 -35 -30 -33 -15 92 10 76 20 122 37
170 10 28 32 -42 33 -103z"/>
</g>
</svg>
