<?xml version="1.0" standalone="no"?>
<!DOCTYPE svg PUBLIC "-//W3C//DTD SVG 20010904//EN"
 "http://www.w3.org/TR/2001/REC-SVG-20010904/DTD/svg10.dtd">
<svg version="1.0" xmlns="http://www.w3.org/2000/svg"
 width="100.000000pt" height="100.000000pt" viewBox="0 0 100.000000 100.000000"
 preserveAspectRatio="xMidYMid meet">
<metadata>
Created by potrace 1.16, written by Peter Selinger 2001-2019
</metadata>
<g transform="translate(0.000000,100.000000) scale(0.100000,-0.100000)"
fill="#000000" stroke="none">
<path d="M364 889 c-15 -25 -47 -580 -33 -593 17 -18 28 8 35 82 6 60 10 72
25 72 36 0 139 -38 184 -69 47 -31 75 -39 75 -21 0 18 -113 83 -183 105 l-69
22 36 22 c46 29 136 130 136 152 0 35 -19 29 -49 -15 -35 -51 -117 -126 -138
-126 -8 0 -12 3 -10 8 3 4 8 75 12 157 4 83 12 155 17 162 6 7 5 19 -4 32 -14
23 -24 26 -34 10z"/>
</g>
</svg>
