<?xml version="1.0" standalone="no"?>
<!DOCTYPE svg PUBLIC "-//W3C//DTD SVG 20010904//EN"
 "http://www.w3.org/TR/2001/REC-SVG-20010904/DTD/svg10.dtd">
<svg version="1.0" xmlns="http://www.w3.org/2000/svg"
 width="100.000000pt" height="100.000000pt" viewBox="0 0 100.000000 100.000000"
 preserveAspectRatio="xMidYMid meet">
<metadata>
Created by potrace 1.16, written by Peter Selinger 2001-2019
</metadata>
<g transform="translate(0.000000,100.000000) scale(0.100000,-0.100000)"
fill="#000000" stroke="none">
<path d="M384 817 c-7 -29 1 -233 11 -289 6 -29 2 -46 -16 -75 -32 -55 -60
-83 -81 -83 -10 0 -18 -7 -18 -15 0 -8 8 -15 18 -15 29 0 61 28 91 82 l29 51
17 -34 c36 -70 83 -106 115 -89 24 13 18 30 -10 30 -24 0 -64 48 -85 103 -15
41 -15 48 -1 97 9 30 16 80 16 112 0 49 -4 63 -24 81 -13 12 -25 31 -27 41 -6
29 -27 31 -35 3z m54 -118 c2 -30 0 -70 -4 -89 l-7 -35 -7 30 c-13 54 -11 157
3 153 7 -3 13 -27 15 -59z"/>
</g>
</svg>
