<?xml version="1.0" standalone="no"?>
<!DOCTYPE svg PUBLIC "-//W3C//DTD SVG 20010904//EN"
 "http://www.w3.org/TR/2001/REC-SVG-20010904/DTD/svg10.dtd">
<svg version="1.0" xmlns="http://www.w3.org/2000/svg"
 width="100.000000pt" height="100.000000pt" viewBox="0 0 100.000000 100.000000"
 preserveAspectRatio="xMidYMid meet">
<metadata>
Created by potrace 1.16, written by Peter Selinger 2001-2019
</metadata>
<g transform="translate(0.000000,100.000000) scale(0.100000,-0.100000)"
fill="#000000" stroke="none">
<path d="M473 883 c-86 -93 -115 -199 -112 -405 l2 -150 -79 -59 c-43 -32 -91
-61 -106 -64 -28 -7 -36 -19 -19 -29 16 -11 62 13 141 73 l78 58 12 -41 c20
-70 73 -159 126 -214 l51 -53 108 3 c89 2 110 6 119 20 16 26 -1 34 -33 15
-35 -21 -97 -22 -142 -3 -68 29 -151 141 -185 249 l-18 57 51 48 c28 26 62 66
77 89 63 102 87 311 46 401 -17 36 -23 42 -51 42 -23 0 -40 -9 -66 -37z m98
-25 c19 -45 16 -188 -6 -263 -21 -72 -64 -143 -113 -186 -33 -29 -36 -30 -43
-13 -11 28 -10 180 1 252 14 85 43 159 81 205 38 46 62 48 80 5z"/>
</g>
</svg>
