<?xml version="1.0" standalone="no"?>
<!DOCTYPE svg PUBLIC "-//W3C//DTD SVG 20010904//EN"
 "http://www.w3.org/TR/2001/REC-SVG-20010904/DTD/svg10.dtd">
<svg version="1.0" xmlns="http://www.w3.org/2000/svg"
 width="100.000000pt" height="100.000000pt" viewBox="0 0 100.000000 100.000000"
 preserveAspectRatio="xMidYMid meet">
<metadata>
Created by potrace 1.16, written by Peter Selinger 2001-2019
</metadata>
<g transform="translate(0.000000,100.000000) scale(0.100000,-0.100000)"
fill="#000000" stroke="none">
<path d="M380 825 c-6 -14 -10 -38 -10 -53 0 -15 -12 -76 -26 -137 -36 -158
-40 -231 -16 -275 25 -46 63 -53 80 -15 16 34 6 51 -18 30 -15 -13 -20 -14
-26 -3 -15 23 -7 140 16 228 26 102 38 234 21 244 -6 4 -15 -3 -21 -19z"/>
</g>
</svg>
