<?xml version="1.0" standalone="no"?>
<!DOCTYPE svg PUBLIC "-//W3C//DTD SVG 20010904//EN"
 "http://www.w3.org/TR/2001/REC-SVG-20010904/DTD/svg10.dtd">
<svg version="1.0" xmlns="http://www.w3.org/2000/svg"
 width="100.000000pt" height="100.000000pt" viewBox="0 0 100.000000 100.000000"
 preserveAspectRatio="xMidYMid meet">
<metadata>
Created by potrace 1.16, written by Peter Selinger 2001-2019
</metadata>
<g transform="translate(0.000000,100.000000) scale(0.100000,-0.100000)"
fill="#000000" stroke="none">
<path d="M507 833 c-21 -25 -52 -98 -67 -163 -8 -31 -14 -128 -15 -224 l-2
-169 -27 -24 c-35 -30 -46 -29 -46 3 0 37 -34 28 -38 -10 -6 -50 40 -57 99
-15 l28 20 21 -48 c42 -95 104 -129 151 -82 27 27 12 47 -20 27 -27 -17 -49
-4 -78 48 -38 66 -39 97 -5 151 56 89 67 142 66 303 -2 184 -20 234 -67 183z
m42 -208 c1 -99 -17 -186 -51 -247 -21 -38 -23 -38 -31 -16 -11 29 -2 245 14
318 6 30 21 75 32 100 l21 45 7 -55 c4 -30 7 -96 8 -145z"/>
</g>
</svg>
