<?xml version="1.0" standalone="no"?>
<!DOCTYPE svg PUBLIC "-//W3C//DTD SVG 20010904//EN"
 "http://www.w3.org/TR/2001/REC-SVG-20010904/DTD/svg10.dtd">
<svg version="1.0" xmlns="http://www.w3.org/2000/svg"
 width="100.000000pt" height="100.000000pt" viewBox="0 0 100.000000 100.000000"
 preserveAspectRatio="xMidYMid meet">
<metadata>
Created by potrace 1.16, written by Peter Selinger 2001-2019
</metadata>
<g transform="translate(0.000000,100.000000) scale(0.100000,-0.100000)"
fill="#000000" stroke="none">
<path d="M553 892 c-41 -26 -74 -196 -55 -279 9 -37 7 -47 -20 -94 -17 -29
-60 -81 -95 -115 -37 -35 -61 -64 -55 -68 14 -8 128 98 162 150 l26 42 17 -48
c34 -95 129 -148 177 -100 24 24 25 43 5 60 -19 15 -40 3 -25 -15 7 -9 6 -16
-5 -25 -36 -30 -106 41 -129 131 -13 50 -13 56 7 94 23 46 46 142 47 198 0 62
-23 90 -57 69z m24 -94 c-3 -40 -14 -95 -24 -123 l-18 -50 -3 74 c-2 52 2 89
15 122 25 71 37 61 30 -23z"/>
</g>
</svg>
