<?xml version="1.0" standalone="no"?>
<!DOCTYPE svg PUBLIC "-//W3C//DTD SVG 20010904//EN"
 "http://www.w3.org/TR/2001/REC-SVG-20010904/DTD/svg10.dtd">
<svg version="1.0" xmlns="http://www.w3.org/2000/svg"
 width="100.000000pt" height="100.000000pt" viewBox="0 0 100.000000 100.000000"
 preserveAspectRatio="xMidYMid meet">
<metadata>
Created by potrace 1.16, written by Peter Selinger 2001-2019
</metadata>
<g transform="translate(0.000000,100.000000) scale(0.100000,-0.100000)"
fill="#000000" stroke="none">
<path d="M490 923 c-38 -32 -83 -119 -105 -203 -23 -87 -23 -249 -1 -324 16
-54 16 -59 0 -77 -25 -27 -81 -44 -99 -29 -8 7 -15 19 -15 26 0 19 -26 18 -34
-2 -9 -24 11 -52 42 -59 32 -7 71 6 112 35 l27 19 27 -59 c30 -64 94 -130 126
-130 11 0 37 15 58 34 31 29 34 36 20 41 -10 4 -29 -2 -47 -16 l-31 -23 -25
24 c-14 13 -41 55 -60 93 l-35 69 26 42 c39 63 70 136 83 194 14 65 15 316 1
341 -16 31 -38 32 -70 4z m54 -166 c0 -159 -18 -239 -73 -332 l-30 -49 -12 29
c-18 42 -18 266 0 330 16 57 56 142 79 168 29 33 37 3 36 -146z"/>
</g>
</svg>
