<?xml version="1.0" standalone="no"?>
<!DOCTYPE svg PUBLIC "-//W3C//DTD SVG 20010904//EN"
 "http://www.w3.org/TR/2001/REC-SVG-20010904/DTD/svg10.dtd">
<svg version="1.0" xmlns="http://www.w3.org/2000/svg"
 width="100.000000pt" height="100.000000pt" viewBox="0 0 100.000000 100.000000"
 preserveAspectRatio="xMidYMid meet">
<metadata>
Created by potrace 1.16, written by Peter Selinger 2001-2019
</metadata>
<g transform="translate(0.000000,100.000000) scale(0.100000,-0.100000)"
fill="#000000" stroke="none">
<path d="M147 563 c-13 -13 -7 -28 15 -38 13 -6 34 -30 48 -55 21 -38 24 -58
24 -135 0 -49 -3 -107 -8 -128 -8 -33 -7 -37 11 -37 27 0 41 36 49 125 12 144
37 225 73 245 30 15 55 -1 75 -50 22 -55 20 -113 -5 -161 -26 -53 -35 -128
-17 -152 35 -46 77 31 85 156 l6 78 50 45 c37 33 57 44 76 42 34 -4 45 -38 67
-203 17 -125 29 -154 55 -128 10 10 -21 212 -42 280 -32 103 -91 109 -186 20
l-32 -30 -11 27 c-5 15 -10 31 -10 36 0 5 -12 22 -26 39 -51 61 -128 32 -155
-58 l-12 -41 -28 49 c-37 64 -81 96 -102 74z"/>
</g>
</svg>
