<?xml version="1.0" standalone="no"?>
<!DOCTYPE svg PUBLIC "-//W3C//DTD SVG 20010904//EN"
 "http://www.w3.org/TR/2001/REC-SVG-20010904/DTD/svg10.dtd">
<svg version="1.0" xmlns="http://www.w3.org/2000/svg"
 width="100.000000pt" height="100.000000pt" viewBox="0 0 100.000000 100.000000"
 preserveAspectRatio="xMidYMid meet">
<metadata>
Created by potrace 1.16, written by Peter Selinger 2001-2019
</metadata>
<g transform="translate(0.000000,100.000000) scale(0.100000,-0.100000)"
fill="#000000" stroke="none">
<path d="M525 635 c-16 -9 -37 -24 -46 -35 -16 -19 -17 -19 -34 0 -22 24 -81
27 -112 5 -20 -14 -22 -14 -28 5 -4 12 -12 19 -18 17 -18 -6 -33 -252 -17
-272 22 -26 31 -3 38 99 6 76 11 100 27 115 31 30 59 34 85 13 22 -18 23 -21
11 -64 -17 -60 -12 -92 16 -96 31 -5 47 30 40 91 -6 46 -4 52 24 78 35 33 74
37 119 14 44 -23 63 -66 58 -139 -3 -65 9 -84 29 -45 33 63 -4 168 -72 206
-47 27 -79 29 -120 8z"/>
</g>
</svg>
