<?xml version="1.0" standalone="no"?>
<!DOCTYPE svg PUBLIC "-//W3C//DTD SVG 20010904//EN"
 "http://www.w3.org/TR/2001/REC-SVG-20010904/DTD/svg10.dtd">
<svg version="1.0" xmlns="http://www.w3.org/2000/svg"
 width="100.000000pt" height="100.000000pt" viewBox="0 0 100.000000 100.000000"
 preserveAspectRatio="xMidYMid meet">
<metadata>
Created by potrace 1.16, written by Peter Selinger 2001-2019
</metadata>
<g transform="translate(0.000000,100.000000) scale(0.100000,-0.100000)"
fill="#000000" stroke="none">
<path d="M307 654 c-9 -9 -8 -207 1 -259 5 -24 13 -41 23 -43 13 -2 17 9 22
57 6 69 48 171 71 171 24 0 44 -39 59 -111 8 -39 18 -64 26 -64 7 0 24 27 37
61 14 33 38 76 54 95 24 28 32 32 47 23 27 -16 50 -69 67 -159 24 -122 25
-125 41 -125 23 0 24 11 4 103 -19 92 -49 169 -76 199 -38 42 -111 6 -143 -72
-16 -38 -27 -38 -35 0 -9 42 -58 92 -82 84 -29 -11 -50 -33 -65 -67 -13 -32
-13 -31 -18 37 -5 64 -16 87 -33 70z"/>
</g>
</svg>
