<?xml version="1.0" standalone="no"?>
<!DOCTYPE svg PUBLIC "-//W3C//DTD SVG 20010904//EN"
 "http://www.w3.org/TR/2001/REC-SVG-20010904/DTD/svg10.dtd">
<svg version="1.0" xmlns="http://www.w3.org/2000/svg"
 width="100.000000pt" height="100.000000pt" viewBox="0 0 100.000000 100.000000"
 preserveAspectRatio="xMidYMid meet">
<metadata>
Created by potrace 1.16, written by Peter Selinger 2001-2019
</metadata>
<g transform="translate(0.000000,100.000000) scale(0.100000,-0.100000)"
fill="#000000" stroke="none">
<path d="M198 565 c-9 -19 -9 -28 0 -37 9 -9 14 -5 21 13 l9 24 40 -42 c29
-31 43 -56 51 -93 15 -71 14 -133 -5 -179 -19 -48 -15 -105 7 -109 26 -5 50
61 59 162 5 50 12 100 16 111 13 35 45 75 59 75 42 0 68 -158 41 -250 -14 -48
-15 -56 -1 -69 26 -26 46 7 56 90 17 150 77 273 123 256 23 -9 66 -108 82
-193 8 -43 17 -89 20 -102 4 -22 28 -30 38 -14 9 15 -15 145 -37 205 -25 67
-80 137 -107 137 -29 0 -81 -50 -105 -102 -22 -48 -22 -48 -28 -20 -8 42 -54
92 -83 92 -16 0 -33 -13 -53 -41 l-30 -41 -16 39 c-19 44 -49 79 -87 99 -39
20 -57 17 -70 -11z"/>
</g>
</svg>
