<?xml version="1.0" standalone="no"?>
<!DOCTYPE svg PUBLIC "-//W3C//DTD SVG 20010904//EN"
 "http://www.w3.org/TR/2001/REC-SVG-20010904/DTD/svg10.dtd">
<svg version="1.0" xmlns="http://www.w3.org/2000/svg"
 width="100.000000pt" height="100.000000pt" viewBox="0 0 100.000000 100.000000"
 preserveAspectRatio="xMidYMid meet">
<metadata>
Created by potrace 1.16, written by Peter Selinger 2001-2019
</metadata>
<g transform="translate(0.000000,100.000000) scale(0.100000,-0.100000)"
fill="#000000" stroke="none">
<path d="M576 659 c-21 -5 -50 -18 -65 -28 -18 -13 -32 -17 -42 -10 -20 13
-60 10 -89 -6 -18 -10 -29 -10 -38 -3 -26 22 -33 -8 -30 -123 3 -99 5 -114 21
-117 15 -3 17 6 17 88 0 83 2 93 25 115 26 27 73 33 93 13 7 -7 12 -25 12 -40
0 -15 7 -46 16 -68 13 -32 21 -40 38 -38 18 3 21 9 20 46 0 26 -9 53 -21 71
-23 30 -20 42 12 58 88 45 195 3 195 -76 0 -20 -9 -49 -20 -66 -11 -16 -20
-36 -20 -42 0 -27 31 -11 56 27 22 33 26 48 21 85 -5 51 -23 76 -72 99 -46 22
-83 26 -129 15z"/>
</g>
</svg>
