<?xml version="1.0" standalone="no"?>
<!DOCTYPE svg PUBLIC "-//W3C//DTD SVG 20010904//EN"
 "http://www.w3.org/TR/2001/REC-SVG-20010904/DTD/svg10.dtd">
<svg version="1.0" xmlns="http://www.w3.org/2000/svg"
 width="100.000000pt" height="100.000000pt" viewBox="0 0 100.000000 100.000000"
 preserveAspectRatio="xMidYMid meet">
<metadata>
Created by potrace 1.16, written by Peter Selinger 2001-2019
</metadata>
<g transform="translate(0.000000,100.000000) scale(0.100000,-0.100000)"
fill="#000000" stroke="none">
<path d="M156 594 c-9 -24 -7 -54 4 -54 6 0 14 9 18 21 8 19 10 18 45 -21 69
-76 86 -149 52 -232 -33 -80 -38 -110 -22 -131 12 -17 14 -17 39 3 33 25 48
75 48 157 0 111 58 219 113 211 65 -10 86 -137 43 -261 -28 -82 -32 -112 -15
-122 30 -19 73 70 85 178 11 98 88 197 153 197 47 0 71 -123 54 -273 -7 -57
-6 -80 3 -87 24 -21 37 19 42 133 5 127 -5 180 -44 227 -44 52 -120 31 -176
-47 l-32 -44 -22 49 c-24 55 -55 82 -95 82 -33 0 -78 -36 -104 -83 l-18 -35
-20 39 c-38 78 -134 137 -151 93z"/>
</g>
</svg>
