<?xml version="1.0" standalone="no"?>
<!DOCTYPE svg PUBLIC "-//W3C//DTD SVG 20010904//EN"
 "http://www.w3.org/TR/2001/REC-SVG-20010904/DTD/svg10.dtd">
<svg version="1.0" xmlns="http://www.w3.org/2000/svg"
 width="100.000000pt" height="100.000000pt" viewBox="0 0 100.000000 100.000000"
 preserveAspectRatio="xMidYMid meet">
<metadata>
Created by potrace 1.16, written by Peter Selinger 2001-2019
</metadata>
<g transform="translate(0.000000,100.000000) scale(0.100000,-0.100000)"
fill="#000000" stroke="none">
<path d="M220 615 c-10 -12 -5 -22 30 -57 51 -51 70 -93 80 -173 6 -48 4 -70
-11 -110 -23 -62 -24 -84 -2 -92 30 -12 63 41 63 100 0 71 54 229 93 273 65
75 109 25 127 -146 22 -215 54 -262 166 -245 34 5 44 10 44 25 0 17 -7 19 -51
17 -68 -3 -85 19 -104 138 -30 178 -35 199 -60 237 -21 32 -31 38 -60 38 -51
0 -97 -46 -134 -133 -17 -40 -31 -63 -31 -51 0 47 -97 194 -128 194 -5 0 -15
-7 -22 -15z"/>
</g>
</svg>
