<?xml version="1.0" standalone="no"?>
<!DOCTYPE svg PUBLIC "-//W3C//DTD SVG 20010904//EN"
 "http://www.w3.org/TR/2001/REC-SVG-20010904/DTD/svg10.dtd">
<svg version="1.0" xmlns="http://www.w3.org/2000/svg"
 width="100.000000pt" height="100.000000pt" viewBox="0 0 100.000000 100.000000"
 preserveAspectRatio="xMidYMid meet">
<metadata>
Created by potrace 1.16, written by Peter Selinger 2001-2019
</metadata>
<g transform="translate(0.000000,100.000000) scale(0.100000,-0.100000)"
fill="#000000" stroke="none">
<path d="M300 605 c-15 -40 -13 -208 3 -203 12 5 21 27 32 80 3 15 22 46 44
68 48 51 85 53 135 10 45 -40 60 -86 52 -161 -6 -49 -4 -59 8 -59 26 0 41 72
27 132 -31 135 -145 186 -236 106 l-35 -30 0 35 c0 45 -17 57 -30 22z"/>
</g>
</svg>
