<?xml version="1.0" standalone="no"?>
<!DOCTYPE svg PUBLIC "-//W3C//DTD SVG 20010904//EN"
 "http://www.w3.org/TR/2001/REC-SVG-20010904/DTD/svg10.dtd">
<svg version="1.0" xmlns="http://www.w3.org/2000/svg"
 width="100.000000pt" height="100.000000pt" viewBox="0 0 100.000000 100.000000"
 preserveAspectRatio="xMidYMid meet">
<metadata>
Created by potrace 1.16, written by Peter Selinger 2001-2019
</metadata>
<g transform="translate(0.000000,100.000000) scale(0.100000,-0.100000)"
fill="#000000" stroke="none">
<path d="M530 641 c-34 -28 -34 -28 -51 -8 -22 28 -49 16 -49 -22 0 -28 20
-56 20 -29 0 8 4 7 11 -4 7 -13 4 -28 -11 -57 -23 -47 -27 -137 -6 -166 34
-47 69 27 71 154 1 66 5 79 27 103 30 33 67 36 92 9 35 -38 58 -121 54 -196
-2 -59 0 -70 14 -73 40 -8 40 130 0 222 -43 96 -107 121 -172 67z"/>
</g>
</svg>
