<?xml version="1.0" standalone="no"?>
<!DOCTYPE svg PUBLIC "-//W3C//DTD SVG 20010904//EN"
 "http://www.w3.org/TR/2001/REC-SVG-20010904/DTD/svg10.dtd">
<svg version="1.0" xmlns="http://www.w3.org/2000/svg"
 width="100.000000pt" height="100.000000pt" viewBox="0 0 100.000000 100.000000"
 preserveAspectRatio="xMidYMid meet">
<metadata>
Created by potrace 1.16, written by Peter Selinger 2001-2019
</metadata>
<g transform="translate(0.000000,100.000000) scale(0.100000,-0.100000)"
fill="#000000" stroke="none">
<path d="M206 624 c-19 -19 -11 -40 9 -24 20 16 32 6 60 -50 22 -43 25 -63 25
-148 0 -66 -5 -112 -15 -135 -19 -46 -19 -83 0 -91 24 -9 45 36 60 130 30 184
77 269 163 295 65 19 67 13 67 -164 0 -158 4 -176 48 -224 16 -18 31 -23 73
-23 61 0 104 14 104 33 0 11 -14 13 -69 9 l-70 -5 -20 34 c-18 29 -21 51 -21
154 0 139 -11 189 -46 212 -51 33 -156 -22 -197 -103 l-23 -45 -23 55 c-22 55
-69 106 -96 106 -7 0 -21 -7 -29 -16z"/>
</g>
</svg>
