<?xml version="1.0" standalone="no"?>
<!DOCTYPE svg PUBLIC "-//W3C//DTD SVG 20010904//EN"
 "http://www.w3.org/TR/2001/REC-SVG-20010904/DTD/svg10.dtd">
<svg version="1.0" xmlns="http://www.w3.org/2000/svg"
 width="100.000000pt" height="100.000000pt" viewBox="0 0 100.000000 100.000000"
 preserveAspectRatio="xMidYMid meet">
<metadata>
Created by potrace 1.16, written by Peter Selinger 2001-2019
</metadata>
<g transform="translate(0.000000,100.000000) scale(0.100000,-0.100000)"
fill="#000000" stroke="none">
<path d="M366 672 c-8 -13 -36 -191 -36 -229 0 -34 15 -52 31 -36 6 6 14 39
19 74 8 54 14 68 42 91 57 49 135 50 156 3 23 -50 11 -115 -35 -188 -24 -38
-23 -57 2 -57 20 0 72 98 80 152 19 125 -76 196 -187 139 l-37 -18 -3 35 c-3
34 -20 53 -32 34z"/>
</g>
</svg>
