<?xml version="1.0" standalone="no"?>
<!DOCTYPE svg PUBLIC "-//W3C//DTD SVG 20010904//EN"
 "http://www.w3.org/TR/2001/REC-SVG-20010904/DTD/svg10.dtd">
<svg version="1.0" xmlns="http://www.w3.org/2000/svg"
 width="100.000000pt" height="100.000000pt" viewBox="0 0 100.000000 100.000000"
 preserveAspectRatio="xMidYMid meet">
<metadata>
Created by potrace 1.16, written by Peter Selinger 2001-2019
</metadata>
<g transform="translate(0.000000,100.000000) scale(0.100000,-0.100000)"
fill="#000000" stroke="none">
<path d="M296 654 c-10 -26 -7 -44 8 -44 39 0 49 -168 15 -267 -22 -68 -22
-118 0 -118 25 0 49 56 66 150 21 124 71 229 120 252 60 29 61 27 39 -262 -8
-114 4 -145 71 -170 57 -22 160 -26 160 -6 0 18 -18 27 -89 40 -32 6 -64 16
-72 22 -11 9 -14 50 -14 189 0 164 -2 179 -21 204 -11 14 -30 26 -41 26 -37 0
-88 -41 -118 -94 -23 -39 -30 -46 -30 -28 0 25 -37 103 -54 114 -18 12 -33 9
-40 -8z"/>
</g>
</svg>
