<?xml version="1.0" standalone="no"?>
<!DOCTYPE svg PUBLIC "-//W3C//DTD SVG 20010904//EN"
 "http://www.w3.org/TR/2001/REC-SVG-20010904/DTD/svg10.dtd">
<svg version="1.0" xmlns="http://www.w3.org/2000/svg"
 width="100.000000pt" height="100.000000pt" viewBox="0 0 100.000000 100.000000"
 preserveAspectRatio="xMidYMid meet">
<metadata>
Created by potrace 1.16, written by Peter Selinger 2001-2019
</metadata>
<g transform="translate(0.000000,100.000000) scale(0.100000,-0.100000)"
fill="#000000" stroke="none">
<path d="M380 599 c-32 -13 -78 -56 -96 -91 -16 -30 -20 -144 -8 -193 23 -95
118 -132 219 -86 48 22 127 99 162 159 72 121 -9 223 -177 221 -41 0 -86 -5
-100 -10z m55 -29 c4 -6 16 -8 27 -4 13 4 24 0 33 -13 14 -17 14 -17 15 5 0
30 45 30 91 -1 83 -56 75 -121 -29 -226 -56 -57 -75 -70 -119 -80 -98 -24
-147 28 -146 156 1 83 14 110 73 151 37 25 46 27 55 12z"/>
</g>
</svg>
