<?xml version="1.0" standalone="no"?>
<!DOCTYPE svg PUBLIC "-//W3C//DTD SVG 20010904//EN"
 "http://www.w3.org/TR/2001/REC-SVG-20010904/DTD/svg10.dtd">
<svg version="1.0" xmlns="http://www.w3.org/2000/svg"
 width="100.000000pt" height="100.000000pt" viewBox="0 0 100.000000 100.000000"
 preserveAspectRatio="xMidYMid meet">
<metadata>
Created by potrace 1.16, written by Peter Selinger 2001-2019
</metadata>
<g transform="translate(0.000000,100.000000) scale(0.100000,-0.100000)"
fill="#000000" stroke="none">
<path d="M423 656 c-46 -21 -65 -57 -71 -136 -10 -144 69 -234 176 -202 49 15
108 72 121 117 34 123 -116 270 -226 221z m102 -30 c40 -17 92 -85 101 -131 9
-48 -20 -100 -71 -130 -70 -42 -121 -27 -150 42 -17 41 -20 77 -12 148 10 79
55 103 132 71z"/>
</g>
</svg>
