<?xml version="1.0" standalone="no"?>
<!DOCTYPE svg PUBLIC "-//W3C//DTD SVG 20010904//EN"
 "http://www.w3.org/TR/2001/REC-SVG-20010904/DTD/svg10.dtd">
<svg version="1.0" xmlns="http://www.w3.org/2000/svg"
 width="100.000000pt" height="100.000000pt" viewBox="0 0 100.000000 100.000000"
 preserveAspectRatio="xMidYMid meet">
<metadata>
Created by potrace 1.16, written by Peter Selinger 2001-2019
</metadata>
<g transform="translate(0.000000,100.000000) scale(0.100000,-0.100000)"
fill="#000000" stroke="none">
<path d="M474 631 c-123 -12 -172 -62 -182 -186 -5 -68 16 -156 46 -190 35
-42 65 -55 122 -55 70 0 125 25 191 87 101 94 131 204 75 277 -56 75 -84 82
-252 67z m151 -21 c22 0 81 -57 95 -91 29 -69 -56 -206 -161 -260 -57 -29
-129 -26 -168 7 -59 49 -77 184 -36 264 18 34 69 70 100 70 18 -1 19 -1 3 -11
-18 -10 -25 -39 -9 -39 4 0 20 9 34 20 34 27 47 25 47 -6 0 -16 5 -24 13 -21
6 2 12 17 12 33 0 29 19 46 43 38 8 -2 20 -4 27 -4z"/>
</g>
</svg>
