<?xml version="1.0" standalone="no"?>
<!DOCTYPE svg PUBLIC "-//W3C//DTD SVG 20010904//EN"
 "http://www.w3.org/TR/2001/REC-SVG-20010904/DTD/svg10.dtd">
<svg version="1.0" xmlns="http://www.w3.org/2000/svg"
 width="100.000000pt" height="100.000000pt" viewBox="0 0 100.000000 100.000000"
 preserveAspectRatio="xMidYMid meet">
<metadata>
Created by potrace 1.16, written by Peter Selinger 2001-2019
</metadata>
<g transform="translate(0.000000,100.000000) scale(0.100000,-0.100000)"
fill="#000000" stroke="none">
<path d="M434 611 c-64 -64 -82 -92 -92 -137 -13 -61 -6 -96 24 -129 34 -37
107 -35 160 4 85 61 116 125 98 200 -17 67 -143 108 -190 62z m126 -26 c33
-17 45 -49 36 -98 -8 -45 -31 -74 -84 -108 -52 -33 -78 -36 -110 -13 -18 12
-22 25 -22 65 0 54 15 93 31 83 6 -3 13 3 16 14 3 14 11 18 24 15 24 -7 25 12
2 26 -16 9 -16 12 -3 21 22 15 77 12 110 -5z"/>
</g>
</svg>
