<?xml version="1.0" standalone="no"?>
<!DOCTYPE svg PUBLIC "-//W3C//DTD SVG 20010904//EN"
 "http://www.w3.org/TR/2001/REC-SVG-20010904/DTD/svg10.dtd">
<svg version="1.0" xmlns="http://www.w3.org/2000/svg"
 width="100.000000pt" height="100.000000pt" viewBox="0 0 100.000000 100.000000"
 preserveAspectRatio="xMidYMid meet">
<metadata>
Created by potrace 1.16, written by Peter Selinger 2001-2019
</metadata>
<g transform="translate(0.000000,100.000000) scale(0.100000,-0.100000)"
fill="#000000" stroke="none">
<path d="M367 707 c-89 -95 -106 -129 -120 -242 -7 -51 -16 -97 -20 -101 -4
-5 -5 -1 -1 9 9 23 -18 22 -39 -1 -21 -23 -21 -36 -2 -52 12 -10 20 -9 39 3
23 16 24 15 54 -33 24 -38 39 -51 71 -61 81 -24 197 25 236 100 11 22 23 29
58 34 57 8 97 26 97 45 0 11 -7 13 -27 7 -16 -3 -43 -9 -60 -12 l-33 -5 0 63
c0 43 -6 76 -21 106 -23 47 -80 98 -122 108 -22 6 -25 10 -16 21 32 38 -58 49
-94 11z m13 -66 c-26 -50 -2 -142 53 -199 34 -36 96 -72 122 -72 24 0 18 -13
-24 -54 -123 -120 -284 -21 -223 137 12 28 26 79 33 112 7 33 19 68 27 78 20
23 25 22 12 -2z m139 -18 c73 -56 110 -213 49 -213 -30 0 -72 26 -107 66 -38
43 -53 77 -53 122 0 67 42 77 111 25z m-211 -91 c-6 -24 -13 -41 -15 -38 -2 2
1 23 7 46 6 23 13 40 15 38 2 -2 -1 -23 -7 -46z"/>
</g>
</svg>
