<?xml version="1.0" standalone="no"?>
<!DOCTYPE svg PUBLIC "-//W3C//DTD SVG 20010904//EN"
 "http://www.w3.org/TR/2001/REC-SVG-20010904/DTD/svg10.dtd">
<svg version="1.0" xmlns="http://www.w3.org/2000/svg"
 width="100.000000pt" height="100.000000pt" viewBox="0 0 100.000000 100.000000"
 preserveAspectRatio="xMidYMid meet">
<metadata>
Created by potrace 1.16, written by Peter Selinger 2001-2019
</metadata>
<g transform="translate(0.000000,100.000000) scale(0.100000,-0.100000)"
fill="#000000" stroke="none">
<path d="M410 623 c-76 -50 -105 -93 -121 -179 -19 -102 16 -154 104 -154 80
0 134 29 188 104 72 98 3 247 -113 245 -18 0 -44 -7 -58 -16z m94 -17 c78 -33
101 -129 47 -203 -52 -72 -173 -103 -213 -55 -17 20 -13 100 7 149 9 21 28 51
43 66 22 24 33 27 59 22 34 -6 42 2 21 23 -16 16 -5 15 36 -2z"/>
</g>
</svg>
