<?xml version="1.0" standalone="no"?>
<!DOCTYPE svg PUBLIC "-//W3C//DTD SVG 20010904//EN"
 "http://www.w3.org/TR/2001/REC-SVG-20010904/DTD/svg10.dtd">
<svg version="1.0" xmlns="http://www.w3.org/2000/svg"
 width="100.000000pt" height="100.000000pt" viewBox="0 0 100.000000 100.000000"
 preserveAspectRatio="xMidYMid meet">
<metadata>
Created by potrace 1.16, written by Peter Selinger 2001-2019
</metadata>
<g transform="translate(0.000000,100.000000) scale(0.100000,-0.100000)"
fill="#000000" stroke="none">
<path d="M335 398 c-11 -278 -11 -310 4 -345 8 -21 20 -33 32 -33 23 0 23 2 4
65 -13 42 -14 66 -5 145 18 162 11 150 88 150 115 1 178 44 165 113 -16 83
-147 104 -220 35 l-23 -21 0 20 c0 31 -10 53 -25 53 -9 0 -14 -47 -20 -182z
m238 125 c9 -9 17 -28 17 -43 0 -39 -39 -61 -115 -68 l-62 -5 -7 38 c-6 31 -3
41 15 61 41 44 113 52 152 17z"/>
</g>
</svg>
