<?xml version="1.0" standalone="no"?>
<!DOCTYPE svg PUBLIC "-//W3C//DTD SVG 20010904//EN"
 "http://www.w3.org/TR/2001/REC-SVG-20010904/DTD/svg10.dtd">
<svg version="1.0" xmlns="http://www.w3.org/2000/svg"
 width="100.000000pt" height="100.000000pt" viewBox="0 0 100.000000 100.000000"
 preserveAspectRatio="xMidYMid meet">
<metadata>
Created by potrace 1.16, written by Peter Selinger 2001-2019
</metadata>
<g transform="translate(0.000000,100.000000) scale(0.100000,-0.100000)"
fill="#000000" stroke="none">
<path d="M382 693 c-6 -15 -18 -83 -26 -151 -14 -121 -18 -136 -37 -138 -5 -1
-13 -2 -19 -3 -5 0 -10 -10 -10 -22 0 -17 4 -20 24 -15 l23 6 -18 -78 c-10
-42 -25 -97 -33 -121 -21 -57 -20 -71 3 -71 15 0 25 15 40 55 12 31 21 58 21
62 0 3 10 32 21 64 l22 59 66 0 c87 0 129 21 159 80 26 50 25 115 -2 168 -30
58 -108 43 -154 -29 l-19 -31 4 49 c5 58 -17 137 -39 141 -9 2 -20 -8 -26 -25z
m25 -174 c-14 -33 -14 -33 -10 31 6 98 17 127 21 59 2 -34 -3 -71 -11 -90z
m174 65 c8 -10 14 -40 14 -74 0 -64 -21 -105 -61 -120 -29 -11 -124 -13 -124
-3 0 3 18 44 40 89 52 108 99 146 131 108z"/>
</g>
</svg>
