<?xml version="1.0" standalone="no"?>
<!DOCTYPE svg PUBLIC "-//W3C//DTD SVG 20010904//EN"
 "http://www.w3.org/TR/2001/REC-SVG-20010904/DTD/svg10.dtd">
<svg version="1.0" xmlns="http://www.w3.org/2000/svg"
 width="100.000000pt" height="100.000000pt" viewBox="0 0 100.000000 100.000000"
 preserveAspectRatio="xMidYMid meet">
<metadata>
Created by potrace 1.16, written by Peter Selinger 2001-2019
</metadata>
<g transform="translate(0.000000,100.000000) scale(0.100000,-0.100000)"
fill="#000000" stroke="none">
<path d="M377 603 c-4 -3 -7 -109 -7 -233 0 -189 3 -230 15 -240 8 -7 22 -10
30 -6 18 6 20 33 4 38 -8 3 -10 32 -4 101 l7 97 37 0 c54 0 137 45 172 93 58
80 25 147 -70 147 -41 -1 -73 -9 -133 -35 -15 -6 -18 -2 -18 19 0 24 -18 35
-33 19z m241 -45 c47 -47 -58 -155 -156 -161 l-37 -2 -3 68 -3 67 43 20 c48
22 138 26 156 8z"/>
</g>
</svg>
