<?xml version="1.0" standalone="no"?>
<!DOCTYPE svg PUBLIC "-//W3C//DTD SVG 20010904//EN"
 "http://www.w3.org/TR/2001/REC-SVG-20010904/DTD/svg10.dtd">
<svg version="1.0" xmlns="http://www.w3.org/2000/svg"
 width="100.000000pt" height="100.000000pt" viewBox="0 0 100.000000 100.000000"
 preserveAspectRatio="xMidYMid meet">
<metadata>
Created by potrace 1.16, written by Peter Selinger 2001-2019
</metadata>
<g transform="translate(0.000000,100.000000) scale(0.100000,-0.100000)"
fill="#000000" stroke="none">
<path d="M458 624 c-20 -15 -50 -45 -65 -67 l-28 -41 -5 50 c-4 39 -9 49 -23
49 -16 0 -19 -10 -23 -70 -8 -122 -73 -333 -117 -382 -19 -22 -16 -43 7 -43
23 0 55 44 79 108 18 48 31 67 55 80 134 73 215 139 249 205 18 35 12 90 -13
118 -24 27 -73 24 -116 -7z m86 -10 c45 -44 -10 -134 -131 -213 -42 -27 -79
-48 -81 -46 -2 2 1 26 7 53 15 61 103 180 151 204 42 21 35 21 54 2z"/>
</g>
</svg>
