<?xml version="1.0" standalone="no"?>
<!DOCTYPE svg PUBLIC "-//W3C//DTD SVG 20010904//EN"
 "http://www.w3.org/TR/2001/REC-SVG-20010904/DTD/svg10.dtd">
<svg version="1.0" xmlns="http://www.w3.org/2000/svg"
 width="100.000000pt" height="100.000000pt" viewBox="0 0 100.000000 100.000000"
 preserveAspectRatio="xMidYMid meet">
<metadata>
Created by potrace 1.16, written by Peter Selinger 2001-2019
</metadata>
<g transform="translate(0.000000,100.000000) scale(0.100000,-0.100000)"
fill="#000000" stroke="none">
<path d="M500 600 c-19 -5 -45 -20 -57 -34 l-22 -27 -7 26 c-8 33 -37 33 -52
0 -16 -34 -15 -48 2 -42 19 7 26 -66 15 -152 -4 -36 -8 -110 -9 -164 0 -88 2
-98 17 -95 21 4 20 1 28 138 l7 106 80 11 c91 12 124 31 152 87 16 33 17 44 7
77 -7 22 -22 45 -34 53 -30 20 -85 26 -127 16z m110 -40 c28 -28 27 -90 -2
-118 -29 -26 -59 -38 -125 -47 l-53 -7 0 46 c0 57 20 108 51 130 33 23 104 21
129 -4z"/>
</g>
</svg>
