<?xml version="1.0" standalone="no"?>
<!DOCTYPE svg PUBLIC "-//W3C//DTD SVG 20010904//EN"
 "http://www.w3.org/TR/2001/REC-SVG-20010904/DTD/svg10.dtd">
<svg version="1.0" xmlns="http://www.w3.org/2000/svg"
 width="100.000000pt" height="100.000000pt" viewBox="0 0 100.000000 100.000000"
 preserveAspectRatio="xMidYMid meet">
<metadata>
Created by potrace 1.16, written by Peter Selinger 2001-2019
</metadata>
<g transform="translate(0.000000,100.000000) scale(0.100000,-0.100000)"
fill="#000000" stroke="none">
<path d="M328 634 c-31 -16 -63 -72 -73 -126 -5 -26 -1 -49 13 -82 22 -48 49
-63 97 -54 23 5 24 4 19 -41 -3 -25 -12 -88 -21 -138 -21 -133 -8 -145 60 -56
24 32 68 94 98 138 29 44 86 114 126 156 65 68 86 99 66 99 -19 0 -144 -138
-215 -238 -45 -62 -83 -111 -84 -109 -2 2 1 54 7 116 8 91 15 119 34 147 26
39 40 93 32 123 -3 14 0 17 16 13 42 -11 9 23 -44 45 -63 26 -94 28 -131 7z
m104 -26 c38 -11 38 -11 19 -32 -19 -21 -51 -103 -51 -131 0 -17 -31 -35 -60
-35 -15 0 -26 11 -36 37 -20 46 -6 103 34 146 29 30 38 32 94 15z"/>
</g>
</svg>
