<?xml version="1.0" standalone="no"?>
<!DOCTYPE svg PUBLIC "-//W3C//DTD SVG 20010904//EN"
 "http://www.w3.org/TR/2001/REC-SVG-20010904/DTD/svg10.dtd">
<svg version="1.0" xmlns="http://www.w3.org/2000/svg"
 width="100.000000pt" height="100.000000pt" viewBox="0 0 100.000000 100.000000"
 preserveAspectRatio="xMidYMid meet">
<metadata>
Created by potrace 1.16, written by Peter Selinger 2001-2019
</metadata>
<g transform="translate(0.000000,100.000000) scale(0.100000,-0.100000)"
fill="#000000" stroke="none">
<path d="M325 589 c-48 -43 -65 -78 -65 -139 0 -45 3 -52 26 -62 22 -10 32 -9
62 7 20 11 47 35 59 54 l23 34 0 -119 c0 -96 4 -127 20 -162 35 -78 76 -54
179 107 44 69 48 81 27 81 -7 0 -30 -26 -51 -57 -50 -76 -95 -133 -105 -133
-20 0 -30 69 -32 235 l-3 180 -52 3 c-45 3 -55 -1 -88 -29z m105 -14 c0 -49
-76 -155 -111 -155 -15 0 -19 7 -19 36 0 41 12 68 48 107 29 30 82 38 82 12z"/>
</g>
</svg>
