<?xml version="1.0" standalone="no"?>
<!DOCTYPE svg PUBLIC "-//W3C//DTD SVG 20010904//EN"
 "http://www.w3.org/TR/2001/REC-SVG-20010904/DTD/svg10.dtd">
<svg version="1.0" xmlns="http://www.w3.org/2000/svg"
 width="100.000000pt" height="100.000000pt" viewBox="0 0 100.000000 100.000000"
 preserveAspectRatio="xMidYMid meet">
<metadata>
Created by potrace 1.16, written by Peter Selinger 2001-2019
</metadata>
<g transform="translate(0.000000,100.000000) scale(0.100000,-0.100000)"
fill="#000000" stroke="none">
<path d="M385 586 c-88 -38 -133 -178 -72 -221 38 -27 81 -28 132 -6 26 12 49
21 50 21 1 0 5 -46 9 -102 12 -185 25 -205 92 -146 64 56 166 190 154 202 -7
7 -20 -2 -42 -29 -18 -22 -57 -66 -87 -98 -44 -46 -56 -55 -63 -43 -5 9 -11
66 -14 128 -6 110 -5 114 20 147 30 40 34 91 10 116 -23 23 -40 4 -49 -53 -10
-65 -20 -81 -68 -103 -51 -23 -100 -24 -117 -4 -17 21 -14 82 5 112 35 52 117
79 166 53 15 -9 19 -7 19 5 0 33 -89 46 -145 21z"/>
</g>
</svg>
