<?xml version="1.0" standalone="no"?>
<!DOCTYPE svg PUBLIC "-//W3C//DTD SVG 20010904//EN"
 "http://www.w3.org/TR/2001/REC-SVG-20010904/DTD/svg10.dtd">
<svg version="1.0" xmlns="http://www.w3.org/2000/svg"
 width="100.000000pt" height="100.000000pt" viewBox="0 0 100.000000 100.000000"
 preserveAspectRatio="xMidYMid meet">
<metadata>
Created by potrace 1.16, written by Peter Selinger 2001-2019
</metadata>
<g transform="translate(0.000000,100.000000) scale(0.100000,-0.100000)"
fill="#000000" stroke="none">
<path d="M371 605 c-89 -75 -76 -264 19 -273 22 -2 43 4 63 18 l29 22 -6 -38
c-3 -22 -13 -85 -22 -142 -13 -81 -14 -106 -5 -115 17 -16 98 74 195 218 41
61 95 130 120 155 43 41 58 70 37 70 -17 0 -129 -128 -190 -217 -65 -96 -111
-146 -111 -122 0 40 30 249 39 273 13 31 14 106 3 122 -14 23 -78 54 -109 54
-19 0 -43 -10 -62 -25z m120 -21 c25 -12 30 -20 25 -37 -4 -12 -11 -43 -17
-69 -18 -79 -94 -135 -129 -93 -18 22 -24 97 -10 139 13 39 52 76 82 76 10 0
33 -7 49 -16z"/>
</g>
</svg>
