<?xml version="1.0" standalone="no"?>
<!DOCTYPE svg PUBLIC "-//W3C//DTD SVG 20010904//EN"
 "http://www.w3.org/TR/2001/REC-SVG-20010904/DTD/svg10.dtd">
<svg version="1.0" xmlns="http://www.w3.org/2000/svg"
 width="100.000000pt" height="100.000000pt" viewBox="0 0 100.000000 100.000000"
 preserveAspectRatio="xMidYMid meet">
<metadata>
Created by potrace 1.16, written by Peter Selinger 2001-2019
</metadata>
<g transform="translate(0.000000,100.000000) scale(0.100000,-0.100000)"
fill="#000000" stroke="none">
<path d="M291 633 c-46 -46 -61 -92 -61 -191 0 -135 58 -181 142 -112 l37 31
-20 -71 c-10 -38 -28 -93 -39 -121 -20 -53 -19 -69 4 -69 18 0 202 183 274
273 35 42 94 101 133 129 38 29 69 56 69 60 0 42 -142 -71 -249 -198 -94 -110
-180 -193 -167 -159 5 11 17 67 28 125 11 58 26 128 34 156 8 28 14 73 14 100
0 48 -1 49 -37 63 -21 7 -57 15 -81 18 -39 5 -46 2 -81 -34z m138 -10 c21 -18
21 -19 4 -107 -15 -81 -20 -93 -58 -132 -47 -50 -76 -56 -93 -19 -15 33 -15
123 -1 181 20 79 97 119 148 77z"/>
</g>
</svg>
