<?xml version="1.0" standalone="no"?>
<!DOCTYPE svg PUBLIC "-//W3C//DTD SVG 20010904//EN"
 "http://www.w3.org/TR/2001/REC-SVG-20010904/DTD/svg10.dtd">
<svg version="1.0" xmlns="http://www.w3.org/2000/svg"
 width="100.000000pt" height="100.000000pt" viewBox="0 0 100.000000 100.000000"
 preserveAspectRatio="xMidYMid meet">
<metadata>
Created by potrace 1.16, written by Peter Selinger 2001-2019
</metadata>
<g transform="translate(0.000000,100.000000) scale(0.100000,-0.100000)"
fill="#000000" stroke="none">
<path d="M398 596 c-58 -16 -116 -59 -124 -92 -17 -68 89 -94 215 -51 l73 24
-6 -46 c-4 -25 -9 -82 -13 -125 -5 -68 -4 -81 11 -92 21 -15 66 -2 148 43 43
23 88 68 88 87 0 14 -28 4 -46 -15 -19 -22 -154 -92 -162 -85 -4 5 15 245 24
300 6 34 5 38 -12 34 -12 -2 -21 -14 -24 -33 -4 -26 -14 -33 -65 -54 -64 -25
-168 -32 -187 -13 -16 16 13 55 58 77 21 10 66 20 101 23 62 5 79 14 47 26
-24 9 -74 6 -126 -8z"/>
</g>
</svg>
