<?xml version="1.0" standalone="no"?>
<!DOCTYPE svg PUBLIC "-//W3C//DTD SVG 20010904//EN"
 "http://www.w3.org/TR/2001/REC-SVG-20010904/DTD/svg10.dtd">
<svg version="1.0" xmlns="http://www.w3.org/2000/svg"
 width="100.000000pt" height="100.000000pt" viewBox="0 0 100.000000 100.000000"
 preserveAspectRatio="xMidYMid meet">
<metadata>
Created by potrace 1.16, written by Peter Selinger 2001-2019
</metadata>
<g transform="translate(0.000000,100.000000) scale(0.100000,-0.100000)"
fill="#000000" stroke="none">
<path d="M664 669 c-17 -5 -52 -27 -77 -50 l-47 -40 -39 32 c-35 27 -45 31
-77 24 -49 -9 -96 -56 -92 -92 4 -38 28 -42 28 -5 0 21 8 37 26 51 36 28 58
26 95 -7 31 -28 31 -28 15 -60 -19 -38 -21 -111 -3 -137 10 -13 21 -16 40 -11
34 8 43 42 29 115 -10 54 -9 57 16 84 48 51 80 68 144 75 76 9 93 32 21 31
-26 0 -62 -5 -79 -10z m-134 -214 c0 -25 -4 -45 -10 -45 -11 0 -14 73 -3 83
11 12 13 8 13 -38z"/>
</g>
</svg>
