<?xml version="1.0" standalone="no"?>
<!DOCTYPE svg PUBLIC "-//W3C//DTD SVG 20010904//EN"
 "http://www.w3.org/TR/2001/REC-SVG-20010904/DTD/svg10.dtd">
<svg version="1.0" xmlns="http://www.w3.org/2000/svg"
 width="100.000000pt" height="100.000000pt" viewBox="0 0 100.000000 100.000000"
 preserveAspectRatio="xMidYMid meet">
<metadata>
Created by potrace 1.16, written by Peter Selinger 2001-2019
</metadata>
<g transform="translate(0.000000,100.000000) scale(0.100000,-0.100000)"
fill="#000000" stroke="none">
<path d="M275 580 c-4 -6 -1 -18 7 -27 9 -11 13 -48 13 -117 0 -80 3 -101 14
-101 9 0 18 20 26 57 11 58 54 131 83 143 48 20 75 23 98 13 29 -13 42 -4 24
17 -29 35 -140 9 -180 -42 -14 -18 -21 -21 -24 -12 -2 8 -9 28 -14 44 -9 31
-35 45 -47 25z"/>
</g>
</svg>
