<?xml version="1.0" standalone="no"?>
<!DOCTYPE svg PUBLIC "-//W3C//DTD SVG 20010904//EN"
 "http://www.w3.org/TR/2001/REC-SVG-20010904/DTD/svg10.dtd">
<svg version="1.0" xmlns="http://www.w3.org/2000/svg"
 width="100.000000pt" height="100.000000pt" viewBox="0 0 100.000000 100.000000"
 preserveAspectRatio="xMidYMid meet">
<metadata>
Created by potrace 1.16, written by Peter Selinger 2001-2019
</metadata>
<g transform="translate(0.000000,100.000000) scale(0.100000,-0.100000)"
fill="#000000" stroke="none">
<path d="M570 640 c-36 -28 -79 -65 -97 -84 l-31 -34 -32 40 c-62 77 -150 124
-150 79 0 -28 37 -69 48 -54 8 13 29 -6 86 -74 19 -22 18 -24 -13 -82 -66
-125 -27 -271 74 -271 102 0 119 117 40 274 l-34 67 36 40 c19 21 64 59 99 84
61 44 78 66 52 65 -7 -1 -42 -23 -78 -50z m-116 -225 c27 -57 46 -116 46 -144
0 -62 -58 -92 -95 -51 -30 33 -33 128 -5 184 12 25 25 46 30 46 4 0 15 -16 24
-35z"/>
</g>
</svg>
