<?xml version="1.0" standalone="no"?>
<!DOCTYPE svg PUBLIC "-//W3C//DTD SVG 20010904//EN"
 "http://www.w3.org/TR/2001/REC-SVG-20010904/DTD/svg10.dtd">
<svg version="1.0" xmlns="http://www.w3.org/2000/svg"
 width="100.000000pt" height="100.000000pt" viewBox="0 0 100.000000 100.000000"
 preserveAspectRatio="xMidYMid meet">
<metadata>
Created by potrace 1.16, written by Peter Selinger 2001-2019
</metadata>
<g transform="translate(0.000000,100.000000) scale(0.100000,-0.100000)"
fill="#000000" stroke="none">
<path d="M603 628 c-11 -13 -28 -38 -37 -56 l-17 -33 -29 30 c-42 46 -79 38
-66 -15 7 -28 26 -33 26 -6 1 12 6 8 16 -12 13 -23 15 -46 9 -116 -5 -63 -4
-90 5 -95 22 -13 34 15 41 89 4 52 14 89 33 127 39 74 46 82 62 68 20 -16 36
-2 24 22 -14 25 -42 24 -67 -3z"/>
</g>
</svg>
