<?xml version="1.0" standalone="no"?>
<!DOCTYPE svg PUBLIC "-//W3C//DTD SVG 20010904//EN"
 "http://www.w3.org/TR/2001/REC-SVG-20010904/DTD/svg10.dtd">
<svg version="1.0" xmlns="http://www.w3.org/2000/svg"
 width="100.000000pt" height="100.000000pt" viewBox="0 0 100.000000 100.000000"
 preserveAspectRatio="xMidYMid meet">
<metadata>
Created by potrace 1.16, written by Peter Selinger 2001-2019
</metadata>
<g transform="translate(0.000000,100.000000) scale(0.100000,-0.100000)"
fill="#000000" stroke="none">
<path d="M365 625 c-14 -13 -25 -31 -25 -39 0 -26 50 -74 111 -108 32 -18 58
-37 56 -43 -5 -14 -86 -44 -122 -44 -20 -1 -35 6 -43 20 -10 15 -17 18 -24 11
-8 -8 -6 -18 6 -36 14 -22 24 -26 64 -25 43 0 99 18 146 45 34 20 13 56 -57
97 -75 43 -102 70 -93 92 9 23 55 37 87 26 31 -11 44 -4 28 16 -7 7 -32 13
-61 13 -39 0 -54 -5 -73 -25z"/>
</g>
</svg>
