<?xml version="1.0" standalone="no"?>
<!DOCTYPE svg PUBLIC "-//W3C//DTD SVG 20010904//EN"
 "http://www.w3.org/TR/2001/REC-SVG-20010904/DTD/svg10.dtd">
<svg version="1.0" xmlns="http://www.w3.org/2000/svg"
 width="100.000000pt" height="100.000000pt" viewBox="0 0 100.000000 100.000000"
 preserveAspectRatio="xMidYMid meet">
<metadata>
Created by potrace 1.16, written by Peter Selinger 2001-2019
</metadata>
<g transform="translate(0.000000,100.000000) scale(0.100000,-0.100000)"
fill="#000000" stroke="none">
<path d="M378 736 c-82 -29 -122 -75 -134 -154 -14 -92 41 -147 185 -185 102
-27 138 -48 160 -92 12 -25 12 -32 0 -54 -35 -63 -159 -90 -242 -53 -29 13
-51 31 -62 51 -15 30 -35 34 -35 7 0 -23 40 -66 81 -86 52 -27 167 -27 226 0
55 24 86 72 78 119 -13 71 -62 107 -190 141 -133 36 -175 76 -162 157 8 48 34
82 83 110 50 29 101 29 159 1 38 -19 45 -26 43 -48 -4 -35 14 -41 26 -8 12 35
-3 54 -69 84 -56 27 -93 29 -147 10z"/>
</g>
</svg>
