<?xml version="1.0" standalone="no"?>
<!DOCTYPE svg PUBLIC "-//W3C//DTD SVG 20010904//EN"
 "http://www.w3.org/TR/2001/REC-SVG-20010904/DTD/svg10.dtd">
<svg version="1.0" xmlns="http://www.w3.org/2000/svg"
 width="100.000000pt" height="100.000000pt" viewBox="0 0 100.000000 100.000000"
 preserveAspectRatio="xMidYMid meet">
<metadata>
Created by potrace 1.16, written by Peter Selinger 2001-2019
</metadata>
<g transform="translate(0.000000,100.000000) scale(0.100000,-0.100000)"
fill="#000000" stroke="none">
<path d="M418 623 c-24 -28 -38 -59 -38 -86 0 -32 44 -75 86 -83 49 -9 45 -37
-9 -63 -57 -28 -87 -28 -87 0 0 24 -23 21 -28 -5 -10 -48 61 -61 136 -25 76
37 82 109 10 124 -64 14 -85 56 -52 103 11 16 25 23 43 22 40 -3 44 -1 31 15
-17 21 -73 19 -92 -2z"/>
</g>
</svg>
