<?xml version="1.0" standalone="no"?>
<!DOCTYPE svg PUBLIC "-//W3C//DTD SVG 20010904//EN"
 "http://www.w3.org/TR/2001/REC-SVG-20010904/DTD/svg10.dtd">
<svg version="1.0" xmlns="http://www.w3.org/2000/svg"
 width="100.000000pt" height="100.000000pt" viewBox="0 0 100.000000 100.000000"
 preserveAspectRatio="xMidYMid meet">
<metadata>
Created by potrace 1.16, written by Peter Selinger 2001-2019
</metadata>
<g transform="translate(0.000000,100.000000) scale(0.100000,-0.100000)"
fill="#000000" stroke="none">
<path d="M461 723 c-51 -51 -60 -98 -31 -182 l21 -62 -22 -30 c-15 -22 -25
-27 -32 -20 -6 6 -25 11 -42 11 -45 0 -68 -29 -69 -88 -1 -41 -4 -47 -24 -50
-27 -4 -40 -28 -24 -44 7 -7 19 -4 38 11 l27 21 17 -37 c61 -132 170 -195 259
-148 55 28 52 45 -39 277 l-42 107 21 44 c34 69 47 157 30 193 -20 42 -44 41
-88 -3z m64 -54 c0 -56 -30 -153 -45 -144 -13 8 -33 103 -26 129 8 31 46 78
60 73 6 -2 11 -26 11 -58z m45 -501 c0 -25 -37 -41 -83 -35 -49 7 -95 49 -134
123 l-28 54 70 70 69 70 53 -133 c29 -72 52 -140 53 -149z m-195 246 c14 -6
11 -12 -16 -40 -33 -34 -49 -36 -49 -7 0 17 28 53 41 53 4 0 15 -3 24 -6z"/>
</g>
</svg>
