<?xml version="1.0" standalone="no"?>
<!DOCTYPE svg PUBLIC "-//W3C//DTD SVG 20010904//EN"
 "http://www.w3.org/TR/2001/REC-SVG-20010904/DTD/svg10.dtd">
<svg version="1.0" xmlns="http://www.w3.org/2000/svg"
 width="100.000000pt" height="100.000000pt" viewBox="0 0 100.000000 100.000000"
 preserveAspectRatio="xMidYMid meet">
<metadata>
Created by potrace 1.16, written by Peter Selinger 2001-2019
</metadata>
<g transform="translate(0.000000,100.000000) scale(0.100000,-0.100000)"
fill="#000000" stroke="none">
<path d="M371 634 c-35 -44 -28 -81 24 -131 64 -61 56 -108 -17 -101 -29 3
-33 7 -36 36 -5 46 -32 43 -32 -3 0 -66 63 -95 129 -60 59 30 57 87 -4 143
-45 40 -53 63 -35 92 8 12 10 12 16 -3 8 -23 24 -22 24 2 0 20 -24 51 -40 51
-5 0 -18 -12 -29 -26z"/>
</g>
</svg>
