<?xml version="1.0" standalone="no"?>
<!DOCTYPE svg PUBLIC "-//W3C//DTD SVG 20010904//EN"
 "http://www.w3.org/TR/2001/REC-SVG-20010904/DTD/svg10.dtd">
<svg version="1.0" xmlns="http://www.w3.org/2000/svg"
 width="100.000000pt" height="100.000000pt" viewBox="0 0 100.000000 100.000000"
 preserveAspectRatio="xMidYMid meet">
<metadata>
Created by potrace 1.16, written by Peter Selinger 2001-2019
</metadata>
<g transform="translate(0.000000,100.000000) scale(0.100000,-0.100000)"
fill="#000000" stroke="none">
<path d="M509 799 c-44 -47 -49 -104 -18 -211 l13 -48 -34 -35 c-24 -24 -41
-34 -54 -31 -42 11 -116 -53 -116 -100 0 -13 -9 -29 -20 -36 -20 -13 -28 -38
-11 -38 5 0 14 7 21 15 11 13 17 7 44 -37 17 -29 51 -66 74 -83 37 -25 54 -30
115 -33 40 -2 98 -5 130 -8 61 -6 117 9 117 31 0 19 -12 26 -26 14 -7 -5 -39
-9 -71 -7 -46 2 -57 6 -53 18 14 41 0 141 -33 239 l-35 105 30 53 c34 61 49
164 29 201 -18 34 -66 29 -102 -9z m81 -10 c7 -12 9 -37 5 -62 -8 -45 -44
-137 -54 -137 -10 0 -31 77 -31 115 0 54 28 100 62 104 4 1 12 -8 18 -20z
m-45 -360 c31 -88 45 -197 25 -184 -7 4 -28 42 -47 84 -19 42 -44 86 -56 99
l-22 24 35 28 c19 16 36 27 37 26 2 -2 14 -36 28 -77z m-145 17 c0 -2 -16 -16
-36 -31 -29 -22 -33 -23 -23 -7 7 12 22 25 34 31 24 12 25 12 25 7z m80 -110
c6 -22 23 -61 36 -85 13 -24 24 -45 24 -47 0 -9 -64 -3 -93 9 -43 18 -107 91
-107 121 0 15 15 37 42 61 l41 38 22 -28 c13 -15 28 -46 35 -69z"/>
</g>
</svg>
