<?xml version="1.0" standalone="no"?>
<!DOCTYPE svg PUBLIC "-//W3C//DTD SVG 20010904//EN"
 "http://www.w3.org/TR/2001/REC-SVG-20010904/DTD/svg10.dtd">
<svg version="1.0" xmlns="http://www.w3.org/2000/svg"
 width="100.000000pt" height="100.000000pt" viewBox="0 0 100.000000 100.000000"
 preserveAspectRatio="xMidYMid meet">
<metadata>
Created by potrace 1.16, written by Peter Selinger 2001-2019
</metadata>
<g transform="translate(0.000000,100.000000) scale(0.100000,-0.100000)"
fill="#000000" stroke="none">
<path d="M420 851 c-5 -11 -10 -65 -10 -119 l0 -100 -61 -11 c-68 -12 -78 -16
-63 -31 6 -6 22 -6 44 0 76 22 77 21 72 -79 -9 -181 41 -216 151 -105 26 26
47 56 47 66 0 10 -2 18 -5 18 -3 0 -30 -25 -60 -55 -79 -82 -85 -78 -85 59 0
133 -15 119 148 137 103 11 134 20 118 36 -3 4 -45 1 -93 -6 -49 -6 -107 -14
-130 -17 l-43 -5 0 115 c0 113 -8 138 -30 97z"/>
</g>
</svg>
