<?xml version="1.0" standalone="no"?>
<!DOCTYPE svg PUBLIC "-//W3C//DTD SVG 20010904//EN"
 "http://www.w3.org/TR/2001/REC-SVG-20010904/DTD/svg10.dtd">
<svg version="1.0" xmlns="http://www.w3.org/2000/svg"
 width="100.000000pt" height="100.000000pt" viewBox="0 0 100.000000 100.000000"
 preserveAspectRatio="xMidYMid meet">
<metadata>
Created by potrace 1.16, written by Peter Selinger 2001-2019
</metadata>
<g transform="translate(0.000000,100.000000) scale(0.100000,-0.100000)"
fill="#000000" stroke="none">
<path d="M451 756 c-12 -15 -37 -115 -46 -187 l-6 -46 -53 -12 c-68 -15 -92
-32 -82 -57 7 -18 8 -18 21 -1 7 10 36 24 64 32 l50 13 6 -36 c3 -21 8 -50 10
-66 3 -18 -2 -40 -14 -60 -26 -41 -99 -111 -107 -103 -11 10 -34 -13 -34 -34
0 -38 39 -19 104 52 47 51 66 66 66 52 0 -31 49 -121 82 -148 51 -43 115 -30
138 29 18 49 -10 65 -32 18 -20 -42 -60 -42 -92 1 -32 42 -56 107 -57 161 -2
41 27 135 45 148 5 3 47 12 93 18 61 9 83 16 83 27 0 11 -8 13 -27 9 -16 -3
-48 -8 -73 -11 -25 -4 -53 -9 -62 -11 -16 -5 -18 3 -18 76 0 78 -18 150 -38
150 -5 0 -15 -6 -21 -14z m34 -173 c-5 -39 -11 -53 -22 -53 -14 0 -15 11 -10
78 3 42 9 86 13 97 13 32 27 -58 19 -122z m-16 -90 c0 -10 -4 -27 -9 -38 -7
-16 -9 -13 -9 18 -1 20 4 37 9 37 6 0 10 -8 9 -17z"/>
</g>
</svg>
