<?xml version="1.0" standalone="no"?>
<!DOCTYPE svg PUBLIC "-//W3C//DTD SVG 20010904//EN"
 "http://www.w3.org/TR/2001/REC-SVG-20010904/DTD/svg10.dtd">
<svg version="1.0" xmlns="http://www.w3.org/2000/svg"
 width="100.000000pt" height="100.000000pt" viewBox="0 0 100.000000 100.000000"
 preserveAspectRatio="xMidYMid meet">
<metadata>
Created by potrace 1.16, written by Peter Selinger 2001-2019
</metadata>
<g transform="translate(0.000000,100.000000) scale(0.100000,-0.100000)"
fill="#000000" stroke="none">
<path d="M390 819 c-9 -15 -8 -24 0 -34 8 -10 10 -36 5 -84 l-7 -69 -60 -12
c-59 -13 -93 -33 -83 -50 3 -5 18 -2 33 5 15 7 44 17 65 20 36 7 38 6 32 -16
-3 -13 -10 -58 -15 -99 -11 -93 0 -124 47 -128 27 -3 41 5 80 42 38 35 45 47
36 57 -10 9 -21 4 -53 -24 -64 -58 -74 -52 -66 41 12 142 6 135 127 149 121
13 109 10 109 24 0 10 -148 5 -191 -7 -13 -4 -15 7 -11 79 6 108 -19 161 -48
106z"/>
</g>
</svg>
