<?xml version="1.0" standalone="no"?>
<!DOCTYPE svg PUBLIC "-//W3C//DTD SVG 20010904//EN"
 "http://www.w3.org/TR/2001/REC-SVG-20010904/DTD/svg10.dtd">
<svg version="1.0" xmlns="http://www.w3.org/2000/svg"
 width="100.000000pt" height="100.000000pt" viewBox="0 0 100.000000 100.000000"
 preserveAspectRatio="xMidYMid meet">
<metadata>
Created by potrace 1.16, written by Peter Selinger 2001-2019
</metadata>
<g transform="translate(0.000000,100.000000) scale(0.100000,-0.100000)"
fill="#000000" stroke="none">
<path d="M534 853 c-35 -35 -58 -106 -62 -195 l-4 -86 -52 -7 c-28 -4 -59 -11
-68 -17 -22 -11 -23 -34 -2 -42 22 -8 24 -8 24 8 0 15 30 26 73 26 26 0 27 -2
27 -53 0 -43 -6 -63 -31 -101 -17 -26 -47 -59 -66 -73 -34 -26 -36 -27 -49 -8
-10 14 -17 16 -25 8 -20 -20 -6 -48 25 -51 24 -3 39 7 91 60 l62 64 17 -51
c19 -62 67 -139 98 -159 64 -41 158 -12 158 48 0 38 -19 41 -31 7 -10 -27 -15
-31 -50 -31 -26 0 -46 7 -60 21 -32 32 -77 136 -84 193 -6 43 -3 58 19 97 25
44 29 47 80 53 30 3 66 10 80 16 32 12 35 35 4 26 -13 -3 -47 -9 -77 -13 -54
-6 -54 -6 -47 18 17 59 28 205 17 232 -12 31 -41 36 -67 10z m46 -74 c0 -33
-7 -91 -16 -130 -13 -56 -19 -69 -35 -69 -16 0 -19 7 -19 54 0 101 31 206 60
206 6 0 10 -27 10 -61z m-50 -238 c0 -6 -4 -13 -10 -16 -5 -3 -10 1 -10 9 0 9
5 16 10 16 6 0 10 -4 10 -9z"/>
</g>
</svg>
