<?xml version="1.0" standalone="no"?>
<!DOCTYPE svg PUBLIC "-//W3C//DTD SVG 20010904//EN"
 "http://www.w3.org/TR/2001/REC-SVG-20010904/DTD/svg10.dtd">
<svg version="1.0" xmlns="http://www.w3.org/2000/svg"
 width="100.000000pt" height="100.000000pt" viewBox="0 0 100.000000 100.000000"
 preserveAspectRatio="xMidYMid meet">
<metadata>
Created by potrace 1.16, written by Peter Selinger 2001-2019
</metadata>
<g transform="translate(0.000000,100.000000) scale(0.100000,-0.100000)"
fill="#000000" stroke="none">
<path d="M471 802 c-5 -10 -8 -27 -6 -38 2 -10 6 -44 9 -75 l4 -57 -69 -6
c-49 -5 -69 -11 -69 -21 0 -11 14 -13 70 -8 l69 6 -1 -99 c-2 -185 30 -204
157 -92 54 49 69 78 40 78 -8 0 -15 -5 -15 -10 0 -6 -28 -31 -62 -56 -75 -55
-76 -54 -77 89 l-1 97 53 2 c28 1 69 2 89 3 21 0 37 5 35 10 -1 6 -39 10 -90
10 l-87 0 -1 65 c-1 74 -9 112 -26 117 -6 2 -16 -4 -22 -15z"/>
</g>
</svg>
