<?xml version="1.0" standalone="no"?>
<!DOCTYPE svg PUBLIC "-//W3C//DTD SVG 20010904//EN"
 "http://www.w3.org/TR/2001/REC-SVG-20010904/DTD/svg10.dtd">
<svg version="1.0" xmlns="http://www.w3.org/2000/svg"
 width="100.000000pt" height="100.000000pt" viewBox="0 0 100.000000 100.000000"
 preserveAspectRatio="xMidYMid meet">
<metadata>
Created by potrace 1.16, written by Peter Selinger 2001-2019
</metadata>
<g transform="translate(0.000000,100.000000) scale(0.100000,-0.100000)"
fill="#000000" stroke="none">
<path d="M425 836 c-15 -30 -32 -88 -39 -128 l-12 -73 -73 -7 c-100 -9 -123
-15 -119 -36 4 -20 54 -50 65 -38 4 4 0 13 -9 20 -27 20 -11 26 64 26 l68 0 0
-107 c0 -60 3 -118 6 -131 5 -18 -4 -33 -48 -77 -58 -58 -78 -67 -78 -37 0 26
-11 34 -27 21 -17 -15 -17 -44 2 -59 24 -20 63 -3 116 50 28 29 51 44 53 37
12 -39 38 -104 49 -118 7 -9 30 -28 51 -43 53 -36 105 -35 146 2 32 28 57 99
40 116 -13 13 -30 -3 -30 -30 0 -31 -42 -74 -72 -74 -59 0 -110 60 -137 162
-12 43 -11 51 14 115 15 37 30 91 34 118 l6 50 65 3 c82 3 112 10 108 24 -3 7
-33 10 -86 9 l-82 -2 0 115 c0 63 -3 121 -6 130 -13 33 -42 17 -69 -38z m54
-98 c1 -93 -4 -108 -36 -108 -25 0 -26 1 -19 58 4 31 14 81 23 110 21 67 31
49 32 -60z m-13 -180 c-9 -60 -36 -138 -47 -138 -5 0 -9 41 -9 90 l0 90 31 0
c31 0 32 0 25 -42z"/>
</g>
</svg>
