<?xml version="1.0" standalone="no"?>
<!DOCTYPE svg PUBLIC "-//W3C//DTD SVG 20010904//EN"
 "http://www.w3.org/TR/2001/REC-SVG-20010904/DTD/svg10.dtd">
<svg version="1.0" xmlns="http://www.w3.org/2000/svg"
 width="100.000000pt" height="100.000000pt" viewBox="0 0 100.000000 100.000000"
 preserveAspectRatio="xMidYMid meet">
<metadata>
Created by potrace 1.16, written by Peter Selinger 2001-2019
</metadata>
<g transform="translate(0.000000,100.000000) scale(0.100000,-0.100000)"
fill="#000000" stroke="none">
<path d="M546 638 c-3 -13 -6 -46 -6 -74 0 -55 -18 -80 -90 -123 -76 -45 -110
-19 -110 86 0 75 -5 89 -27 72 -20 -17 -18 -148 3 -177 37 -54 110 -48 182 14
l42 36 0 -27 c0 -33 46 -125 64 -125 24 0 26 13 4 49 -29 46 -40 127 -22 163
27 52 18 128 -16 128 -10 0 -20 -10 -24 -22z"/>
</g>
</svg>
