<?xml version="1.0" standalone="no"?>
<!DOCTYPE svg PUBLIC "-//W3C//DTD SVG 20010904//EN"
 "http://www.w3.org/TR/2001/REC-SVG-20010904/DTD/svg10.dtd">
<svg version="1.0" xmlns="http://www.w3.org/2000/svg"
 width="100.000000pt" height="100.000000pt" viewBox="0 0 100.000000 100.000000"
 preserveAspectRatio="xMidYMid meet">
<metadata>
Created by potrace 1.16, written by Peter Selinger 2001-2019
</metadata>
<g transform="translate(0.000000,100.000000) scale(0.100000,-0.100000)"
fill="#000000" stroke="none">
<path d="M315 701 c-3 -6 -8 -66 -11 -133 -3 -68 -7 -133 -10 -144 -2 -12 -24
-49 -50 -83 -43 -58 -74 -75 -89 -51 -11 18 -26 10 -23 -12 2 -18 11 -24 34
-26 28 -3 39 5 88 60 50 57 56 60 56 37 0 -45 31 -131 55 -155 41 -41 80 -33
139 29 28 29 62 74 75 101 l24 50 29 -59 c43 -90 85 -125 148 -125 36 0 109
35 117 56 10 26 -6 28 -46 6 -80 -45 -130 -22 -182 84 -35 70 -36 81 -24 214
6 69 4 89 -8 105 -15 19 -16 19 -32 -20 -11 -25 -18 -73 -19 -136 -3 -113 -21
-159 -93 -239 -36 -40 -51 -50 -72 -48 -22 2 -30 13 -50 63 -22 55 -24 75 -25
244 -1 130 -4 185 -13 188 -6 2 -14 -1 -18 -6z"/>
</g>
</svg>
