<?xml version="1.0" standalone="no"?>
<!DOCTYPE svg PUBLIC "-//W3C//DTD SVG 20010904//EN"
 "http://www.w3.org/TR/2001/REC-SVG-20010904/DTD/svg10.dtd">
<svg version="1.0" xmlns="http://www.w3.org/2000/svg"
 width="100.000000pt" height="100.000000pt" viewBox="0 0 100.000000 100.000000"
 preserveAspectRatio="xMidYMid meet">
<metadata>
Created by potrace 1.16, written by Peter Selinger 2001-2019
</metadata>
<g transform="translate(0.000000,100.000000) scale(0.100000,-0.100000)"
fill="#000000" stroke="none">
<path d="M512 578 c-7 -7 -12 -40 -12 -78 0 -59 -3 -69 -27 -93 -32 -30 -91
-57 -126 -57 -46 0 -58 29 -55 128 1 50 -1 94 -5 98 -17 17 -30 -20 -34 -103
-5 -85 -4 -90 22 -121 21 -25 34 -32 63 -32 38 0 134 39 146 59 12 19 23 12
29 -19 8 -36 40 -70 67 -70 27 0 25 12 -5 40 -33 31 -40 77 -22 131 17 50 13
91 -12 113 -13 12 -20 13 -29 4z m25 -70 c-3 -8 -6 -5 -6 6 -1 11 2 17 5 13 3
-3 4 -12 1 -19z"/>
</g>
</svg>
