<?xml version="1.0" standalone="no"?>
<!DOCTYPE svg PUBLIC "-//W3C//DTD SVG 20010904//EN"
 "http://www.w3.org/TR/2001/REC-SVG-20010904/DTD/svg10.dtd">
<svg version="1.0" xmlns="http://www.w3.org/2000/svg"
 width="100.000000pt" height="100.000000pt" viewBox="0 0 100.000000 100.000000"
 preserveAspectRatio="xMidYMid meet">
<metadata>
Created by potrace 1.16, written by Peter Selinger 2001-2019
</metadata>
<g transform="translate(0.000000,100.000000) scale(0.100000,-0.100000)"
fill="#000000" stroke="none">
<path d="M377 663 c-10 -16 -27 -165 -27 -234 0 -78 -18 -124 -76 -196 -20
-24 -30 -44 -24 -48 12 -7 64 47 88 90 l16 30 7 -42 c26 -144 101 -188 174
-101 38 45 82 139 96 207 l12 56 11 -45 c16 -61 52 -118 90 -141 38 -23 110
-25 160 -4 40 17 52 52 14 40 -57 -17 -125 -17 -152 0 -42 28 -76 105 -88 203
-6 48 -15 91 -20 96 -16 19 -30 -12 -39 -90 -14 -116 -38 -190 -81 -255 -38
-56 -67 -77 -88 -64 -35 22 -65 192 -49 279 13 71 8 218 -8 223 -6 2 -13 0
-16 -4z"/>
</g>
</svg>
