<?xml version="1.0" standalone="no"?>
<!DOCTYPE svg PUBLIC "-//W3C//DTD SVG 20010904//EN"
 "http://www.w3.org/TR/2001/REC-SVG-20010904/DTD/svg10.dtd">
<svg version="1.0" xmlns="http://www.w3.org/2000/svg"
 width="100.000000pt" height="100.000000pt" viewBox="0 0 100.000000 100.000000"
 preserveAspectRatio="xMidYMid meet">
<metadata>
Created by potrace 1.16, written by Peter Selinger 2001-2019
</metadata>
<g transform="translate(0.000000,100.000000) scale(0.100000,-0.100000)"
fill="#000000" stroke="none">
<path d="M376 671 c-13 -21 -26 -157 -20 -219 l6 -67 -51 -72 c-28 -40 -61
-77 -72 -84 -15 -8 -19 -8 -15 0 14 22 -5 33 -25 15 -26 -24 -25 -64 1 -64 24
0 97 64 131 115 13 19 27 35 32 35 4 0 7 -24 7 -52 1 -105 39 -168 102 -168
33 0 46 7 88 49 46 46 94 125 110 181 l7 25 12 -30 c34 -86 142 -142 229 -119
12 4 22 13 22 20 0 10 -14 14 -50 14 -125 0 -188 92 -199 290 -5 83 -9 105
-21 105 -21 0 -34 -87 -21 -156 17 -101 -22 -213 -104 -295 -48 -48 -83 -56
-102 -25 -28 44 -42 230 -28 362 9 87 1 149 -20 149 -8 0 -16 -4 -19 -9z"/>
</g>
</svg>
