<?xml version="1.0" standalone="no"?>
<!DOCTYPE svg PUBLIC "-//W3C//DTD SVG 20010904//EN"
 "http://www.w3.org/TR/2001/REC-SVG-20010904/DTD/svg10.dtd">
<svg version="1.0" xmlns="http://www.w3.org/2000/svg"
 width="100.000000pt" height="100.000000pt" viewBox="0 0 100.000000 100.000000"
 preserveAspectRatio="xMidYMid meet">
<metadata>
Created by potrace 1.16, written by Peter Selinger 2001-2019
</metadata>
<g transform="translate(0.000000,100.000000) scale(0.100000,-0.100000)"
fill="#000000" stroke="none">
<path d="M540 589 c-6 -11 -14 -48 -18 -82 -7 -58 -9 -63 -50 -91 -54 -38
-106 -41 -134 -6 -16 19 -19 36 -16 80 2 30 8 63 12 73 6 11 4 17 -5 17 -33
-1 -43 -19 -47 -87 -3 -58 -1 -72 18 -95 42 -55 124 -56 193 -4 l33 26 23 -31
c24 -32 85 -64 101 -54 20 12 9 32 -21 41 -18 5 -41 21 -52 36 l-20 27 22 50
c24 56 27 91 9 109 -18 18 -36 15 -48 -9z m27 -56 c-3 -10 -5 -4 -5 12 0 17 2
24 5 18 2 -7 2 -21 0 -30z"/>
</g>
</svg>
