<?xml version="1.0" standalone="no"?>
<!DOCTYPE svg PUBLIC "-//W3C//DTD SVG 20010904//EN"
 "http://www.w3.org/TR/2001/REC-SVG-20010904/DTD/svg10.dtd">
<svg version="1.0" xmlns="http://www.w3.org/2000/svg"
 width="100.000000pt" height="100.000000pt" viewBox="0 0 100.000000 100.000000"
 preserveAspectRatio="xMidYMid meet">
<metadata>
Created by potrace 1.16, written by Peter Selinger 2001-2019
</metadata>
<g transform="translate(0.000000,100.000000) scale(0.100000,-0.100000)"
fill="#000000" stroke="none">
<path d="M630 621 c-14 -26 -13 -77 2 -101 28 -44 -38 -221 -99 -268 -33 -24
-34 -24 -54 -6 -12 11 -48 73 -81 139 -70 139 -113 205 -133 205 -23 0 -18
-24 16 -82 17 -29 57 -105 90 -169 75 -151 106 -174 171 -127 41 28 85 101
104 168 25 89 22 85 43 66 24 -22 86 -18 86 4 0 9 -8 14 -21 13 -12 -1 -33 10
-49 27 -23 24 -28 38 -27 70 4 65 -25 102 -48 61z"/>
</g>
</svg>
