<?xml version="1.0" standalone="no"?>
<!DOCTYPE svg PUBLIC "-//W3C//DTD SVG 20010904//EN"
 "http://www.w3.org/TR/2001/REC-SVG-20010904/DTD/svg10.dtd">
<svg version="1.0" xmlns="http://www.w3.org/2000/svg"
 width="100.000000pt" height="100.000000pt" viewBox="0 0 100.000000 100.000000"
 preserveAspectRatio="xMidYMid meet">
<metadata>
Created by potrace 1.16, written by Peter Selinger 2001-2019
</metadata>
<g transform="translate(0.000000,100.000000) scale(0.100000,-0.100000)"
fill="#000000" stroke="none">
<path d="M606 638 c-3 -7 -7 -34 -10 -59 -7 -64 -37 -128 -80 -174 -44 -46
-50 -42 -66 55 -14 82 -46 141 -84 155 -24 8 -31 6 -47 -14 -22 -26 -27 -95
-6 -89 6 3 14 20 17 38 3 18 10 35 16 37 18 6 53 -70 64 -142 19 -122 55 -145
120 -76 53 55 92 142 98 218 3 44 1 63 -7 63 -6 0 -13 -6 -15 -12z"/>
</g>
</svg>
