<?xml version="1.0" standalone="no"?>
<!DOCTYPE svg PUBLIC "-//W3C//DTD SVG 20010904//EN"
 "http://www.w3.org/TR/2001/REC-SVG-20010904/DTD/svg10.dtd">
<svg version="1.0" xmlns="http://www.w3.org/2000/svg"
 width="100.000000pt" height="100.000000pt" viewBox="0 0 100.000000 100.000000"
 preserveAspectRatio="xMidYMid meet">
<metadata>
Created by potrace 1.16, written by Peter Selinger 2001-2019
</metadata>
<g transform="translate(0.000000,100.000000) scale(0.100000,-0.100000)"
fill="#000000" stroke="none">
<path d="M588 703 c-40 -44 -66 -95 -103 -196 -47 -133 -63 -161 -80 -147 -8
7 -23 36 -35 66 -41 111 -85 174 -110 159 -7 -4 -4 -17 9 -38 10 -18 34 -68
51 -112 37 -91 63 -125 97 -125 28 0 48 37 92 168 35 106 60 157 96 200 43 51
28 73 -17 25z"/>
</g>
</svg>
