<?xml version="1.0" standalone="no"?>
<!DOCTYPE svg PUBLIC "-//W3C//DTD SVG 20010904//EN"
 "http://www.w3.org/TR/2001/REC-SVG-20010904/DTD/svg10.dtd">
<svg version="1.0" xmlns="http://www.w3.org/2000/svg"
 width="100.000000pt" height="100.000000pt" viewBox="0 0 100.000000 100.000000"
 preserveAspectRatio="xMidYMid meet">
<metadata>
Created by potrace 1.16, written by Peter Selinger 2001-2019
</metadata>
<g transform="translate(0.000000,100.000000) scale(0.100000,-0.100000)"
fill="#000000" stroke="none">
<path d="M659 688 c-9 -16 -9 -37 1 -88 12 -63 11 -69 -13 -128 -53 -132 -140
-242 -190 -242 -35 0 -87 58 -136 152 -45 85 -118 195 -144 216 -11 10 -17 9
-25 -1 -8 -9 3 -34 44 -97 31 -47 74 -120 96 -163 51 -97 105 -147 160 -147
33 0 46 7 86 48 55 55 116 155 139 229 l16 52 34 -29 c19 -17 41 -30 49 -30
25 0 54 20 54 36 0 12 -7 14 -29 9 -25 -5 -33 -1 -60 32 -26 32 -31 46 -31 93
0 73 -27 104 -51 58z"/>
</g>
</svg>
