<?xml version="1.0" standalone="no"?>
<!DOCTYPE svg PUBLIC "-//W3C//DTD SVG 20010904//EN"
 "http://www.w3.org/TR/2001/REC-SVG-20010904/DTD/svg10.dtd">
<svg version="1.0" xmlns="http://www.w3.org/2000/svg"
 width="100.000000pt" height="100.000000pt" viewBox="0 0 100.000000 100.000000"
 preserveAspectRatio="xMidYMid meet">
<metadata>
Created by potrace 1.16, written by Peter Selinger 2001-2019
</metadata>
<g transform="translate(0.000000,100.000000) scale(0.100000,-0.100000)"
fill="#000000" stroke="none">
<path d="M634 542 c1 -49 -4 -66 -32 -109 -36 -55 -75 -88 -97 -79 -8 3 -29
38 -48 78 -20 44 -48 86 -71 106 -41 36 -49 38 -66 17 -10 -12 -8 -16 13 -24
30 -12 55 -46 91 -126 35 -76 52 -95 89 -95 54 0 139 109 153 197 6 38 -8 93
-24 93 -5 0 -8 -26 -8 -58z"/>
</g>
</svg>
