<?xml version="1.0" standalone="no"?>
<!DOCTYPE svg PUBLIC "-//W3C//DTD SVG 20010904//EN"
 "http://www.w3.org/TR/2001/REC-SVG-20010904/DTD/svg10.dtd">
<svg version="1.0" xmlns="http://www.w3.org/2000/svg"
 width="100.000000pt" height="100.000000pt" viewBox="0 0 100.000000 100.000000"
 preserveAspectRatio="xMidYMid meet">
<metadata>
Created by potrace 1.16, written by Peter Selinger 2001-2019
</metadata>
<g transform="translate(0.000000,100.000000) scale(0.100000,-0.100000)"
fill="#000000" stroke="none">
<path d="M636 644 c-19 -18 -21 -53 -5 -87 10 -21 5 -37 -36 -116 -26 -51 -66
-112 -89 -138 l-42 -46 -31 49 c-17 27 -48 80 -68 118 -21 38 -48 80 -60 94
-27 31 -48 22 -34 -14 16 -45 127 -238 149 -262 50 -53 107 -2 197 175 l47 91
34 -29 c36 -32 57 -37 65 -15 3 7 -13 28 -38 49 -41 34 -42 38 -38 81 5 37 2
46 -15 55 -16 9 -24 8 -36 -5z"/>
</g>
</svg>
