<?xml version="1.0" standalone="no"?>
<!DOCTYPE svg PUBLIC "-//W3C//DTD SVG 20010904//EN"
 "http://www.w3.org/TR/2001/REC-SVG-20010904/DTD/svg10.dtd">
<svg version="1.0" xmlns="http://www.w3.org/2000/svg"
 width="100.000000pt" height="100.000000pt" viewBox="0 0 100.000000 100.000000"
 preserveAspectRatio="xMidYMid meet">
<metadata>
Created by potrace 1.16, written by Peter Selinger 2001-2019
</metadata>
<g transform="translate(0.000000,100.000000) scale(0.100000,-0.100000)"
fill="#000000" stroke="none">
<path d="M625 646 c-9 -13 -18 -40 -22 -59 -4 -29 -1 -40 19 -60 13 -13 32
-28 43 -34 17 -10 18 -15 6 -66 -20 -90 -121 -227 -168 -227 -8 0 -30 15 -48
33 -26 26 -36 48 -50 112 -9 44 -19 86 -21 93 -7 23 -23 3 -30 -36 -12 -64
-94 -199 -114 -187 -14 9 -28 66 -51 205 -24 152 -27 160 -45 160 -46 0 31
-407 78 -411 41 -4 61 15 114 108 l31 54 12 -46 c7 -26 26 -62 45 -83 29 -31
41 -37 75 -37 31 0 47 7 71 30 52 50 103 136 125 210 l20 70 50 0 c38 0 50 4
50 15 0 11 -14 16 -50 20 l-49 5 -13 65 c-17 86 -48 112 -78 66z m51 -77 l6
-44 -22 22 c-19 18 -21 27 -15 59 8 46 21 31 31 -37z"/>
</g>
</svg>
