<?xml version="1.0" standalone="no"?>
<!DOCTYPE svg PUBLIC "-//W3C//DTD SVG 20010904//EN"
 "http://www.w3.org/TR/2001/REC-SVG-20010904/DTD/svg10.dtd">
<svg version="1.0" xmlns="http://www.w3.org/2000/svg"
 width="100.000000pt" height="100.000000pt" viewBox="0 0 100.000000 100.000000"
 preserveAspectRatio="xMidYMid meet">
<metadata>
Created by potrace 1.16, written by Peter Selinger 2001-2019
</metadata>
<g transform="translate(0.000000,100.000000) scale(0.100000,-0.100000)"
fill="#000000" stroke="none">
<path d="M580 681 c0 -6 15 -17 33 -24 17 -8 41 -24 52 -36 44 -50 7 -161 -68
-206 -81 -47 -122 -29 -157 73 -13 34 -28 62 -36 62 -7 0 -20 -20 -30 -45 -23
-63 -71 -135 -87 -135 -10 0 -16 23 -20 89 -7 99 -13 121 -32 121 -19 0 -28
-51 -15 -84 5 -15 10 -52 10 -82 0 -54 22 -94 51 -94 18 0 69 60 96 114 l26
50 16 -43 c31 -84 102 -106 186 -56 63 36 98 92 103 165 4 54 2 60 -29 94 -34
36 -99 61 -99 37z"/>
</g>
</svg>
