<?xml version="1.0" standalone="no"?>
<!DOCTYPE svg PUBLIC "-//W3C//DTD SVG 20010904//EN"
 "http://www.w3.org/TR/2001/REC-SVG-20010904/DTD/svg10.dtd">
<svg version="1.0" xmlns="http://www.w3.org/2000/svg"
 width="100.000000pt" height="100.000000pt" viewBox="0 0 100.000000 100.000000"
 preserveAspectRatio="xMidYMid meet">
<metadata>
Created by potrace 1.16, written by Peter Selinger 2001-2019
</metadata>
<g transform="translate(0.000000,100.000000) scale(0.100000,-0.100000)"
fill="#000000" stroke="none">
<path d="M686 658 c-3 -7 -7 -39 -9 -71 -9 -91 -50 -187 -81 -187 -6 0 -36 41
-66 91 -84 139 -95 138 -126 -13 -10 -49 -21 -88 -24 -88 -3 0 -16 21 -30 47
-44 82 -150 184 -150 144 0 -5 16 -29 37 -53 20 -23 56 -74 80 -111 70 -109
86 -104 114 34 11 51 21 94 22 96 2 1 25 -36 52 -83 28 -51 57 -90 72 -97 37
-17 73 17 101 94 27 74 42 209 23 209 -6 0 -13 -6 -15 -12z"/>
</g>
</svg>
