<?xml version="1.0" standalone="no"?>
<!DOCTYPE svg PUBLIC "-//W3C//DTD SVG 20010904//EN"
 "http://www.w3.org/TR/2001/REC-SVG-20010904/DTD/svg10.dtd">
<svg version="1.0" xmlns="http://www.w3.org/2000/svg"
 width="100.000000pt" height="100.000000pt" viewBox="0 0 100.000000 100.000000"
 preserveAspectRatio="xMidYMid meet">
<metadata>
Created by potrace 1.16, written by Peter Selinger 2001-2019
</metadata>
<g transform="translate(0.000000,100.000000) scale(0.100000,-0.100000)"
fill="#000000" stroke="none">
<path d="M527 609 c-30 -17 -11 -26 47 -21 78 6 106 -13 106 -72 0 -103 -137
-200 -194 -137 -13 14 -17 33 -15 73 3 43 0 53 -14 56 -13 3 -17 -4 -17 -26 0
-51 -88 -152 -133 -152 -19 0 -20 4 -14 105 6 90 5 107 -9 112 -8 3 -17 3 -19
1 -3 -3 -8 -53 -12 -111 -5 -95 -4 -109 12 -127 10 -11 27 -20 38 -20 28 0 83
36 108 72 l22 30 21 -26 c43 -52 100 -53 176 -2 63 42 100 150 70 207 -23 42
-127 65 -173 38z"/>
</g>
</svg>
