<?xml version="1.0" standalone="no"?>
<!DOCTYPE svg PUBLIC "-//W3C//DTD SVG 20010904//EN"
 "http://www.w3.org/TR/2001/REC-SVG-20010904/DTD/svg10.dtd">
<svg version="1.0" xmlns="http://www.w3.org/2000/svg"
 width="100.000000pt" height="100.000000pt" viewBox="0 0 100.000000 100.000000"
 preserveAspectRatio="xMidYMid meet">
<metadata>
Created by potrace 1.16, written by Peter Selinger 2001-2019
</metadata>
<g transform="translate(0.000000,100.000000) scale(0.100000,-0.100000)"
fill="#000000" stroke="none">
<path d="M627 613 c-14 -13 -6 -50 23 -111 34 -72 37 -106 15 -179 -11 -36
-28 -62 -60 -92 -24 -22 -49 -41 -54 -41 -40 0 -65 38 -76 118 -8 59 -29 71
-40 22 -9 -40 -49 -87 -104 -122 -58 -36 -77 -35 -101 4 -23 39 -26 106 -9
240 9 67 9 92 0 101 -20 20 -31 -6 -47 -109 -30 -194 3 -303 92 -304 33 0 143
72 162 106 8 15 13 10 30 -29 37 -84 95 -87 173 -9 45 45 79 120 79 173 0 17
3 17 35 3 35 -14 107 -19 118 -7 13 13 -16 33 -48 33 -57 0 -97 37 -122 114
-27 84 -46 110 -66 89z"/>
</g>
</svg>
