<?xml version="1.0" standalone="no"?>
<!DOCTYPE svg PUBLIC "-//W3C//DTD SVG 20010904//EN"
 "http://www.w3.org/TR/2001/REC-SVG-20010904/DTD/svg10.dtd">
<svg version="1.0" xmlns="http://www.w3.org/2000/svg"
 width="100.000000pt" height="100.000000pt" viewBox="0 0 100.000000 100.000000"
 preserveAspectRatio="xMidYMid meet">
<metadata>
Created by potrace 1.16, written by Peter Selinger 2001-2019
</metadata>
<g transform="translate(0.000000,100.000000) scale(0.100000,-0.100000)"
fill="#000000" stroke="none">
<path d="M575 640 c-22 -16 -59 -51 -82 -76 l-42 -47 -48 35 c-70 52 -156 98
-181 98 -39 0 -26 -36 29 -75 35 -27 53 -35 61 -27 14 14 121 -55 111 -72 -4
-6 -29 -40 -56 -76 -63 -82 -120 -199 -115 -237 4 -38 30 -36 38 2 10 47 67
151 123 226 l51 68 45 -38 c72 -59 185 -138 208 -145 12 -4 25 -1 32 8 15 18
6 36 -16 36 -16 0 -209 137 -232 163 -10 13 -1 27 50 82 51 55 67 65 86 60 29
-7 32 19 4 35 -25 13 -19 14 -66 -20z"/>
</g>
</svg>
