<?xml version="1.0" standalone="no"?>
<!DOCTYPE svg PUBLIC "-//W3C//DTD SVG 20010904//EN"
 "http://www.w3.org/TR/2001/REC-SVG-20010904/DTD/svg10.dtd">
<svg version="1.0" xmlns="http://www.w3.org/2000/svg"
 width="100.000000pt" height="100.000000pt" viewBox="0 0 100.000000 100.000000"
 preserveAspectRatio="xMidYMid meet">
<metadata>
Created by potrace 1.16, written by Peter Selinger 2001-2019
</metadata>
<g transform="translate(0.000000,100.000000) scale(0.100000,-0.100000)"
fill="#000000" stroke="none">
<path d="M304 589 c-3 -6 -2 -14 3 -18 58 -37 123 -86 123 -92 0 -3 -12 -15
-27 -24 -82 -54 -141 -135 -98 -135 8 0 15 4 15 9 0 14 52 62 100 93 l44 28
68 -67 c52 -51 71 -64 80 -55 8 8 1 22 -32 59 -24 26 -52 56 -64 65 -11 9 -19
18 -16 21 14 11 99 67 103 67 3 0 7 -10 11 -22 4 -17 8 -20 17 -11 14 14 4 59
-15 66 -8 3 -44 -12 -81 -34 l-66 -40 -47 34 c-68 50 -109 69 -118 56z"/>
</g>
</svg>
