<?xml version="1.0" standalone="no"?>
<!DOCTYPE svg PUBLIC "-//W3C//DTD SVG 20010904//EN"
 "http://www.w3.org/TR/2001/REC-SVG-20010904/DTD/svg10.dtd">
<svg version="1.0" xmlns="http://www.w3.org/2000/svg"
 width="100.000000pt" height="100.000000pt" viewBox="0 0 100.000000 100.000000"
 preserveAspectRatio="xMidYMid meet">
<metadata>
Created by potrace 1.16, written by Peter Selinger 2001-2019
</metadata>
<g transform="translate(0.000000,100.000000) scale(0.100000,-0.100000)"
fill="#000000" stroke="none">
<path d="M265 650 c-12 -20 59 -122 79 -114 6 2 33 -18 60 -45 l48 -49 -81
-86 c-149 -159 -196 -231 -171 -261 10 -12 16 -13 27 -4 7 7 11 14 9 17 -15
14 48 97 171 225 l75 79 32 -30 c52 -50 234 -164 277 -173 53 -12 81 2 77 39
-2 17 -10 28 -21 30 -15 3 -18 0 -12 -17 12 -40 -44 -19 -166 61 -92 60 -159
114 -159 129 0 15 122 139 137 139 16 0 14 31 -3 37 -15 5 -95 -60 -133 -108
l-33 -40 -93 90 c-94 91 -108 100 -120 81z"/>
</g>
</svg>
