<?xml version="1.0" standalone="no"?>
<!DOCTYPE svg PUBLIC "-//W3C//DTD SVG 20010904//EN"
 "http://www.w3.org/TR/2001/REC-SVG-20010904/DTD/svg10.dtd">
<svg version="1.0" xmlns="http://www.w3.org/2000/svg"
 width="100.000000pt" height="100.000000pt" viewBox="0 0 100.000000 100.000000"
 preserveAspectRatio="xMidYMid meet">
<metadata>
Created by potrace 1.16, written by Peter Selinger 2001-2019
</metadata>
<g transform="translate(0.000000,100.000000) scale(0.100000,-0.100000)"
fill="#000000" stroke="none">
<path d="M247 569 c-23 -14 -22 -33 3 -26 27 7 82 -11 115 -37 l27 -22 -65
-43 c-73 -47 -92 -65 -83 -80 4 -6 43 13 90 44 46 30 87 55 91 55 4 0 27 -18
51 -39 52 -46 109 -75 131 -67 12 5 13 9 3 21 -7 8 -18 15 -24 15 -6 0 -37 21
-70 46 l-59 46 54 34 c51 31 54 32 57 13 4 -22 25 -21 30 2 1 8 -4 23 -12 34
-15 20 -17 19 -86 -17 l-71 -38 -52 29 c-60 33 -105 44 -130 30z"/>
</g>
</svg>
