<?xml version="1.0" standalone="no"?>
<!DOCTYPE svg PUBLIC "-//W3C//DTD SVG 20010904//EN"
 "http://www.w3.org/TR/2001/REC-SVG-20010904/DTD/svg10.dtd">
<svg version="1.0" xmlns="http://www.w3.org/2000/svg"
 width="100.000000pt" height="100.000000pt" viewBox="0 0 100.000000 100.000000"
 preserveAspectRatio="xMidYMid meet">
<metadata>
Created by potrace 1.16, written by Peter Selinger 2001-2019
</metadata>
<g transform="translate(0.000000,100.000000) scale(0.100000,-0.100000)"
fill="#000000" stroke="none">
<path d="M254 599 c-3 -6 9 -27 28 -47 78 -85 78 -73 9 -140 -49 -48 -61 -66
-61 -91 0 -41 26 -42 35 -1 6 27 95 120 115 120 5 0 35 -29 67 -65 44 -49 62
-63 73 -56 11 8 2 23 -47 78 l-60 68 44 39 c55 48 79 84 66 97 -6 6 -32 -13
-72 -53 l-63 -63 -45 53 c-51 59 -78 78 -89 61z"/>
</g>
</svg>
