<?xml version="1.0" standalone="no"?>
<!DOCTYPE svg PUBLIC "-//W3C//DTD SVG 20010904//EN"
 "http://www.w3.org/TR/2001/REC-SVG-20010904/DTD/svg10.dtd">
<svg version="1.0" xmlns="http://www.w3.org/2000/svg"
 width="100.000000pt" height="100.000000pt" viewBox="0 0 100.000000 100.000000"
 preserveAspectRatio="xMidYMid meet">
<metadata>
Created by potrace 1.16, written by Peter Selinger 2001-2019
</metadata>
<g transform="translate(0.000000,100.000000) scale(0.100000,-0.100000)"
fill="#000000" stroke="none">
<path d="M656 622 c-59 -35 -95 -67 -146 -127 -37 -44 -76 -88 -86 -97 -18
-16 -19 -15 -16 35 4 73 -28 132 -91 171 -39 24 -53 28 -74 20 -28 -10 -52
-39 -41 -50 4 -3 14 1 23 10 21 21 24 21 68 -9 41 -28 62 -62 72 -118 10 -54
-39 -154 -115 -233 -60 -62 -70 -94 -31 -94 22 0 91 73 124 130 14 25 43 61
63 80 l36 35 -8 -45 c-12 -67 -7 -100 18 -127 42 -45 84 -56 209 -57 102 -1
120 1 138 18 24 22 28 56 7 56 -7 0 -16 -9 -19 -19 -7 -27 -69 -35 -166 -21
-100 15 -145 41 -149 88 -4 36 22 135 44 169 7 12 68 63 134 113 114 87 142
120 103 120 -10 0 -53 -22 -97 -48z"/>
</g>
</svg>
