<?xml version="1.0" standalone="no"?>
<!DOCTYPE svg PUBLIC "-//W3C//DTD SVG 20010904//EN"
 "http://www.w3.org/TR/2001/REC-SVG-20010904/DTD/svg10.dtd">
<svg version="1.0" xmlns="http://www.w3.org/2000/svg"
 width="100.000000pt" height="100.000000pt" viewBox="0 0 100.000000 100.000000"
 preserveAspectRatio="xMidYMid meet">
<metadata>
Created by potrace 1.16, written by Peter Selinger 2001-2019
</metadata>
<g transform="translate(0.000000,100.000000) scale(0.100000,-0.100000)"
fill="#000000" stroke="none">
<path d="M240 695 c-30 -37 25 -208 86 -268 80 -80 187 -81 249 -3 l26 31 -3
-54 -3 -55 -84 -18 c-137 -30 -231 -96 -231 -162 0 -44 22 -97 54 -131 32 -33
37 -35 100 -35 64 0 68 2 111 41 53 49 84 123 94 223 l6 69 55 21 c73 28 120
54 120 66 0 15 -23 12 -48 -6 -12 -8 -46 -23 -76 -33 l-53 -19 -7 82 c-3 44
-6 114 -6 154 0 54 -3 72 -14 72 -15 0 -26 -49 -26 -118 0 -49 -11 -75 -48
-114 -36 -40 -81 -45 -137 -18 -55 27 -86 70 -116 164 -18 54 -20 72 -11 87
10 15 8 20 -7 28 -14 8 -22 7 -31 -4z m356 -426 c-20 -147 -87 -239 -176 -239
-41 0 -85 43 -99 97 -23 86 28 134 186 172 43 10 82 19 87 20 5 1 6 -22 2 -50z"/>
</g>
</svg>
