<?xml version="1.0" standalone="no"?>
<!DOCTYPE svg PUBLIC "-//W3C//DTD SVG 20010904//EN"
 "http://www.w3.org/TR/2001/REC-SVG-20010904/DTD/svg10.dtd">
<svg version="1.0" xmlns="http://www.w3.org/2000/svg"
 width="100.000000pt" height="100.000000pt" viewBox="0 0 100.000000 100.000000"
 preserveAspectRatio="xMidYMid meet">
<metadata>
Created by potrace 1.16, written by Peter Selinger 2001-2019
</metadata>
<g transform="translate(0.000000,100.000000) scale(0.100000,-0.100000)"
fill="#000000" stroke="none">
<path d="M527 624 c-4 -4 -7 -52 -7 -106 0 -95 -1 -98 -22 -98 -15 0 -50 28
-105 85 -50 52 -90 85 -103 85 -11 0 -20 -2 -20 -3 0 -10 168 -176 187 -186
12 -6 31 -11 42 -11 20 0 21 -5 20 -97 0 -126 -9 -177 -32 -181 -10 -2 -21 6
-28 22 -12 26 -39 36 -39 16 0 -27 33 -70 57 -76 61 -16 82 35 82 204 1 104 4
127 20 150 30 43 32 63 8 132 -20 60 -41 82 -60 64z m52 -129 c1 -11 -4 -27
-9 -35 -7 -11 -10 -2 -10 32 0 25 -2 55 -5 65 -3 10 1 5 9 -12 8 -16 15 -39
15 -50z"/>
</g>
</svg>
