<?xml version="1.0" standalone="no"?>
<!DOCTYPE svg PUBLIC "-//W3C//DTD SVG 20010904//EN"
 "http://www.w3.org/TR/2001/REC-SVG-20010904/DTD/svg10.dtd">
<svg version="1.0" xmlns="http://www.w3.org/2000/svg"
 width="100.000000pt" height="100.000000pt" viewBox="0 0 100.000000 100.000000"
 preserveAspectRatio="xMidYMid meet">
<metadata>
Created by potrace 1.16, written by Peter Selinger 2001-2019
</metadata>
<g transform="translate(0.000000,100.000000) scale(0.100000,-0.100000)"
fill="#000000" stroke="none">
<path d="M537 563 c-3 -5 -7 -30 -11 -58 -12 -87 -17 -105 -32 -105 -25 0 -87
36 -136 79 -47 42 -62 48 -73 31 -12 -20 156 -140 197 -140 10 0 18 -2 18 -5
0 -13 -71 -144 -81 -150 -6 -4 -48 -9 -92 -11 -58 -2 -82 -7 -82 -16 0 -9 24
-14 82 -16 112 -4 132 8 176 100 30 64 42 103 63 206 2 13 9 20 14 17 17 -11
21 15 5 45 -15 28 -38 39 -48 23z"/>
</g>
</svg>
