<?xml version="1.0" standalone="no"?>
<!DOCTYPE svg PUBLIC "-//W3C//DTD SVG 20010904//EN"
 "http://www.w3.org/TR/2001/REC-SVG-20010904/DTD/svg10.dtd">
<svg version="1.0" xmlns="http://www.w3.org/2000/svg"
 width="100.000000pt" height="100.000000pt" viewBox="0 0 100.000000 100.000000"
 preserveAspectRatio="xMidYMid meet">
<metadata>
Created by potrace 1.16, written by Peter Selinger 2001-2019
</metadata>
<g transform="translate(0.000000,100.000000) scale(0.100000,-0.100000)"
fill="#000000" stroke="none">
<path d="M236 703 c-7 -31 22 -153 54 -228 24 -56 25 -65 4 -65 -9 0 -31 -15
-50 -34 -28 -28 -34 -42 -34 -75 0 -78 63 -171 126 -187 43 -11 109 5 146 37
42 34 85 117 93 180 12 85 11 84 68 102 62 20 137 70 137 92 0 21 -6 19 -48
-15 -33 -26 -108 -60 -133 -60 -5 0 -9 33 -10 73 -1 98 -12 182 -23 182 -5 0
-16 -36 -23 -80 -22 -127 -72 -195 -144 -195 -34 0 -39 4 -57 43 -28 61 -44
114 -56 187 -8 47 -16 66 -28 68 -11 2 -18 -6 -22 -25z m304 -237 c0 -15 -7
-26 -20 -29 -19 -5 -20 -4 -3 24 21 35 23 36 23 5z m-6 -103 c-21 -151 -128
-247 -217 -196 -41 24 -77 87 -77 135 0 59 62 99 125 78 26 -9 39 -8 57 1 25
13 72 26 101 28 16 1 17 -5 11 -46z"/>
</g>
</svg>
