<?xml version="1.0" standalone="no"?>
<!DOCTYPE svg PUBLIC "-//W3C//DTD SVG 20010904//EN"
 "http://www.w3.org/TR/2001/REC-SVG-20010904/DTD/svg10.dtd">
<svg version="1.0" xmlns="http://www.w3.org/2000/svg"
 width="100.000000pt" height="100.000000pt" viewBox="0 0 100.000000 100.000000"
 preserveAspectRatio="xMidYMid meet">
<metadata>
Created by potrace 1.16, written by Peter Selinger 2001-2019
</metadata>
<g transform="translate(0.000000,100.000000) scale(0.100000,-0.100000)"
fill="#000000" stroke="none">
<path d="M120 685 c0 -13 11 -48 25 -77 13 -29 44 -101 68 -160 l44 -107 -23
-22 c-45 -43 -19 -165 51 -235 45 -45 113 -29 189 44 47 46 116 167 116 205 0
9 8 20 18 24 48 16 140 64 160 83 33 31 16 44 -21 16 -34 -26 -114 -65 -133
-66 -12 0 -2 109 15 153 6 16 11 57 11 93 0 49 -3 64 -15 64 -18 0 -32 -50
-47 -160 -10 -83 -12 -86 -60 -133 l-49 -48 -86 3 -86 3 -52 125 c-29 69 -62
146 -74 173 -24 51 -51 63 -51 22z m420 -355 c0 -21 -54 -121 -85 -158 -34
-39 -88 -72 -119 -72 -36 0 -96 96 -96 153 0 50 22 65 64 42 43 -23 104 -16
154 19 37 25 82 34 82 16z m-152 -7 c-10 -2 -26 -2 -35 0 -10 3 -2 5 17 5 19
0 27 -2 18 -5z"/>
</g>
</svg>
