<?xml version="1.0" standalone="no"?>
<!DOCTYPE svg PUBLIC "-//W3C//DTD SVG 20010904//EN"
 "http://www.w3.org/TR/2001/REC-SVG-20010904/DTD/svg10.dtd">
<svg version="1.0" xmlns="http://www.w3.org/2000/svg"
 width="100.000000pt" height="100.000000pt" viewBox="0 0 100.000000 100.000000"
 preserveAspectRatio="xMidYMid meet">
<metadata>
Created by potrace 1.16, written by Peter Selinger 2001-2019
</metadata>
<g transform="translate(0.000000,100.000000) scale(0.100000,-0.100000)"
fill="#000000" stroke="none">
<path d="M330 589 c0 -42 110 -177 175 -214 17 -10 17 -14 1 -87 -9 -41 -23
-84 -31 -94 -13 -19 -15 -18 -59 5 -25 13 -48 32 -51 42 -7 21 -35 26 -35 6 0
-38 77 -97 128 -97 44 0 66 34 88 134 14 64 23 88 37 92 32 10 39 50 23 137
-9 44 -20 85 -25 90 -13 13 -31 -32 -31 -73 0 -43 -20 -130 -30 -130 -15 0
-74 66 -126 140 -52 73 -64 83 -64 49z m251 -182 c-13 -13 -14 5 -3 54 l7 34
3 -39 c2 -21 -1 -43 -7 -49z"/>
</g>
</svg>
