<?xml version="1.0" standalone="no"?>
<!DOCTYPE svg PUBLIC "-//W3C//DTD SVG 20010904//EN"
 "http://www.w3.org/TR/2001/REC-SVG-20010904/DTD/svg10.dtd">
<svg version="1.0" xmlns="http://www.w3.org/2000/svg"
 width="100.000000pt" height="100.000000pt" viewBox="0 0 100.000000 100.000000"
 preserveAspectRatio="xMidYMid meet">
<metadata>
Created by potrace 1.16, written by Peter Selinger 2001-2019
</metadata>
<g transform="translate(0.000000,100.000000) scale(0.100000,-0.100000)"
fill="#000000" stroke="none">
<path d="M480 659 c-80 -5 -163 -6 -186 -3 -45 5 -99 -10 -89 -26 6 -10 306
-6 395 5 34 4 29 -1 -110 -143 -132 -134 -259 -283 -289 -339 -16 -31 -14 -58
8 -77 21 -19 31 -18 166 24 94 29 138 39 294 65 51 9 104 21 117 25 31 12 32
35 2 26 -13 -3 -70 -13 -128 -22 -58 -9 -167 -31 -243 -50 -162 -40 -187 -42
-180 -15 9 35 194 253 330 389 73 73 133 137 133 143 0 10 -7 10 -220 -2z"/>
</g>
</svg>
