<?xml version="1.0" standalone="no"?>
<!DOCTYPE svg PUBLIC "-//W3C//DTD SVG 20010904//EN"
 "http://www.w3.org/TR/2001/REC-SVG-20010904/DTD/svg10.dtd">
<svg version="1.0" xmlns="http://www.w3.org/2000/svg"
 width="100.000000pt" height="100.000000pt" viewBox="0 0 100.000000 100.000000"
 preserveAspectRatio="xMidYMid meet">
<metadata>
Created by potrace 1.16, written by Peter Selinger 2001-2019
</metadata>
<g transform="translate(0.000000,100.000000) scale(0.100000,-0.100000)"
fill="#000000" stroke="none">
<path d="M500 585 c-8 -2 -68 -9 -133 -15 -104 -11 -139 -21 -125 -36 3 -2 63
3 134 11 158 18 194 19 194 3 0 -7 -23 -42 -51 -78 -44 -57 -72 -82 -145 -126
-14 -9 -16 -15 -8 -24 9 -9 28 -7 80 8 38 11 115 30 172 43 98 21 144 40 131
53 -3 4 -55 -5 -115 -19 -180 -42 -164 -42 -128 -3 34 36 87 113 97 140 13 35
-37 56 -103 43z"/>
</g>
</svg>
