<?xml version="1.0" standalone="no"?>
<!DOCTYPE svg PUBLIC "-//W3C//DTD SVG 20010904//EN"
 "http://www.w3.org/TR/2001/REC-SVG-20010904/DTD/svg10.dtd">
<svg version="1.0" xmlns="http://www.w3.org/2000/svg"
 width="100.000000pt" height="100.000000pt" viewBox="0 0 100.000000 100.000000"
 preserveAspectRatio="xMidYMid meet">
<metadata>
Created by potrace 1.16, written by Peter Selinger 2001-2019
</metadata>
<g transform="translate(0.000000,100.000000) scale(0.100000,-0.100000)"
fill="#000000" stroke="none">
<path d="M356 627 c-42 -7 -71 -17 -74 -26 -4 -11 3 -12 29 -8 81 14 159 19
159 10 0 -23 -87 -142 -156 -212 -106 -108 -102 -116 46 -76 49 13 84 16 145
11 44 -3 94 -7 110 -9 53 -4 38 17 -22 31 -60 14 -219 12 -258 -4 -11 -4 6 21
38 56 80 86 129 162 130 202 2 32 1 33 -38 35 -22 0 -71 -4 -109 -10z"/>
</g>
</svg>
