<?xml version="1.0" standalone="no"?>
<!DOCTYPE svg PUBLIC "-//W3C//DTD SVG 20010904//EN"
 "http://www.w3.org/TR/2001/REC-SVG-20010904/DTD/svg10.dtd">
<svg version="1.0" xmlns="http://www.w3.org/2000/svg"
 width="100.000000pt" height="100.000000pt" viewBox="0 0 100.000000 100.000000"
 preserveAspectRatio="xMidYMid meet">
<metadata>
Created by potrace 1.16, written by Peter Selinger 2001-2019
</metadata>
<g transform="translate(0.000000,100.000000) scale(0.100000,-0.100000)"
fill="#000000" stroke="none">
<path d="M490 680 c-128 -34 -160 -48 -160 -76 0 -28 55 -63 73 -45 7 7 2 13
-15 20 -59 22 -39 38 91 71 44 11 89 20 101 20 18 0 19 -3 10 -20 -6 -11 -85
-96 -175 -190 -156 -161 -185 -200 -171 -235 9 -24 41 -18 124 24 90 45 200
81 248 81 24 0 34 5 34 15 0 33 -150 1 -284 -60 -43 -20 -81 -34 -83 -31 -3 2
56 67 129 143 202 208 238 259 206 291 -16 16 -39 15 -128 -8z"/>
</g>
</svg>
