<?xml version="1.0" standalone="no"?>
<!DOCTYPE svg PUBLIC "-//W3C//DTD SVG 20010904//EN"
 "http://www.w3.org/TR/2001/REC-SVG-20010904/DTD/svg10.dtd">
<svg version="1.0" xmlns="http://www.w3.org/2000/svg"
 width="100.000000pt" height="100.000000pt" viewBox="0 0 100.000000 100.000000"
 preserveAspectRatio="xMidYMid meet">
<metadata>
Created by potrace 1.16, written by Peter Selinger 2001-2019
</metadata>
<g transform="translate(0.000000,100.000000) scale(0.100000,-0.100000)"
fill="#000000" stroke="none">
<path d="M533 637 c-32 -29 -67 -57 -78 -61 -55 -20 -214 -46 -250 -41 -44 7
-84 -13 -70 -34 5 -9 22 -11 59 -6 55 7 179 32 210 41 32 10 9 -14 -69 -72
-111 -81 -188 -157 -219 -214 -26 -47 -29 -80 -8 -80 5 0 29 13 53 30 48 32
149 60 215 60 22 0 67 -9 99 -20 70 -24 115 -26 115 -5 0 10 -10 15 -28 15
-16 0 -55 9 -87 20 -32 11 -75 20 -96 20 -46 0 -172 -26 -200 -41 -59 -31 47
82 153 164 31 24 85 69 120 99 34 31 81 65 103 76 50 25 78 55 73 79 -6 35
-37 25 -95 -30z"/>
</g>
</svg>
