<?xml version="1.0" standalone="no"?>
<!DOCTYPE svg PUBLIC "-//W3C//DTD SVG 20010904//EN"
 "http://www.w3.org/TR/2001/REC-SVG-20010904/DTD/svg10.dtd">
<svg version="1.0" xmlns="http://www.w3.org/2000/svg"
 width="100.000000pt" height="100.000000pt" viewBox="0 0 100.000000 100.000000"
 preserveAspectRatio="xMidYMid meet">
<metadata>
Created by potrace 1.16, written by Peter Selinger 2001-2019
</metadata>
<g transform="translate(0.000000,100.000000) scale(0.100000,-0.100000)"
fill="#000000" stroke="none">
<path d="M480 643 c-19 -1 -63 -6 -97 -9 -77 -7 -100 -22 -84 -53 13 -23 34
-20 25 3 -6 15 18 20 144 32 l74 6 -13 -23 c-33 -64 -85 -136 -140 -195 -52
-56 -59 -67 -48 -81 11 -13 35 -15 156 -11 78 2 146 8 150 12 18 18 -30 25
-139 19 -74 -4 -118 -2 -118 4 0 5 14 22 31 39 59 56 149 203 149 244 0 21 -5
22 -90 13z"/>
</g>
</svg>
